<svg width="49" height="38" viewBox="0 0 49 38" fill="none" xmlns="http://www.w3.org/2000/svg">
<g clip-path="url(#clip0_5134_2)">
<path d="M33.8216 12.8935C33.8216 18.3575 29.5057 22.7869 24.1818 22.7869C18.8579 22.7869 14.542 18.3575 14.542 12.8935C14.542 7.42946 18.8579 3 24.1818 3C29.5057 3 33.8216 7.42946 33.8216 12.8935Z" fill="#E08631"/>
<path d="M131.5 25.6289H40.8949V19.3709L44.358 20.6921C44.4028 20.7092 44.4487 20.7173 44.4939 20.7173C44.6524 20.7173 44.8015 20.6176 44.8599 20.4561C44.9351 20.2488 44.8322 20.0181 44.63 19.941L37.2547 17.1272V14.8374C37.2547 14.6161 37.0799 14.4367 36.8643 14.4367C36.6487 14.4367 36.4739 14.6161 36.4739 14.8374V16.8293L24.3178 12.1916C24.23 12.1581 24.1334 12.1581 24.0458 12.1916L3.73349 19.941C3.53138 20.0181 3.42844 20.2488 3.50355 20.4561C3.57866 20.6636 3.80374 20.7694 4.00552 20.6921L7.46861 19.3709V25.6289H0.729756C0.514158 25.6289 0.339355 25.8083 0.339355 26.0296C0.339355 26.2509 0.514158 26.4303 0.729756 26.4303H131.5C131.476 26.4999 131.524 26.0648 131.5 26.0296C131.476 25.9944 131.5 25.7851 131.5 25.6289ZM8.24942 19.073L24.1818 12.9946L40.1141 19.073V25.6289H8.24942V19.073ZM44.0136 30.4265C44.065 30.6414 43.937 30.8583 43.7276 30.9112C43.2451 31.0328 42.7031 31.1453 42.011 31.1453C40.4224 31.1453 39.6216 30.6814 38.8472 30.2328C38.1289 29.8166 37.4506 29.4237 36.0672 29.4237C34.684 29.4237 34.0058 29.8166 33.2877 30.2328C32.5133 30.6814 31.7125 31.1453 30.1241 31.1453C28.5358 31.1453 27.735 30.6814 26.9606 30.2328C26.2425 29.8166 25.5642 29.4237 24.181 29.4237C22.7979 29.4237 22.1196 29.8166 21.4015 30.2328C20.6272 30.6814 19.8264 31.1453 18.2381 31.1453C16.6498 31.1453 15.8491 30.6814 15.0748 30.2328C14.3567 29.8166 13.6784 29.4237 12.2953 29.4237C10.9121 29.4237 10.2338 29.8166 9.51565 30.2328C8.74128 30.6814 7.94055 31.1453 6.35217 31.1453C5.65943 31.1453 5.11786 31.0328 4.63577 30.9112C4.42642 30.8582 4.29841 30.6413 4.34988 30.4264C4.40135 30.2115 4.61275 30.0807 4.8222 30.1329C5.25659 30.2426 5.74259 30.344 6.35217 30.344C7.73535 30.344 8.41369 29.951 9.13182 29.5349C9.90619 29.0863 10.7069 28.6223 12.2953 28.6223C13.8836 28.6223 14.6843 29.0863 15.4586 29.5349C16.1767 29.951 16.855 30.344 18.2381 30.344C19.6212 30.344 20.2995 29.951 21.0177 29.5349C21.792 29.0863 22.5927 28.6223 24.181 28.6223C25.7694 28.6223 26.5701 29.0863 27.3445 29.5349C28.0626 29.951 28.741 30.344 30.1241 30.344C31.5073 30.344 32.1857 29.951 32.9038 29.5349C33.6782 29.0863 34.4789 28.6223 36.0672 28.6223C37.6557 28.6223 38.4565 29.0863 39.2309 29.5349C39.9492 29.951 40.6276 30.344 42.011 30.344C42.6505 30.344 43.1362 30.235 43.5413 30.1329C43.7507 30.0806 43.9621 30.2115 44.0136 30.4265ZM40.3793 34.2429C40.3793 34.4641 40.2045 34.6435 39.9889 34.6435C38.5719 34.6435 37.8577 34.2435 37.1671 33.8567C36.5345 33.5023 35.9371 33.1677 34.7193 33.1677C33.5016 33.1677 32.9043 33.5023 32.2718 33.8567C31.5813 34.2435 30.8672 34.6435 29.4504 34.6435C28.0335 34.6435 27.3193 34.2435 26.6287 33.8567C25.9962 33.5023 25.3988 33.1677 24.1812 33.1677C22.9636 33.1677 22.3662 33.5023 21.7338 33.8567C21.0433 34.2435 20.3292 34.6435 18.9124 34.6435C17.4956 34.6435 16.7815 34.2435 16.0909 33.8567C15.4585 33.5023 14.8612 33.1677 13.6436 33.1677C12.426 33.1677 11.8286 33.5023 11.1962 33.8567C10.5056 34.2435 9.79143 34.6435 8.37456 34.6435C8.15896 34.6435 7.98416 34.4641 7.98416 34.2429C7.98416 34.0216 8.15896 33.8422 8.37456 33.8422C9.59223 33.8422 10.1896 33.5075 10.8221 33.1532C11.5126 32.7663 12.2268 32.3663 13.6436 32.3663C15.0604 32.3663 15.7745 32.7663 16.465 33.1532C17.0974 33.5075 17.6948 33.8422 18.9124 33.8422C20.13 33.8422 20.7273 33.5075 21.3597 33.1532C22.0503 32.7663 22.7644 32.3663 24.1812 32.3663C25.598 32.3663 26.3122 32.7663 27.0027 33.1532C27.6352 33.5075 28.2327 33.8422 29.4504 33.8422C30.668 33.8422 31.2653 33.5075 31.8978 33.1532C32.5884 32.7663 33.3024 32.3663 34.7193 32.3663C36.1363 32.3663 36.8505 32.7663 37.5411 33.1532C38.1737 33.5075 38.7711 33.8422 39.9889 33.8422C40.2045 33.8422 40.3793 34.0216 40.3793 34.2429Z" fill="white"/>
<path d="M131.849 0.575684H0.575684V37.4242H131.849V0.575684Z" stroke="white" stroke-width="1.15152"/>
<path d="M48.5054 1.15161V38.0001" stroke="white" stroke-width="1.15152"/>
</g>
<defs>
<clipPath id="clip0_5134_2">
<rect width="49" height="38" fill="white"/>
</clipPath>
</defs>
</svg>
