<svg width="35" height="35" viewBox="0 0 35 35" xmlns="http://www.w3.org/2000/svg">
	<path d="M10.8691 4.23805C11.0038 4.23799 11.1371 4.26446 11.2616 4.31595C11.386 4.36744 11.4991 4.44295 11.5944 4.53815L24.2333 17.1778C24.4256 17.3701 24.5336 17.6308 24.5336 17.9027C24.5336 18.1746 24.4256 18.4354 24.2333 18.6277L11.5944 31.2673C11.4992 31.3626 11.3862 31.4382 11.2617 31.4897C11.1373 31.5413 11.004 31.5678 10.8693 31.5679C10.7347 31.5679 10.6013 31.5414 10.4769 31.4899C10.3525 31.4384 10.2394 31.3629 10.1441 31.2677C10.0489 31.1725 9.97333 31.0595 9.92176 30.935C9.8702 30.8106 9.84364 30.6773 9.84361 30.5426C9.84358 30.408 9.87007 30.2746 9.92158 30.1502C9.97309 30.0258 10.0486 29.9127 10.1438 29.8174L22.0582 17.9031L10.1438 5.98873C10.0003 5.84533 9.90257 5.66258 9.86296 5.46361C9.82336 5.26464 9.84367 5.0584 9.92131 4.87098C9.99896 4.68355 10.1305 4.52338 10.2992 4.41071C10.4679 4.29805 10.6662 4.23796 10.8691 4.23805V4.23805Z" />
</svg>