<?xml version="1.0"?>
<svg viewBox="0 0 32 32"
	xmlns="http://www.w3.org/2000/svg">
	<path
		d="M25.1,12.174a2.452,2.452,0,1,0-2.453-2.451A2.454,2.454,0,0,0,25.1,12.174Zm0-4.195a1.743,1.743,0,1,1-1.744,1.744A1.744,1.744,0,0,1,25.1,7.979Z" />
	<path
		d="M25.1,6.82a.355.355,0,0,0,.354-.355V4.821a.355.355,0,1,0-.709,0V6.465A.355.355,0,0,0,25.1,6.82Z" />
	<path d="M24.744,12.979v1.645a.355.355,0,0,0,.709,0V12.979a.355.355,0,0,0-.709,0Z" />
	<path d="M20.2,10.077h1.646a.355.355,0,0,0,0-.709H20.2a.355.355,0,0,0,0,.709Z" />
	<path d="M30,9.368H28.355a.355.355,0,0,0,0,.709H30a.355.355,0,0,0,0-.709Z" />
	<path
		d="M27.15,11.775a.357.357,0,0,0,0,.5l1.163,1.163a.355.355,0,1,0,.5-.5l-1.163-1.163A.354.354,0,0,0,27.15,11.775Z" />
	<path d="M22.544,7.67a.355.355,0,1,0,.5-.5L21.883,6.006a.355.355,0,1,0-.5.5Z" />
	<path
		d="M27.4,7.774a.354.354,0,0,0,.251-.1l1.163-1.163a.355.355,0,0,0-.5-.5L27.15,7.169a.355.355,0,0,0,.251.605Z" />
	<path d="M22.544,11.775l-1.163,1.163a.355.355,0,0,0,.5.5l1.163-1.163a.355.355,0,1,0-.5-.5Z" />
	<path
		d="M4.031,14.891A2.263,2.263,0,0,0,6.27,12.913a2.18,2.18,0,0,0,.013-.313,2.217,2.217,0,0,0,.862.308,2.3,2.3,0,0,0,.286.018,2.266,2.266,0,0,0,2.242-1.977c.009-.071.007-.143.009-.214a2.2,2.2,0,0,0,.773.261,2.135,2.135,0,0,0,.286.019,2.237,2.237,0,0,0,.754-.135l7.973,13.807a.35.35,0,0,0,.306.178.342.342,0,0,0,.177-.048.353.353,0,0,0,.13-.483l-7.966-13.8a2.249,2.249,0,0,0,.868-1.5c.008-.064-.006-.128,0-.192a2.242,2.242,0,0,0,.762.255,2.324,2.324,0,0,0,.286.018A2.268,2.268,0,0,0,16.27,7.141c.009-.072.007-.143.009-.215a2.206,2.206,0,0,0,.773.262,2.3,2.3,0,0,0,.286.018A2.265,2.265,0,0,0,19.58,5.229a2.222,2.222,0,0,0-.222-1.266.335.335,0,0,0-.043-.161c-.74-1.284-2.338-1.943-4.536-1.853a15.276,15.276,0,0,0-6.771,2.16h0L8,4.113H7.993A15.325,15.325,0,0,0,2.731,8.9c-1.169,1.847-1.4,3.572-.663,4.856.008.013.023.019.032.031a2.233,2.233,0,0,0,1.642,1.081A2.18,2.18,0,0,0,4.031,14.891ZM8.97,10.859a1.561,1.561,0,0,1-1.736,1.346,1.525,1.525,0,0,1-.931-.48l2.609-1.507A1.5,1.5,0,0,1,8.97,10.859Zm3.31-1.911a1.553,1.553,0,0,1-1.736,1.345,1.522,1.522,0,0,1-.932-.48l2.613-1.508A1.537,1.537,0,0,1,12.28,8.948Zm3.286-1.9A1.559,1.559,0,0,1,13.831,8.4a1.537,1.537,0,0,1-.937-.477l2.615-1.51A1.5,1.5,0,0,1,15.566,7.051Zm3.311-1.912h0a1.56,1.56,0,0,1-1.735,1.345A1.518,1.518,0,0,1,16.21,6L18.819,4.5A1.5,1.5,0,0,1,18.877,5.139ZM14.808,2.657c1.728-.069,3.013.356,3.694,1.206l-2.6,1.5a4.646,4.646,0,0,0-.436-.539c-.029-.031-.061-.06-.091-.09a4.78,4.78,0,0,0-.742-.628c-.019-.013-.04-.023-.06-.036a5.164,5.164,0,0,0-.877-.463c-.016-.007-.031-.016-.047-.022a5.674,5.674,0,0,0-.965-.283c-.042-.009-.083-.02-.126-.028a6.111,6.111,0,0,0-.7-.09A11.874,11.874,0,0,1,14.808,2.657ZM10.37,3.981c.068-.013.135-.014.2-.025a5.926,5.926,0,0,1,.746-.068c.105,0,.207,0,.31.007a5.3,5.3,0,0,1,.622.055c.1.015.209.032.311.054a4.8,4.8,0,0,1,.6.17c.086.029.174.053.257.087a4.558,4.558,0,0,1,.773.4l0,0a4.171,4.171,0,0,1,.655.546c.064.065.119.14.179.209.084.1.159.207.234.314L12.449,7.357,12.41,7.3c-.076-.121-.154-.241-.233-.361-.023-.033-.044-.068-.067-.1q-.153-.223-.313-.438c-.039-.052-.079-.1-.118-.153-.072-.093-.143-.185-.217-.274-.046-.057-.093-.112-.14-.168-.068-.08-.137-.158-.206-.235-.049-.054-.1-.108-.148-.16-.074-.079-.15-.154-.225-.228-.043-.042-.085-.087-.128-.127-.113-.106-.225-.2-.338-.3-.044-.036-.088-.068-.132-.1-.075-.058-.15-.115-.224-.167-.048-.033-.1-.063-.144-.094-.072-.046-.144-.089-.216-.128-.024-.013-.049-.031-.073-.043A6.34,6.34,0,0,1,10.37,3.981Zm-2.018.747s.012,0,.017,0A.468.468,0,0,1,8.6,4.677c.029,0,.064.012.1.016a1.189,1.189,0,0,1,.22.051c.046.016.1.04.144.062a2.311,2.311,0,0,1,.238.12c.055.032.112.068.17.106.087.058.178.125.271.2.059.046.118.091.179.143.106.09.216.194.327.3.052.052.1.1.157.152.166.171.335.358.506.567.022.027.044.06.066.087q.223.277.447.6c.06.086.119.181.179.271.077.118.154.243.231.368L9.2,9.232c-.054-.1-.107-.2-.158-.3-.059-.116-.119-.231-.173-.347-.075-.159-.142-.316-.207-.474-.045-.107-.093-.216-.134-.322-.065-.172-.119-.339-.171-.506-.028-.086-.061-.175-.085-.26a7,7,0,0,1-.166-.719,4.508,4.508,0,0,1-.059-.565C8.032,5.223,8.138,4.852,8.352,4.728ZM5.4,9.118c.008-.1,0-.205.02-.309A5.041,5.041,0,0,1,5.646,7.9a5.494,5.494,0,0,1,.391-.842c.041-.074.086-.145.13-.217A5.884,5.884,0,0,1,6.6,6.223c.044-.054.084-.111.131-.165a6.189,6.189,0,0,1,.611-.6c0,.033,0,.071,0,.1s0,.1,0,.147a4.888,4.888,0,0,0,.062.712,7.665,7.665,0,0,0,.179.781c.025.089.06.182.089.273.057.184.116.368.188.558.04.106.088.214.133.322.074.179.148.356.234.537.053.114.113.228.171.343s.114.236.178.355L5.765,11.217c-.044-.1-.088-.191-.125-.289-.043-.117-.089-.232-.122-.352a4.209,4.209,0,0,1-.095-.515c-.016-.117-.039-.233-.045-.352A4.35,4.35,0,0,1,5.4,9.118Zm-2.07.165A11.879,11.879,0,0,1,5.252,7.006a5.926,5.926,0,0,0-.274.653,5.7,5.7,0,0,0-.244.957c0,.03-.013.06-.017.091a5.166,5.166,0,0,0-.054.9c0,.043,0,.086,0,.129a4.854,4.854,0,0,0,.119.853c.011.046.022.092.034.137a4.661,4.661,0,0,0,.29.8c.008.017.011.036.019.053l-2.6,1.5A4.357,4.357,0,0,1,3.33,9.283Zm2.179,2.9a1.5,1.5,0,0,1,.057.641,1.546,1.546,0,0,1-2.667.865Z" />
	<path
		d="M27.348,25.755a.356.356,0,0,0-.3-.162H8.4L4.032,17.941a.354.354,0,1,0-.615.352l4.366,7.656-2,3.583a.355.355,0,0,0,.619.346l2-3.576H26.856L29.181,29.9a.354.354,0,1,0,.595-.384Z" />
</svg>