<?xml version="1.0"?>
<svg width="512px" height="512px" viewBox="0 0 512 512" enable-background="new 0 0 512 512" version="1.1" xml:space="preserve" xmlns="http://www.w3.org/2000/svg" xmlns:xlink="http://www.w3.org/1999/xlink">
	<g>
		<path d="M121.044,184.364c0,3.903,3.175,7.078,7.078,7.078h12.897c3.903,0,7.078-3.175,7.078-7.078v-49.25h93.921v49.25   c0,3.903,3.175,7.078,7.078,7.078h12.897c3.903,0,7.079-3.175,7.079-7.078v-49.25h99.245v49.25c0,3.903,3.176,7.078,7.078,7.078   h12.898c3.902,0,7.078-3.175,7.078-7.078v-49.25h66.263v-7.2h-32.741c0.719-1.478,1.135-3.129,1.135-4.879   c0-2.935-1.145-5.601-2.998-7.6c1.854-2,2.998-4.665,2.998-7.6c0-6.176-5.025-11.2-11.201-11.2h-73.965   c-6.176,0-11.2,5.024-11.2,11.2c0,2.935,1.144,5.601,2.997,7.6c-1.854,1.999-2.997,4.665-2.997,7.6c0,1.75,0.415,3.401,1.134,4.879   h-32.202c0.719-1.478,1.134-3.129,1.134-4.879c0-2.935-1.144-5.601-2.997-7.6c1.854-2,2.997-4.665,2.997-7.6   c0-6.176-5.024-11.2-11.199-11.2h-73.966c-6.176,0-11.2,5.024-11.2,11.2c0,2.935,1.144,5.601,2.997,7.6   c-1.853,1.999-2.997,4.665-2.997,7.6c0,1.75,0.415,3.401,1.134,4.879H181.62c0.719-1.478,1.134-3.129,1.134-4.879   c0-2.935-1.144-5.601-2.997-7.6c1.854-2,2.997-4.665,2.997-7.6c0-6.176-5.025-11.2-11.2-11.2H97.588c-6.176,0-11.2,5.024-11.2,11.2   c0,2.935,1.144,5.601,2.997,7.6c-1.853,1.999-2.997,4.665-2.997,7.6c0,1.75,0.415,3.401,1.134,4.879H49.457v7.2h71.587V184.364z    M388.173,184.242H375.52v-49.128h12.653V184.242z M344.863,103.835h73.965c2.206,0,4,1.795,4,4c0,2.206-1.794,4-4,4h-73.965   c-2.206,0-4-1.794-4-4C340.863,105.63,342.657,103.835,344.863,103.835z M344.863,119.035h73.965c2.206,0,4,1.795,4,4   c0,2.205-1.794,4-4,4h-73.965c-2.206,0-4-1.795-4-4C340.863,120.83,342.657,119.035,344.863,119.035z M261.873,184.242h-12.654   v-49.128h12.654V184.242z M218.563,103.835h73.966c2.205,0,4,1.795,4,4c0,2.206-1.795,4-4,4h-73.966c-2.206,0-4-1.794-4-4   C214.563,105.63,216.358,103.835,218.563,103.835z M218.563,119.035h73.966c2.205,0,4,1.795,4,4c0,2.205-1.795,4-4,4h-73.966   c-2.206,0-4-1.795-4-4C214.563,120.83,216.358,119.035,218.563,119.035z M140.898,184.242h-12.654v-49.128h12.654V184.242z    M97.588,103.835h73.965c2.205,0,4,1.795,4,4c0,2.206-1.795,4-4,4H97.588c-2.206,0-4-1.794-4-4   C93.588,105.63,95.383,103.835,97.588,103.835z M97.588,127.035c-2.206,0-4-1.795-4-4c0-2.206,1.795-4,4-4h73.965   c2.205,0,4,1.795,4,4c0,2.205-1.795,4-4,4H97.588z" />
		<path d="M474.91,223.365H339.777c-6.249,0-11.333,5.084-11.333,11.333v12.74c-1.521-0.758-3.228-1.196-5.038-1.196H188.274   c-1.685,0-3.28,0.38-4.719,1.042v-12.586c0-6.25-5.084-11.333-11.333-11.333H37.09c-6.25,0-11.334,5.084-11.334,11.333v169.333   c0,6.25,5.084,11.334,11.334,11.334h135.132c3.133,0,5.972-1.278,8.026-3.341c2.054,2.063,4.893,3.341,8.026,3.341h135.132   c3.219,0,6.121-1.355,8.186-3.516c2.065,2.16,4.968,3.516,8.186,3.516H474.91c6.25,0,11.334-5.084,11.334-11.334V234.699   C486.244,228.449,481.16,223.365,474.91,223.365z M176.356,404.031c0,2.279-1.854,4.134-4.134,4.134H37.09   c-2.28,0-4.134-1.854-4.134-4.134V277.442h143.4V404.031z M176.356,270.242h-143.4v-35.543c0-2.279,1.854-4.134,4.134-4.134   h135.132c2.279,0,4.134,1.854,4.134,4.134V270.242z M327.541,404.031c0,2.279-1.855,4.134-4.135,4.134H188.274   c-2.28,0-4.134-1.854-4.134-4.134V257.576c0-2.279,1.854-4.134,4.134-4.134h135.132c2.279,0,4.135,1.854,4.135,4.134V404.031z    M479.044,404.031c0,2.279-1.854,4.134-4.134,4.134H339.777c-2.279,0-4.133-1.854-4.133-4.134V277.442h143.399V404.031z    M479.044,270.242H335.645v-35.543c0-2.279,1.854-4.134,4.133-4.134H474.91c2.279,0,4.134,1.854,4.134,4.134V270.242z" />
		<path d="M299.406,270.242h-87.132c-6.25,0-11.334,5.084-11.334,11.334v98.455c0,6.25,5.084,11.334,11.334,11.334h87.132   c6.25,0,11.334-5.084,11.334-11.334v-98.455C310.74,275.326,305.656,270.242,299.406,270.242z M303.541,380.031   c0,2.279-1.855,4.134-4.135,4.134h-87.132c-2.279,0-4.134-1.854-4.134-4.134v-98.455c0-2.279,1.854-4.134,4.134-4.134h87.132   c2.279,0,4.135,1.854,4.135,4.134V380.031z" />
		<rect height="7.2" width="24.401" x="243.64" y="290.635" />
	</g>
</svg>