<?xml version="1.0"?>
<svg width="512px" height="512px" viewBox="0 0 512 512" enable-background="new 0 0 512 512"  version="1.1" xml:space="preserve" xmlns="http://www.w3.org/2000/svg" xmlns:xlink="http://www.w3.org/1999/xlink">
	<path d="M457.106,274.303c0.703-1.426,1.11-3.022,1.11-4.717V253.92c0-10.756-8.752-19.507-19.509-19.507  h-12.86v-87.491c0-15.948-12.974-28.922-28.922-28.922H115.878c-15.948,0-28.922,12.975-28.922,28.922v87.491H73.279  c-10.757,0-19.508,8.751-19.508,19.507v15.666c0,1.695,0.407,3.294,1.112,4.72C40.106,278.307,29.2,291.826,29.2,307.852v46.687  c0,8.568,6.97,15.539,15.539,15.539h32.245v14.557c0,5.165,4.202,9.366,9.367,9.366h8.399c5.165,0,9.367-4.201,9.367-9.366v-14.557  h314.527v14.557c0,5.165,4.202,9.366,9.367,9.366h8.399c5.165,0,9.367-4.201,9.367-9.366v-14.557h21.481  c8.569,0,15.539-6.971,15.539-15.539v-46.687C482.8,291.822,471.889,278.3,457.106,274.303z M94.156,146.922  c0-11.978,9.744-21.722,21.722-21.722h281.048c11.979,0,21.723,9.745,21.723,21.722v86.574h-42.646v-9.549  c0-5.765-4.689-10.455-10.455-10.455h-75.09c-5.765,0-10.455,4.69-10.455,10.455v9.549h-47.2v-9.549  c0-5.765-4.69-10.455-10.454-10.455h-75.091c-5.766,0-10.455,4.69-10.455,10.455v9.549H94.156V146.922z M368.803,223.947v9.549  h-81.601v-9.549c0-1.794,1.46-3.255,3.255-3.255h75.09C367.342,220.692,368.803,222.153,368.803,223.947z M225.602,223.947v9.549  h-81.6v-9.549c0-1.794,1.46-3.255,3.255-3.255h75.091C224.142,220.692,225.602,222.153,225.602,223.947z M60.972,253.92  c0-6.786,5.521-12.307,12.308-12.307h365.429c6.786,0,12.309,5.521,12.309,12.307v15.666c0,1.931-1.57,3.502-3.502,3.502H64.474  c-1.932,0-3.502-1.571-3.502-3.502V253.92z M96.918,384.634c0,1.194-0.972,2.166-2.167,2.166h-8.399  c-1.195,0-2.167-0.972-2.167-2.166v-13.913h12.733V384.634z M438.579,384.634c0,1.194-0.972,2.166-2.167,2.166h-8.399  c-1.195,0-2.167-0.972-2.167-2.166v-13.913h12.733V384.634z M475.6,354.538c0,4.599-3.74,8.339-8.339,8.339H44.739  c-4.599,0-8.339-3.74-8.339-8.339v-46.687c0-15.193,12.36-27.555,27.555-27.555h37.282h309.525h37.281  c15.195,0,27.556,12.361,27.556,27.555V354.538z"  />
</svg>