<?xml version="1.0" encoding="iso-8859-1"?>
<svg version="1.1"  xmlns="http://www.w3.org/2000/svg" xmlns:xlink="http://www.w3.org/1999/xlink" x="0px" y="0px"
	viewBox="0 0 460.385 460.385" style="enable-background:new 0 0 460.385 460.385;" xml:space="preserve">
	<g>
		<path d="M95.252,283.111c-13.807,0-25.039,11.232-25.039,25.039s11.232,25.039,25.039,25.039s25.039-11.233,25.039-25.039
				C120.291,294.344,109.059,283.111,95.252,283.111z M95.252,318.189c-5.536,0-10.039-4.504-10.039-10.039
				c0-5.535,4.503-10.039,10.039-10.039s10.039,4.503,10.039,10.039S100.788,318.189,95.252,318.189z" />
		<path d="M357.012,283.111c-13.807,0-25.04,11.232-25.04,25.039s11.233,25.039,25.04,25.039c13.806,0,25.038-11.233,25.038-25.039
				C382.05,294.344,370.818,283.111,357.012,283.111z M357.012,318.189c-5.536,0-10.04-4.504-10.04-10.039
				c0-5.535,4.504-10.039,10.04-10.039c5.535,0,10.038,4.503,10.038,10.039S362.547,318.189,357.012,318.189z" />
		<path d="M409.227,196.422l-66.917-7.645l-35.714-58.056c-10.905-17.728-30.61-28.741-51.424-28.741H133.676
				c-34.925,0-65.792,23.518-75.063,57.193l-0.948,3.445c-4.607,16.733-17.845,30.052-34.549,34.762
				C9.506,201.218,0,213.774,0,227.915v83.012c0,4.142,3.358,7.5,7.5,7.5h38.557c4.757,22.798,25.006,39.978,49.195,39.978
				c24.189,0,44.438-17.18,49.195-39.978h163.37c4.757,22.798,25.006,39.978,49.195,39.978c24.189,0,44.438-17.18,49.195-39.978
				h40.477c3.813,0,7.02-2.861,7.452-6.65l5.874-51.483C463.614,228.691,440.834,200.038,409.227,196.422z M45.225,303.427H15
				v-9.113h31.949C46.106,297.252,45.519,300.297,45.225,303.427z M95.252,343.405c-19.44,0-35.255-15.815-35.255-35.255
				s15.815-35.256,35.255-35.256s35.255,15.816,35.255,35.256S114.692,343.405,95.252,343.405z M357.012,343.405
				c-19.44,0-35.255-15.815-35.255-35.255s15.815-35.256,35.255-35.256s35.255,15.816,35.255,35.256
				S376.452,343.405,357.012,343.405z M439.99,303.427h-32.952c-0.293-3.13-0.881-6.175-1.724-9.113h35.716L439.99,303.427z
				 M445.105,258.594l-2.364,20.72h-44.608c-9.1-12.94-24.135-21.42-41.121-21.42c-16.987,0-32.021,8.48-41.122,21.42H182.425
				c-4.142,0-7.5,3.358-7.5,7.5c0,4.142,3.358,7.5,7.5,7.5h126.284c-0.843,2.938-1.43,5.983-1.724,9.113H145.279
				c-2.389-25.504-23.909-45.533-50.027-45.533c-16.987,0-32.021,8.48-41.122,21.42H15v-51.399c0-7.455,5.012-14.075,12.187-16.098
				c21.728-6.126,38.947-23.452,44.94-45.218l0.948-3.445c7.484-27.186,32.405-46.174,60.601-46.174h121.496
				c15.643,0,30.452,8.277,38.647,21.6l37.626,61.164c1.207,1.962,3.249,3.26,5.537,3.522l70.541,8.059
				c16.002,1.831,28.943,12.335,34.67,26.276H418.78c-4.142,0-7.5,3.358-7.5,7.5c0,4.142,3.358,7.5,7.5,7.5h26.578
				C445.41,254.576,445.335,256.576,445.105,258.594z" />
		<path d="M255.565,215.223h-15.76c-4.142,0-7.5,3.358-7.5,7.5c0,4.142,3.358,7.5,7.5,7.5h15.76c4.142,0,7.5-3.358,7.5-7.5
				C263.065,218.581,259.708,215.223,255.565,215.223z" />
		<path d="M154.846,222.723c0-4.142-3.358-7.5-7.5-7.5h-15.76c-4.142,0-7.5,3.358-7.5,7.5c0,4.142,3.358,7.5,7.5,7.5h15.76
				C151.488,230.223,154.846,226.865,154.846,222.723z" />
		<path d="M164.136,283.942c-0.086-0.203-0.055-0.127-0.013-0.027c-1.322-3.097-4.655-5.04-8.012-4.519
				c-3.049,0.474-5.522,2.768-6.213,5.776c-1.496,6.51,6.051,11.564,11.54,7.829c2.897-1.97,4.03-5.792,2.708-9.031
				C164.189,284.073,164.224,284.155,164.136,283.942z" />
		<path d="M286.014,143.392c-6.531-10.637-18.348-17.245-30.841-17.245h-121.5c-24.087,0-45.371,16.217-51.761,39.443l-0.943,3.438
				c-2.468,8.956-6.268,24.34-6.429,24.991c-0.553,2.238-0.045,4.606,1.376,6.422c1.422,1.815,3.599,2.876,5.905,2.876h227.64
				c2.717,0,5.222-1.469,6.547-3.841c1.326-2.372,1.265-5.275-0.159-7.589L286.014,143.392z M115.298,188.314H91.432
				c1.265-4.992,2.81-10.99,4-15.311l0.944-3.441c2.86-10.395,9.865-18.839,18.922-23.747V188.314z M199.352,141.146v47.169h-69.054
				v-47.018c1.115-0.098,2.24-0.151,3.375-0.151L199.352,141.146L199.352,141.146z M214.352,188.315v-47.169h40.821
				c7.316,0,14.235,3.868,18.062,10.1l22.807,37.069H214.352z" />
	</g>
</svg>