<svg viewBox="0 0 20 24" xmlns="http://www.w3.org/2000/svg">
	<path d="M10 0.25C15.3848 0.25 19.75 4.61522 19.75 10C19.75 14.1196 16.8554 18.6093 11.1402 23.5179C10.4844 24.0811 9.51558 24.0811 8.85717 23.5156L8.47942 23.1881C3.01712 18.4089 0.25 14.0278 0.25 10C0.25 4.61522 4.61522 0.25 10 0.25ZM10 1.75C5.44365 1.75 1.75 5.44365 1.75 10C1.75 13.5021 4.2984 17.5368 9.46455 22.057L9.83709 22.3799C9.93078 22.4604 10.0692 22.4604 10.1629 22.3799C15.5789 17.7283 18.25 13.5853 18.25 10C18.25 5.44365 14.5563 1.75 10 1.75ZM10 6.25C12.0711 6.25 13.75 7.92893 13.75 10C13.75 12.0711 12.0711 13.75 10 13.75C7.92893 13.75 6.25 12.0711 6.25 10C6.25 7.92893 7.92893 6.25 10 6.25ZM10 7.75C8.75736 7.75 7.75 8.75736 7.75 10C7.75 11.2426 8.75736 12.25 10 12.25C11.2426 12.25 12.25 11.2426 12.25 10C12.25 8.75736 11.2426 7.75 10 7.75Z"  />
</svg>