<svg width="132" height="38" viewBox="0 0 132 38" fill="none" xmlns="http://www.w3.org/2000/svg">
<path d="M32.9219 13.6409C32.9219 18.6389 28.9742 22.6905 24.1044 22.6905C19.2346 22.6905 15.2868 18.6389 15.2868 13.6409C15.2868 8.64295 19.2346 4.59131 24.1044 4.59131C28.9742 4.59131 32.9219 8.64295 32.9219 13.6409Z" fill="#E08631"/>
<path d="M45.5559 25.2902H39.3919V19.5659L42.5596 20.7744C42.6006 20.7901 42.6426 20.7975 42.684 20.7975C42.8289 20.7975 42.9653 20.7062 43.0187 20.5586C43.0875 20.3689 42.9934 20.1579 42.8085 20.0874L36.0622 17.5136V15.4191C36.0622 15.2167 35.9023 15.0526 35.7051 15.0526C35.5079 15.0526 35.348 15.2167 35.348 15.4191V17.2411L24.2288 12.999C24.1485 12.9684 24.0601 12.9684 23.98 12.999L5.40028 20.0874C5.21541 20.1579 5.12126 20.3689 5.18996 20.5586C5.25866 20.7484 5.46454 20.8451 5.6491 20.7744L8.81681 19.5659V25.2902H2.65276C2.45555 25.2902 2.29565 25.4543 2.29565 25.6567C2.29565 25.8591 2.45555 26.0232 2.65276 26.0232H45.5559C45.7532 26.0232 45.913 25.8591 45.913 25.6567C45.913 25.4543 45.7532 25.2902 45.5559 25.2902ZM9.53101 19.2934L24.1044 13.7335L38.6777 19.2934V25.2902H9.53101V19.2934ZM42.2446 29.6785C42.2916 29.8751 42.1746 30.0735 41.983 30.1218C41.5417 30.2331 41.046 30.3361 40.4128 30.3361C38.9598 30.3361 38.2273 29.9117 37.5189 29.5013C36.8619 29.1207 36.2414 28.7613 34.976 28.7613C33.7108 28.7613 33.0904 29.1207 32.4336 29.5013C31.7252 29.9117 30.9928 30.3361 29.5399 30.3361C28.087 30.3361 27.3546 29.9117 26.6462 29.5013C25.9894 29.1207 25.3689 28.7613 24.1037 28.7613C22.8385 28.7613 22.2181 29.1207 21.5613 29.5013C20.853 29.9117 20.1206 30.3361 18.6677 30.3361C17.2149 30.3361 16.4825 29.9117 15.7742 29.5013C15.1174 29.1207 14.497 28.7613 13.2318 28.7613C11.9666 28.7613 11.3461 29.1207 10.6892 29.5013C9.98092 29.9117 9.2485 30.3361 7.79559 30.3361C7.16195 30.3361 6.66657 30.2331 6.2256 30.1218C6.0341 30.0734 5.91702 29.875 5.9641 29.6784C6.01118 29.4819 6.20455 29.3622 6.39613 29.41C6.79347 29.5103 7.23801 29.6031 7.79559 29.6031C9.06079 29.6031 9.68127 29.2436 10.3382 28.863C11.0465 28.4526 11.7789 28.0283 13.2318 28.0283C14.6846 28.0283 15.417 28.4526 16.1253 28.863C16.7822 29.2436 17.4026 29.6031 18.6677 29.6031C19.9329 29.6031 20.5533 29.2436 21.2102 28.863C21.9185 28.4526 22.6509 28.0283 24.1037 28.0283C25.5566 28.0283 26.289 28.4526 26.9974 28.863C27.6542 29.2436 28.2747 29.6031 29.5399 29.6031C30.8051 29.6031 31.4256 29.2435 32.0824 28.863C32.7908 28.4526 33.5232 28.0283 34.976 28.0283C36.429 28.0283 37.1615 28.4526 37.8699 28.863C38.5269 29.2435 39.1475 29.6031 40.4128 29.6031C40.9978 29.6031 41.4421 29.5034 41.8127 29.41C42.0042 29.3621 42.1976 29.4819 42.2446 29.6785ZM38.9204 33.1694C38.9204 33.3718 38.7605 33.5359 38.5633 33.5359C37.2671 33.5359 36.6138 33.17 35.9821 32.8161C35.4035 32.492 34.857 32.1859 33.7431 32.1859C32.6293 32.1859 32.0829 32.492 31.5044 32.8161C30.8728 33.17 30.2196 33.5359 28.9236 33.5359C27.6275 33.5359 26.9743 33.17 26.3426 32.8161C25.7641 32.492 25.2176 32.1859 24.1039 32.1859C22.9902 32.1859 22.4437 32.492 21.8653 32.8161C21.2336 33.17 20.5805 33.5359 19.2845 33.5359C17.9885 33.5359 17.3353 33.17 16.7037 32.8161C16.1252 32.492 15.5789 32.1859 14.4651 32.1859C13.3513 32.1859 12.8049 32.492 12.2264 32.8161C11.5947 33.17 10.9415 33.5359 9.64549 33.5359C9.44828 33.5359 9.28838 33.3718 9.28838 33.1694C9.28838 32.967 9.44828 32.8029 9.64549 32.8029C10.7593 32.8029 11.3057 32.4968 11.8842 32.1727C12.5159 31.8188 13.1691 31.4529 14.4651 31.4529C15.7611 31.4529 16.4142 31.8188 17.0459 32.1727C17.6243 32.4968 18.1708 32.8029 19.2845 32.8029C20.3982 32.8029 20.9446 32.4968 21.5231 32.1727C22.1547 31.8188 22.8079 31.4529 24.1039 31.4529C25.3998 31.4529 26.0531 31.8188 26.6847 32.1727C27.2633 32.4968 27.8098 32.8029 28.9236 32.8029C30.0374 32.8029 30.5837 32.4968 31.1623 32.1727C31.7939 31.8188 32.4471 31.4529 33.7431 31.4529C35.0392 31.4529 35.6925 31.8188 36.3242 32.1727C36.9029 32.4968 37.4493 32.8029 38.5633 32.8029C38.7605 32.8029 38.9204 32.967 38.9204 33.1694Z" fill="#333333"/>
<path d="M57.3338 31.8087V26.5388H60.938V26.9931H57.6973L57.8386 26.8517V31.8087H57.3338ZM63.8703 31.8491C63.3655 31.8491 62.9146 31.7347 62.5175 31.5058C62.1271 31.277 61.8141 30.9607 61.5786 30.5568C61.3497 30.153 61.2353 29.692 61.2353 29.1737C61.2353 28.6488 61.3497 28.1877 61.5786 27.7906C61.8141 27.3868 62.1271 27.0705 62.5175 26.8416C62.9146 26.6128 63.3655 26.4984 63.8703 26.4984C64.3751 26.4984 64.826 26.6128 65.2231 26.8416C65.6202 27.0705 65.9332 27.3868 66.162 27.7906C66.3908 28.1877 66.5053 28.6488 66.5053 29.1737C66.5053 29.692 66.3908 30.153 66.162 30.5568C65.9332 30.9607 65.6202 31.277 65.2231 31.5058C64.826 31.7347 64.3751 31.8491 63.8703 31.8491ZM63.8703 31.3948C64.2741 31.3948 64.6376 31.3039 64.9606 31.1222C65.2837 30.9337 65.5361 30.6713 65.7178 30.3347C65.8995 29.9982 65.9904 29.6112 65.9904 29.1737C65.9904 28.7295 65.8995 28.3425 65.7178 28.0127C65.5361 27.6762 65.2837 27.4171 64.9606 27.2354C64.6376 27.0469 64.2741 26.9527 63.8703 26.9527C63.4665 26.9527 63.103 27.0469 62.78 27.2354C62.4636 27.4171 62.2112 27.6762 62.0228 28.0127C61.8411 28.3425 61.7502 28.7295 61.7502 29.1737C61.7502 29.6112 61.8411 29.9982 62.0228 30.3347C62.2112 30.6713 62.4636 30.9337 62.78 31.1222C63.103 31.3039 63.4665 31.3948 63.8703 31.3948ZM70.2794 31.8491C69.7679 31.8491 69.3102 31.7347 68.9064 31.5058C68.5093 31.277 68.1929 30.9607 67.9574 30.5568C67.7285 30.153 67.6141 29.692 67.6141 29.1737C67.6141 28.6488 67.7285 28.1844 67.9574 27.7805C68.1929 27.3767 68.5093 27.0637 68.9064 26.8416C69.3102 26.6128 69.7679 26.4984 70.2794 26.4984C70.7034 26.4984 71.087 26.5792 71.4303 26.7407C71.7803 26.9022 72.0629 27.1445 72.2783 27.4676L71.9048 27.7402C71.7163 27.4709 71.4808 27.2724 71.1981 27.1445C70.9154 27.0166 70.6092 26.9527 70.2794 26.9527C69.8688 26.9527 69.4986 27.0469 69.1689 27.2354C68.8458 27.4171 68.59 27.6762 68.4016 28.0127C68.2199 28.3425 68.129 28.7295 68.129 29.1737C68.129 29.6179 68.2199 30.0083 68.4016 30.3448C68.59 30.6746 68.8458 30.9337 69.1689 31.1222C69.4986 31.3039 69.8688 31.3948 70.2794 31.3948C70.6092 31.3948 70.9154 31.3308 71.1981 31.203C71.4808 31.0751 71.7163 30.8765 71.9048 30.6073L72.2783 30.8799C72.0629 31.203 71.7803 31.4453 71.4303 31.6068C71.087 31.7683 70.7034 31.8491 70.2794 31.8491ZM74.6096 31.8087V26.8416L74.751 26.9931H72.5501V26.5388H77.1739V26.9931H74.9731L75.1144 26.8416V31.8087H74.6096ZM80.1889 31.8491C79.6572 31.8491 79.1861 31.7347 78.7755 31.5058C78.3717 31.277 78.052 30.9607 77.8164 30.5568C77.5876 30.153 77.4732 29.692 77.4732 29.1737C77.4732 28.6488 77.5809 28.1877 77.7962 27.7906C78.0183 27.3868 78.3212 27.0705 78.7048 26.8416C79.0885 26.6128 79.5192 26.4984 79.9971 26.4984C80.4749 26.4984 80.9023 26.6094 81.2792 26.8315C81.6629 27.0536 81.9624 27.3666 82.1777 27.7704C82.3998 28.1675 82.5109 28.6286 82.5109 29.1535C82.5109 29.1737 82.5075 29.1973 82.5008 29.2242C82.5008 29.2444 82.5008 29.268 82.5008 29.2949H77.8467V28.9012H82.2282L82.0263 29.093C82.033 28.6824 81.9455 28.3156 81.7638 27.9925C81.5888 27.6628 81.3499 27.407 81.047 27.2253C80.7442 27.0368 80.3942 26.9426 79.9971 26.9426C79.6067 26.9426 79.2567 27.0368 78.9471 27.2253C78.6443 27.407 78.4053 27.6628 78.2303 27.9925C78.0553 28.3156 77.9679 28.6858 77.9679 29.1031V29.1939C77.9679 29.6247 78.0621 30.0083 78.2505 30.3448C78.4457 30.6746 78.7116 30.9337 79.0481 31.1222C79.3846 31.3039 79.7682 31.3948 80.199 31.3948C80.5355 31.3948 80.8485 31.3342 81.1379 31.2131C81.434 31.0919 81.6831 30.9068 81.885 30.6578L82.1777 30.991C81.9489 31.2736 81.6595 31.489 81.3095 31.6371C80.9663 31.7784 80.5927 31.8491 80.1889 31.8491ZM84.1603 31.8087V26.5388H86.3813C86.9601 26.5388 87.4178 26.6532 87.7543 26.882C88.0909 27.1109 88.2591 27.444 88.2591 27.8815C88.2591 28.3122 88.0942 28.6387 87.7644 28.8608C87.4414 29.0829 87.0207 29.1939 86.5025 29.1939L86.6438 29.0425C87.263 29.0425 87.7173 29.1569 88.0067 29.3857C88.2961 29.6146 88.4408 29.9511 88.4408 30.3953C88.4408 30.8462 88.2759 31.1962 87.9461 31.4453C87.6231 31.6876 87.1217 31.8087 86.4419 31.8087H84.1603ZM84.655 31.3948H86.4318C86.9231 31.3948 87.2967 31.314 87.5524 31.1525C87.8082 30.991 87.9361 30.7318 87.9361 30.3751C87.9361 30.0117 87.8216 29.7492 87.5928 29.5877C87.3707 29.4194 87.0106 29.3353 86.5126 29.3353H84.655V31.3948ZM84.655 28.9415H86.351C86.7952 28.9415 87.1385 28.8574 87.3808 28.6891C87.6298 28.5209 87.7543 28.2719 87.7543 27.9421C87.7543 27.6123 87.6298 27.3666 87.3808 27.2051C87.1385 27.0368 86.7952 26.9527 86.351 26.9527H84.655V28.9415ZM92.3333 31.8491C91.8286 31.8491 91.3776 31.7347 90.9805 31.5058C90.5902 31.277 90.2772 30.9607 90.0416 30.5568C89.8128 30.153 89.6984 29.692 89.6984 29.1737C89.6984 28.6488 89.8128 28.1877 90.0416 27.7906C90.2772 27.3868 90.5902 27.0705 90.9805 26.8416C91.3776 26.6128 91.8286 26.4984 92.3333 26.4984C92.8381 26.4984 93.2891 26.6128 93.6862 26.8416C94.0833 27.0705 94.3962 27.3868 94.6251 27.7906C94.8539 28.1877 94.9683 28.6488 94.9683 29.1737C94.9683 29.692 94.8539 30.153 94.6251 30.5568C94.3962 30.9607 94.0833 31.277 93.6862 31.5058C93.2891 31.7347 92.8381 31.8491 92.3333 31.8491ZM92.3333 31.3948C92.7372 31.3948 93.1006 31.3039 93.4237 31.1222C93.7467 30.9337 93.9991 30.6713 94.1808 30.3347C94.3626 29.9982 94.4534 29.6112 94.4534 29.1737C94.4534 28.7295 94.3626 28.3425 94.1808 28.0127C93.9991 27.6762 93.7467 27.4171 93.4237 27.2354C93.1006 27.0469 92.7372 26.9527 92.3333 26.9527C91.9295 26.9527 91.5661 27.0469 91.243 27.2354C90.9267 27.4171 90.6743 27.6762 90.4858 28.0127C90.3041 28.3425 90.2133 28.7295 90.2133 29.1737C90.2133 29.6112 90.3041 29.9982 90.4858 30.3347C90.6743 30.6713 90.9267 30.9337 91.243 31.1222C91.5661 31.3039 91.9295 31.3948 92.3333 31.3948ZM96.6122 31.8087V26.5388H97.117V31.0313L100.873 26.5388H101.317V31.8087H100.812V27.3161L97.0565 31.8087H96.6122ZM98.9443 25.7311C98.5338 25.7311 98.1939 25.6234 97.9247 25.4081C97.6622 25.186 97.5242 24.8797 97.5108 24.4894H97.8843C97.8978 24.7653 98.0021 24.984 98.1973 25.1456C98.3992 25.3071 98.6482 25.3879 98.9443 25.3879C99.2405 25.3879 99.4861 25.3071 99.6813 25.1456C99.8832 24.984 99.9876 24.7653 99.9943 24.4894H100.378C100.371 24.8797 100.233 25.186 99.964 25.4081C99.7015 25.6234 99.3616 25.7311 98.9443 25.7311ZM109.691 31.5664V26.9931H106.945L106.884 28.3055C106.871 28.6757 106.847 29.0459 106.814 29.416C106.78 29.7795 106.726 30.116 106.652 30.4256C106.578 30.7285 106.474 30.9741 106.339 31.1626C106.211 31.351 106.043 31.4554 105.834 31.4755L105.33 31.3645C105.545 31.378 105.72 31.3006 105.855 31.1323C105.989 30.9573 106.094 30.7217 106.168 30.4256C106.242 30.1295 106.295 29.7963 106.329 29.4261C106.369 29.0492 106.4 28.6656 106.42 28.2752L106.491 26.5388H110.196V31.5664H109.691ZM105.097 33.1211V31.3645H111.044V33.1211H110.569V31.8087H105.582V33.1211H105.097ZM114.634 31.8491C114.13 31.8491 113.679 31.7347 113.282 31.5058C112.891 31.277 112.578 30.9607 112.343 30.5568C112.114 30.153 112 29.692 112 29.1737C112 28.6488 112.114 28.1877 112.343 27.7906C112.578 27.3868 112.891 27.0705 113.282 26.8416C113.679 26.6128 114.13 26.4984 114.634 26.4984C115.139 26.4984 115.59 26.6128 115.987 26.8416C116.384 27.0705 116.697 27.3868 116.926 27.7906C117.155 28.1877 117.269 28.6488 117.269 29.1737C117.269 29.692 117.155 30.153 116.926 30.5568C116.697 30.9607 116.384 31.277 115.987 31.5058C115.59 31.7347 115.139 31.8491 114.634 31.8491ZM114.634 31.3948C115.038 31.3948 115.402 31.3039 115.725 31.1222C116.048 30.9337 116.3 30.6713 116.482 30.3347C116.664 29.9982 116.755 29.6112 116.755 29.1737C116.755 28.7295 116.664 28.3425 116.482 28.0127C116.3 27.6762 116.048 27.4171 115.725 27.2354C115.402 27.0469 115.038 26.9527 114.634 26.9527C114.231 26.9527 113.867 27.0469 113.544 27.2354C113.228 27.4171 112.975 27.6762 112.787 28.0127C112.605 28.3425 112.514 28.7295 112.514 29.1737C112.514 29.6112 112.605 29.9982 112.787 30.3347C112.975 30.6713 113.228 30.9337 113.544 31.1222C113.867 31.3039 114.231 31.3948 114.634 31.3948ZM118.913 31.8087V26.5388H119.408L121.902 30.7083H121.68L124.183 26.5388H124.648V31.8087H124.183V27.1445L124.284 27.1849L121.892 31.1323H121.659L119.257 27.1546L119.378 27.1344V31.8087H118.913Z" fill="#333333"/>
<path d="M51.6501 19V5.39422H56.7425C57.8958 5.39422 58.887 5.58211 59.7163 5.95789C60.5456 6.32071 61.1806 6.85199 61.6211 7.55171C62.0747 8.23848 62.3014 9.07426 62.3014 10.0591C62.3014 11.0179 62.0747 11.8472 61.6211 12.547C61.1806 13.2337 60.5456 13.765 59.7163 14.1408C58.887 14.5166 57.8958 14.7045 56.7425 14.7045H52.447L53.0884 14.0242V19H51.6501ZM53.0884 14.1408L52.447 13.4411H56.7036C58.0642 13.4411 59.0944 13.1495 59.7941 12.5664C60.5068 11.9703 60.8631 11.1346 60.8631 10.0591C60.8631 8.9706 60.5068 8.12834 59.7941 7.53227C59.0944 6.93621 58.0642 6.63818 56.7036 6.63818H52.447L53.0884 5.95789V14.1408ZM62.5553 19L68.7751 5.39422H70.194L76.4138 19H74.8977L69.1833 6.23001H69.7664L64.052 19H62.5553ZM65.0044 15.3653L65.432 14.1991H73.3428L73.7704 15.3653H65.0044ZM88.0592 18.3197V6.63818H81.5478L81.4312 9.94244C81.3923 10.9661 81.3275 11.9509 81.2368 12.8968C81.1591 13.8298 81.0295 14.6721 80.8481 15.4236C80.6797 16.1622 80.4464 16.7648 80.1484 17.2312C79.8633 17.6977 79.4875 17.9698 79.021 18.0476L77.4467 17.756C77.965 17.782 78.3926 17.5941 78.7295 17.1924C79.0794 16.7907 79.345 16.227 79.5264 15.5014C79.7208 14.7757 79.8633 13.927 79.954 12.9551C80.0447 11.9833 80.1095 10.9337 80.1484 9.80638L80.3039 5.39422H89.4781V18.3197H88.0592ZM76.9413 22.0516L76.9607 17.756H91.5189V22.0516H90.1778V19H78.3019L78.2824 22.0516H76.9413ZM94.2196 17.6589C94.8804 17.918 95.5024 17.9828 96.0855 17.8532C96.6686 17.7107 97.2064 17.2507 97.6988 16.4732L98.3596 15.4236L98.4957 15.2487L103.705 5.39422H105.143L98.9622 16.7842C98.5475 17.5746 98.0551 18.1642 97.485 18.553C96.9278 18.9417 96.3317 19.149 95.6968 19.1749C95.0748 19.2008 94.4463 19.0842 93.8114 18.8251L94.2196 17.6589ZM98.4568 16.551L92.5674 5.39422H94.103L99.2343 15.3653L98.4568 16.551ZM107.379 19V5.39422H116.028V6.63818H108.409L108.779 6.26888L108.798 19H107.379ZM113.938 19L120.157 5.39422H121.576L127.796 19H126.28L120.566 6.23001H121.149L115.434 19H113.938ZM116.387 15.3653L116.814 14.1991H124.725L125.153 15.3653H116.387Z" fill="#333333"/>
<rect x="0.571671" y="0.571671" width="130.857" height="36.7349" stroke="#333333" stroke-width="1.14334"/>
<path d="M48.3498 1.14783V37.8783" stroke="#333333" stroke-width="1.14334"/>
</svg>
