<svg viewBox="0 0 700 679" xmlns="http://www.w3.org/2000/svg">
	<path
		d="M648.911 143.688H417.046L527.763 29.7227C529.373 28.1122 530.651 26.2006 531.523 24.0964C532.395 21.9922 532.843 19.7367 532.843 17.4591C532.843 15.1815 532.395 12.9261 531.523 10.8219C530.651 8.71766 529.373 6.80602 527.763 5.19553C526.152 3.58504 524.241 2.30749 522.137 1.4359C520.032 0.564313 517.777 0.115605 515.5 0.115605C513.222 0.115605 510.966 0.564312 508.862 1.4359C506.758 2.30749 504.846 3.58504 503.236 5.19553L368.046 143.647H340.303L208.523 11.8402C205.256 8.61483 200.85 6.80602 196.259 6.80602C191.668 6.80602 187.263 8.61483 183.996 11.8402C180.744 15.0931 178.917 19.5043 178.917 24.1038C178.917 28.7034 180.744 33.1145 183.996 36.3674L291.262 143.661H50.6212C37.1905 143.675 24.3149 149.021 14.8231 158.523C5.33124 168.025 -7.76849e-06 180.906 0 194.337V544.356C0.00720683 557.783 5.34156 570.659 14.8322 580.158C24.3229 589.656 37.194 595.001 50.6212 595.019H648.816C662.245 594.986 675.115 589.639 684.613 580.146C694.112 570.653 699.466 557.785 699.505 544.356V194.364C699.473 180.948 694.135 168.09 684.656 158.595C675.177 149.101 662.327 143.742 648.911 143.688ZM664.881 544.384C664.825 548.604 663.125 552.636 660.143 555.623C657.161 558.611 653.131 560.317 648.911 560.381H50.7169C46.4932 560.327 42.4577 558.624 39.4734 555.635C36.4891 552.646 34.7928 548.607 34.7469 544.384V194.364C34.7925 190.135 36.4872 186.091 39.47 183.093C42.4529 180.095 46.4882 178.38 50.7169 178.312H648.911C653.136 178.39 657.166 180.109 660.147 183.104C663.128 186.1 664.825 190.138 664.881 194.364V544.384ZM202.541 679.079H509.977V644.428H202.541V679.079Z"
	/>
</svg>