<?xml version="1.0" encoding="iso-8859-1"?>
<svg height="800px" width="800px" version="1.1"
	xmlns="http://www.w3.org/2000/svg" xmlns:xlink="http://www.w3.org/1999/xlink"
	viewBox="0 0 191.75 191.75" xml:space="preserve">
<path d="M154.644,191.75H24.394c-0.782,0-1.518-0.365-1.991-0.988c-0.473-0.622-0.627-1.43-0.417-2.183l10.063-36.14
	c-8.884-10.501-13.978-24.109-14.501-38.689h-4.545c-1.381,0-2.5-1.119-2.5-2.5v-1.75c0-5.928,4.822-10.75,10.75-10.75h86.642
	c5.38,0,9.85,3.973,10.629,9.139c1.33-0.683,2.46-1.75,3.253-3.121c0.663-1.146,1.013-2.556,1.013-4.078V28.25h-1.959
	c-1.381,0-2.5-1.119-2.5-2.5V18.5c0-4.273,3.477-7.75,7.75-7.75h16.377c-0.351-0.891-0.543-1.861-0.543-2.875
	c0-4.343,3.533-7.875,7.875-7.875s7.875,3.532,7.875,7.875c0,1.014-0.193,1.984-0.543,2.875h16.377c4.273,0,7.75,3.477,7.75,7.75
	v7.25c0,1.381-1.119,2.5-2.5,2.5h-1.959v65.454c0,7.462-2.346,13.939-7.384,20.384c-0.783,1.003-1.689,2.126-2.586,3.238
	c-0.745,0.923-1.484,1.838-2.138,2.667c-0.664,0.842-1.362,1.692-2.079,2.565c-4.971,6.049-10.604,12.905-11.972,26.197
	c-1.145,11.132,6.148,38.89,6.222,39.168l0.184,0.6c0.23,0.758,0.088,1.579-0.384,2.216
	C156.18,191.375,155.435,191.75,154.644,191.75z M27.685,186.75h123.708c-1.833-7.34-6.773-28.429-5.736-38.506
	c1.521-14.79,7.931-22.592,13.082-28.86c0.695-0.846,1.373-1.67,2.017-2.486c0.665-0.843,1.415-1.773,2.172-2.711
	c0.88-1.092,1.77-2.193,2.539-3.177c4.314-5.52,6.323-11.019,6.323-17.306V28.25h-44v72.439c0,2.4-0.583,4.677-1.685,6.582
	c-1.943,3.359-5.279,5.649-9.015,6.294c-0.292,0.119-0.611,0.185-0.945,0.185H22.55c0.535,13.835,5.505,26.682,14.133,36.404
	c0.003,0.004,0.007,0.009,0.011,0.013c0.011,0.012,0.021,0.024,0.031,0.036c0.181,0.211,12.283,14.047,35.418,14.047
	c1.381,0,2.5,1.119,2.5,2.5s-1.119,2.5-2.5,2.5c-18.693,0-30.708-8.08-36.05-12.699L27.685,186.75z M20.002,108.75h93.593
	c-0.369-2.817-2.785-5-5.701-5H21.252c-2.917,0-5.333,2.183-5.701,5H20.002z M174.289,23.25h1.959V18.5
	c0-1.517-1.233-2.75-2.75-2.75H126.08c-1.516,0-2.75,1.233-2.75,2.75v4.75H174.289z M149.789,5c-1.585,0-2.875,1.29-2.875,2.875
	s1.29,2.875,2.875,2.875s2.875-1.29,2.875-2.875S151.375,5,149.789,5z"/>

</svg>