<?xml version="1.0" encoding="iso-8859-1"?>
<svg version="1.1" xmlns="http://www.w3.org/2000/svg"
	xmlns:xlink="http://www.w3.org/1999/xlink" x="0px" y="0px"
	viewBox="0 0 197.333 197.333" style="enable-background:new 0 0 197.333 197.333;"
	xml:space="preserve">
<path d="M186.583,159.137H170.75c-1.104,0-2-0.896-2-2v-5.084H28.583v5.084c0,1.104-0.896,2-2,2H10.75c-1.104,0-2-0.896-2-2v-5.084
	H2c-1.104,0-2-0.896-2-2V85.345c0-3.837,3.122-6.958,6.958-6.958h6.75c1.057,0,2.06,0.237,2.958,0.661V63.292
	c0-13.838,11.258-25.096,25.096-25.096h113.809c13.838,0,25.096,11.258,25.096,25.096v15.756c0.898-0.423,1.901-0.66,2.958-0.66
	h6.75c3.837,0,6.959,3.121,6.959,6.958v64.708c0,1.104-0.896,2-2,2h-6.75v5.084C188.583,158.242,187.688,159.137,186.583,159.137z
	 M172.75,155.137h11.834v-3.084H172.75V155.137z M12.75,155.137h11.833v-3.084H12.75V155.137z M186.583,148.053h6.75V85.345
	c0-1.631-1.327-2.958-2.959-2.958h-6.75c-1.631,0-2.958,1.327-2.958,2.958v62.708H186.583z M170.75,148.053h5.917v-27.762h-156
	v27.762H170.75z M10.75,148.053h5.917V85.345c0-1.631-1.327-2.958-2.958-2.958h-6.75C5.327,82.387,4,83.715,4,85.345v62.708H10.75z
	 M24.952,116.292h147.429c2.363,0,4.285-1.922,4.285-4.285v-7.43c0-2.363-1.922-4.285-4.285-4.285H24.952
	c-2.363,0-4.286,1.922-4.286,4.285v7.43C20.667,114.37,22.589,116.292,24.952,116.292z M172.381,96.292h4.285v-33
	c0-11.632-9.464-21.096-21.096-21.096H41.762c-11.632,0-21.096,9.464-21.096,21.096v33H172.381z"/>
</svg>