<?xml version="1.0" encoding="iso-8859-1"?>
<!-- Uploaded to: SVGRepo, www.svgrepo.com, Transformed by: SVGRepo Tools -->
<svg version="1.1"
	xmlns="http://www.w3.org/2000/svg" xmlns:xlink="http://www.w3.org/1999/xlink"
	viewBox="0 0 294.159 294.159" xml:space="preserve">
<path d="M155.223,0H77.385H53.558C43.361,0,35.065,8.296,35.065,18.492s8.296,18.492,18.493,18.492
	c10.196,0,18.491-8.296,18.491-18.492h-8.318c0,5.609-4.563,10.174-10.173,10.174c-5.61,0-10.175-4.564-10.175-10.174
	S47.948,8.318,53.558,8.318h23.827V211.25c-8.257,1.891-14.425,9.27-14.425,18.103c0,10.262,8.322,18.583,18.584,18.583
	c7.957,0,14.727-5.012,17.378-12.042c11.698-20.625,104.869,4.575,124.925,48.095c3.275,7.118,9.322,10.171,16.557,10.171
	c10.263,0,18.582-8.321,18.582-18.583L259.094,0H155.223z M223.107,10.993c2.237,0,4.73,3.693,4.73,8.994
	c0,5.308-2.493,9.006-4.73,9.006c-2.244,0-4.744-3.698-4.744-9.006C218.363,14.687,220.863,10.993,223.107,10.993z M205.358,28.73
	c3.998,0,7.514-1.159,9.881-3.01c0.656,2.028,1.646,3.752,2.882,5.009h-25.51c1.233-1.256,2.224-2.979,2.878-5.007
	C197.854,27.572,201.366,28.73,205.358,28.73z M196.365,19.987c0-2.239,3.693-4.734,8.993-4.734c5.307,0,9.005,2.495,9.005,4.734
	c0,2.243-3.698,4.743-9.005,4.743C200.058,24.73,196.365,22.23,196.365,19.987z M218.618,39.048v153.48h-28.041V39.048H218.618z
	 M219.219,8.318c-1.744,1.259-3.141,3.345-3.98,5.941c-2.367-1.849-5.883-3.007-9.881-3.007c-3.992,0-7.504,1.157-9.869,3.005
	c-0.839-2.596-2.234-4.681-3.976-5.939H219.219z M187.63,10.993c2.239,0,4.734,3.693,4.734,8.994c0,5.308-2.495,9.006-4.734,9.006
	c-2.243,0-4.74-3.698-4.74-9.006C182.89,14.687,185.387,10.993,187.63,10.993z M183.745,8.318c-1.742,1.259-3.141,3.345-3.979,5.941
	c-2.368-1.849-5.884-3.007-9.882-3.007c-4.35,0-8.126,1.373-10.472,3.517c-0.814-2.835-2.283-5.11-4.139-6.451H183.745z
	 M156.372,30.729c1.336-1.361,2.395-3.267,3.041-5.52c2.346,2.146,6.122,3.521,10.472,3.521c3.999,0,7.515-1.159,9.882-3.01
	c0.655,2.028,1.646,3.752,2.881,5.009H156.372z M182.258,39.048v153.48h-28.037V39.048H182.258z M160.887,19.987
	c0-2.239,3.695-4.734,8.997-4.734c5.308,0,9.006,2.495,9.006,4.734c0,2.243-3.698,4.743-9.006,4.743
	C164.583,24.73,160.887,22.23,160.887,19.987z M151.391,10.993c2.239,0,4.734,3.693,4.734,8.994c0,5.308-2.495,9.006-4.734,9.006
	c-2.242,0-4.741-3.698-4.741-9.006C146.65,14.687,149.149,10.993,151.391,10.993z M147.505,8.318
	c-1.743,1.259-3.14,3.345-3.98,5.941c-2.367-1.849-5.883-3.007-9.882-3.007c-5.052,0-9.342,1.847-11.5,4.609
	c-0.728-3.339-2.323-6.034-4.411-7.544H147.505z M118.831,30.729c1.548-1.576,2.719-3.883,3.313-6.613
	c2.158,2.767,6.448,4.614,11.5,4.614c3.999,0,7.515-1.159,9.882-3.01c0.655,2.028,1.646,3.752,2.881,5.009H118.831z M145.903,39.048
	v153.48h-28.041V39.048H145.903z M124.648,19.987c0-2.239,3.694-4.734,8.996-4.734c5.308,0,9.006,2.495,9.006,4.734
	c0,2.243-3.698,4.743-9.006,4.743C128.342,24.73,124.648,22.23,124.648,19.987z M113.851,10.993c2.238,0,4.732,3.693,4.732,8.994
	c0,5.308-2.494,9.006-4.732,9.006c-2.243,0-4.743-3.698-4.743-9.006C109.108,14.687,111.608,10.993,113.851,10.993z M85.704,8.318
	h24.261c-1.743,1.259-3.14,3.344-3.979,5.94c-2.365-1.849-5.878-3.006-9.872-3.006c-4.309,0-8.056,1.347-10.409,3.454V8.318z
	 M105.108,19.987c0,2.243-3.693,4.743-8.995,4.743c-5.306,0-9.005-2.5-9.005-4.743c0-2.239,3.699-4.734,9.005-4.734
	C101.415,15.253,105.108,17.748,105.108,19.987z M85.704,25.272c2.354,2.11,6.1,3.458,10.409,3.458c3.994,0,7.507-1.158,9.872-3.009
	c0.656,2.028,1.646,3.752,2.881,5.008H85.704V25.272z M85.704,39.048h23.84v153.48h-23.84V39.048z M250.776,206.898H85.704v-6.053
	h165.072V206.898z M250.776,192.527h-23.84V39.048h23.84V192.527z M250.776,30.729h-22.69c1.233-1.256,2.222-2.979,2.877-5.007
	c2.365,1.85,5.878,3.008,9.871,3.008c4.032,0,7.575-1.178,9.942-3.056V30.729z M231.837,19.987c0-2.239,3.694-4.734,8.996-4.734
	c5.308,0,9.005,2.495,9.005,4.734c0,2.243-3.697,4.743-9.005,4.743C235.532,24.73,231.837,22.23,231.837,19.987z M250.776,14.305
	c-2.367-1.875-5.91-3.052-9.942-3.052c-3.993,0-7.505,1.157-9.871,3.005c-0.839-2.596-2.233-4.681-3.974-5.939h23.787V14.305z"/>
</svg>