<svg version="1.1"  xmlns="http://www.w3.org/2000/svg" xmlns:xlink="http://www.w3.org/1999/xlink" x="0px" y="0px"
	 viewBox="0 0 55.762 55.762" style="enable-background:new 0 0 55.762 55.762;" xml:space="preserve">
<g>
	<path  d="M55.742,33.132c0.003-0.033,0.02-0.062,0.02-0.097c0-0.07-0.007-0.14-0.021-0.206
		c-0.069-5.551-2.943-8.805-7.144-10.717v-2.938c0-5.718-4.238-9.132-11.338-9.132c-5.316,0-9.027,1.915-10.556,5.278
		c-1.735-2.848-5.254-4.452-10.119-4.452c-7.099,0-11.337,3.414-11.337,9.132v2.68C2.037,24.676,0,27.881,0,33.034v4.943v0.001
		v0.001v5.741c0,1.103,0.897,2,2,2h2.654c1.103,0,2-0.897,2-2v-4.743h42.435v4.743c0,1.103,0.897,2,2,2h2.653c1.103,0,2-0.897,2-2
		v-5.741v-0.001v-0.001V33.132z M2.001,36.979v-2.944h51.741v2.943L2.001,36.979L2.001,36.979z M27.923,19.174
		c0-6.437,6.529-7.132,9.337-7.132s9.338,0.695,9.338,7.132v2.156c-5.489-1.833-12.57-1.935-18.703-1.94
		c-0.002-0.02-0.002-0.04-0.003-0.06C27.9,19.277,27.923,19.23,27.923,19.174z M7.248,20.001c0-6.438,6.53-7.132,9.337-7.132
		c2.714,0,8.887,0.666,9.298,6.521c-6.628,0.004-13.598,0.11-18.635,2.263V20.001z M26.856,21.39c7.174,0,14.89,0.003,20.208,2.152
		c0.099,0.063,0.204,0.106,0.322,0.133c3.572,1.531,5.996,4.086,6.318,8.361H2.032C2.659,22.173,12.765,21.39,26.856,21.39z
		 M2.001,43.722v-4.741h2.653l0.001,4.741H2.001z M51.089,43.722v-4.741h2.653l0.002,4.741H51.089z"/>
</g>
</svg>
