<svg width="207" height="85" viewBox="0 0 207 85" xmlns="http://www.w3.org/2000/svg">
	<g>
		<path
			d="M188.97 -0.197998H17.847C8.006 -0.197998 0 7.815 0 17.666V67.518C0 77.369 8.006 85.382 17.847 85.382H188.97C198.811 85.382 206.816 77.369 206.816 67.518V17.666C206.817 7.815 198.811 -0.197998 188.97 -0.197998ZM199.685 67.518C199.685 73.434 194.879 78.25 188.97 78.25H17.847C11.938 78.25 7.132 73.434 7.132 67.518V17.666C7.132 11.75 11.938 6.934 17.847 6.934H188.97C194.879 6.934 199.685 11.75 199.685 17.666V67.518Z"
		/>
		<path d="M167.645 60.421H35.658V67.553H167.645V60.421Z" />
		<path d="M185.422 49.724H21.395V56.856H185.422V49.724Z" />
	</g>
</svg>