<svg style="display: none;" aria-hidden="true" xmlns="http://www.w3.org/2000/svg" xmlns:xlink="http://www.w3.org/1999/xlink"><symbol viewBox="0 0 20 24" id="svg-location"><path d="M10 0.25C15.3848 0.25 19.75 4.61522 19.75 10C19.75 14.1196 16.8554 18.6093 11.1402 23.5179C10.4844 24.0811 9.51558 24.0811 8.85717 23.5156L8.47942 23.1881C3.01712 18.4089 0.25 14.0278 0.25 10C0.25 4.61522 4.61522 0.25 10 0.25ZM10 1.75C5.44365 1.75 1.75 5.44365 1.75 10C1.75 13.5021 4.2984 17.5368 9.46455 22.057L9.83709 22.3799C9.93078 22.4604 10.0692 22.4604 10.1629 22.3799C15.5789 17.7283 18.25 13.5853 18.25 10C18.25 5.44365 14.5563 1.75 10 1.75ZM10 6.25C12.0711 6.25 13.75 7.92893 13.75 10C13.75 12.0711 12.0711 13.75 10 13.75C7.92893 13.75 6.25 12.0711 6.25 10C6.25 7.92893 7.92893 6.25 10 6.25ZM10 7.75C8.75736 7.75 7.75 8.75736 7.75 10C7.75 11.2426 8.75736 12.25 10 12.25C11.2426 12.25 12.25 11.2426 12.25 10C12.25 8.75736 11.2426 7.75 10 7.75Z"/></symbol><symbol viewBox="0 0 133 38" fill="none" id="svg-logo"><path d="M33.8216 12.8935C33.8216 18.3575 29.5057 22.7869 24.1818 22.7869C18.8579 22.7869 14.5421 18.3575 14.5421 12.8935C14.5421 7.42946 18.8579 3 24.1818 3C29.5058 3 33.8216 7.42946 33.8216 12.8935Z" fill="#E08631"/><path d="M48 25.629H40.895V19.371L44.3581 20.6922C44.4029 20.7093 44.4488 20.7174 44.494 20.7174 44.6525 20.7174 44.8016 20.6177 44.86 20.4562 44.9352 20.2489 44.8323 20.0182 44.6301 19.9411L37.2548 17.1273V14.8375C37.2548 14.6162 37.08 14.4368 36.8644 14.4368 36.6488 14.4368 36.474 14.6162 36.474 14.8375V16.8294L24.3179 12.1917C24.2301 12.1582 24.1335 12.1582 24.0459 12.1917L3.73362 19.9411C3.5315 20.0182 3.42857 20.2489 3.50367 20.4562 3.57878 20.6637 3.80386 20.7695 4.00564 20.6922L7.46874 19.371V25.629H.729879C.514281 25.629.339478 25.8084.339478 26.0297.339478 26.251.514281 26.4304.729879 26.4304H48C47.9758 26.5 48.0242 26.0649 48 26.0297 48 26.0297 48 25.7852 48 25.629zM8.24954 19.0731L24.1819 12.9947 40.1142 19.0731V25.629H8.24954V19.0731zM44.0137 30.4266C44.0651 30.6415 43.9371 30.8584 43.7277 30.9113 43.2452 31.0329 42.7033 31.1454 42.0111 31.1454 40.4225 31.1454 39.6217 30.6815 38.8473 30.2329 38.129 29.8167 37.4507 29.4238 36.0673 29.4238 34.6841 29.4238 34.0059 29.8167 33.2878 30.2329 32.5134 30.6815 31.7127 31.1454 30.1243 31.1454 28.5359 31.1454 27.7352 30.6815 26.9607 30.2329 26.2426 29.8167 25.5643 29.4238 24.1811 29.4238 22.798 29.4238 22.1197 29.8167 21.4016 30.2329 20.6273 30.6815 19.8266 31.1454 18.2382 31.1454 16.6499 31.1454 15.8493 30.6815 15.0749 30.2329 14.3568 29.8167 13.6786 29.4238 12.2954 29.4238 10.9122 29.4238 10.2339 29.8167 9.51577 30.2329 8.7414 30.6815 7.94068 31.1454 6.35229 31.1454 5.65955 31.1454 5.11799 31.0329 4.63589 30.9113 4.42654 30.8583 4.29853 30.6414 4.35 30.4265 4.40147 30.2116 4.61288 30.0808 4.82233 30.133 5.25671 30.2427 5.74271 30.3441 6.35229 30.3441 7.73547 30.3441 8.41381 29.9511 9.13194 29.535 9.90631 29.0864 10.707 28.6224 12.2954 28.6224 13.8837 28.6224 14.6844 29.0864 15.4588 29.535 16.1769 29.9511 16.8551 30.3441 18.2382 30.3441 19.6214 30.3441 20.2997 29.9511 21.0178 29.535 21.7921 29.0864 22.5928 28.6224 24.1811 28.6224 25.7695 28.6224 26.5702 29.0864 27.3447 29.535 28.0627 29.9511 28.7411 30.3441 30.1243 30.3441 31.5074 30.3441 32.1858 29.9511 32.9039 29.535 33.6783 29.0864 34.479 28.6224 36.0673 28.6224 37.6558 28.6224 38.4566 29.0864 39.231 29.535 39.9493 29.9511 40.6277 30.3441 42.0111 30.3441 42.6507 30.3441 43.1364 30.2351 43.5415 30.133 43.7509 30.0807 43.9623 30.2116 44.0137 30.4266zM40.3794 34.243C40.3794 34.4642 40.2046 34.6436 39.989 34.6436 38.572 34.6436 37.8578 34.2436 37.1672 33.8568 36.5346 33.5024 35.9372 33.1678 34.7194 33.1678 33.5018 33.1678 32.9044 33.5024 32.2719 33.8568 31.5814 34.2436 30.8673 34.6436 29.4505 34.6436 28.0336 34.6436 27.3194 34.2436 26.6289 33.8568 25.9964 33.5024 25.3989 33.1678 24.1813 33.1678 22.9637 33.1678 22.3664 33.5024 21.734 33.8568 21.0434 34.2436 20.3293 34.6436 18.9125 34.6436 17.4957 34.6436 16.7816 34.2436 16.0911 33.8568 15.4587 33.5024 14.8613 33.1678 13.6438 33.1678 12.4261 33.1678 11.8287 33.5024 11.1963 33.8568 10.5057 34.2436 9.79156 34.6436 8.37468 34.6436 8.15909 34.6436 7.98428 34.4642 7.98428 34.243 7.98428 34.0217 8.15909 33.8423 8.37468 33.8423 9.59235 33.8423 10.1897 33.5076 10.8222 33.1533 11.5128 32.7664 12.2269 32.3664 13.6438 32.3664 15.0605 32.3664 15.7746 32.7664 16.4652 33.1533 17.0976 33.5076 17.6949 33.8423 18.9125 33.8423 20.1301 33.8423 20.7275 33.5076 21.3599 33.1533 22.0504 32.7664 22.7645 32.3664 24.1813 32.3664 25.5981 32.3664 26.3123 32.7664 27.0029 33.1533 27.6354 33.5076 28.2328 33.8423 29.4505 33.8423 30.6681 33.8423 31.2654 33.5076 31.8979 33.1533 32.5885 32.7664 33.3026 32.3664 34.7194 32.3664 36.1364 32.3664 36.8506 32.7664 37.5412 33.1533 38.1738 33.5076 38.7712 33.8423 39.989 33.8423 40.2046 33.8423 40.3794 34.0217 40.3794 34.243zM59.9368 34V29.4721H63.0335V29.8624H60.2491L60.3705 29.741V34H59.9368zM65.5529 34.0347C65.1192 34.0347 64.7317 33.9364 64.3906 33.7398 64.0552 33.5432 63.7863 33.2714 63.5839 32.9244 63.3873 32.5774 63.2889 32.1813 63.2889 31.7361 63.2889 31.285 63.3873 30.8889 63.5839 30.5477 63.7863 30.2007 64.0552 29.9289 64.3906 29.7323 64.7317 29.5357 65.1192 29.4374 65.5529 29.4374 65.9866 29.4374 66.374 29.5357 66.7152 29.7323 67.0564 29.9289 67.3253 30.2007 67.5219 30.5477 67.7185 30.8889 67.8168 31.285 67.8168 31.7361 67.8168 32.1813 67.7185 32.5774 67.5219 32.9244 67.3253 33.2714 67.0564 33.5432 66.7152 33.7398 66.374 33.9364 65.9866 34.0347 65.5529 34.0347zM65.5529 33.6444C65.8999 33.6444 66.2121 33.5663 66.4897 33.4102 66.7673 33.2482 66.9841 33.0227 67.1403 32.7336 67.2964 32.4444 67.3745 32.1119 67.3745 31.7361 67.3745 31.3544 67.2964 31.0219 67.1403 30.7385 66.9841 30.4494 66.7673 30.2268 66.4897 30.0706 66.2121 29.9087 65.8999 29.8277 65.5529 29.8277 65.2059 29.8277 64.8937 29.9087 64.6161 30.0706 64.3443 30.2268 64.1274 30.4494 63.9655 30.7385 63.8094 31.0219 63.7313 31.3544 63.7313 31.7361 63.7313 32.1119 63.8094 32.4444 63.9655 32.7336 64.1274 33.0227 64.3443 33.2482 64.6161 33.4102 64.8937 33.5663 65.2059 33.6444 65.5529 33.6444zM71.0595 34.0347C70.6201 34.0347 70.2268 33.9364 69.8799 33.7398 69.5387 33.5432 69.2669 33.2714 69.0645 32.9244 68.8679 32.5774 68.7696 32.1813 68.7696 31.7361 68.7696 31.285 68.8679 30.886 69.0645 30.539 69.2669 30.1921 69.5387 29.9232 69.8799 29.7323 70.2268 29.5357 70.6201 29.4374 71.0595 29.4374 71.4239 29.4374 71.7535 29.5068 72.0484 29.6456 72.3491 29.7844 72.592 29.9926 72.777 30.2701L72.4561 30.5043C72.2942 30.273 72.0918 30.1024 71.8489 29.9926 71.606 29.8827 71.3429 29.8277 71.0595 29.8277 70.7068 29.8277 70.3887 29.9087 70.1054 30.0706 69.8278 30.2268 69.6081 30.4494 69.4462 30.7385 69.29 31.0219 69.212 31.3544 69.212 31.7361 69.212 32.1177 69.29 32.4531 69.4462 32.7423 69.6081 33.0256 69.8278 33.2482 70.1054 33.4102 70.3887 33.5663 70.7068 33.6444 71.0595 33.6444 71.3429 33.6444 71.606 33.5894 71.8489 33.4796 72.0918 33.3697 72.2942 33.1991 72.4561 32.9678L72.777 33.202C72.592 33.4796 72.3491 33.6877 72.0484 33.8265 71.7535 33.9653 71.4239 34.0347 71.0595 34.0347zM74.7801 34V29.7323L74.9015 29.8624H73.0105V29.4721H76.9833V29.8624H75.0923L75.2138 29.7323V34H74.7801zM79.5737 34.0347C79.1169 34.0347 78.7121 33.9364 78.3594 33.7398 78.0124 33.5432 77.7377 33.2714 77.5353 32.9244 77.3387 32.5774 77.2404 32.1813 77.2404 31.7361 77.2404 31.285 77.3329 30.8889 77.518 30.5477 77.7088 30.2007 77.969 29.9289 78.2986 29.7323 78.6283 29.5357 78.9984 29.4374 79.4089 29.4374 79.8195 29.4374 80.1867 29.5328 80.5105 29.7237 80.8402 29.9145 81.0975 30.1834 81.2825 30.5303 81.4734 30.8715 81.5688 31.2676 81.5688 31.7187 81.5688 31.7361 81.5659 31.7563 81.5601 31.7794 81.5601 31.7968 81.5601 31.817 81.5601 31.8401H77.5613V31.5019H81.3259L81.1524 31.6667C81.1582 31.3139 81.083 30.9988 80.9269 30.7212 80.7766 30.4378 80.5713 30.2181 80.311 30.0619 80.0508 29.9 79.7501 29.8191 79.4089 29.8191 79.0735 29.8191 78.7728 29.9 78.5068 30.0619 78.2466 30.2181 78.0413 30.4378 77.891 30.7212 77.7406 30.9988 77.6654 31.3168 77.6654 31.6753V31.7534C77.6654 32.1235 77.7464 32.4531 77.9083 32.7423 78.076 33.0256 78.3044 33.2482 78.5936 33.4102 78.8827 33.5663 79.2123 33.6444 79.5824 33.6444 79.8716 33.6444 80.1405 33.5923 80.3891 33.4882 80.6436 33.3841 80.8575 33.2251 81.031 33.0111L81.2825 33.2974C81.0859 33.5403 80.8373 33.7253 80.5366 33.8525 80.2417 33.974 79.9207 34.0347 79.5737 34.0347zM82.9859 34V29.4721H84.8942C85.3916 29.4721 85.7848 29.5704 86.0739 29.767 86.3631 29.9636 86.5076 30.2499 86.5076 30.6258 86.5076 30.9959 86.3659 31.2763 86.0826 31.4672 85.805 31.658 85.4436 31.7534 84.9983 31.7534L85.1198 31.6233C85.6518 31.6233 86.0421 31.7216 86.2908 31.9182 86.5394 32.1148 86.6638 32.404 86.6638 32.7856 86.6638 33.1731 86.5221 33.4738 86.2387 33.6877 85.9612 33.8959 85.5303 34 84.9463 34H82.9859zM83.411 33.6444H84.9376C85.3597 33.6444 85.6807 33.575 85.9004 33.4362 86.1202 33.2974 86.2301 33.0748 86.2301 32.7683 86.2301 32.456 86.1317 32.2305 85.9351 32.0917 85.7443 31.9471 85.4349 31.8748 85.007 31.8748H83.411V33.6444zM83.411 31.5365H84.8682C85.2499 31.5365 85.5448 31.4643 85.753 31.3197 85.9669 31.1751 86.0739 30.9612 86.0739 30.6778 86.0739 30.3945 85.9669 30.1834 85.753 30.0446 85.5448 29.9 85.2499 29.8277 84.8682 29.8277H83.411V31.5365zM90.0082 34.0347C89.5745 34.0347 89.187 33.9364 88.8458 33.7398 88.5104 33.5432 88.2415 33.2714 88.0392 32.9244 87.8425 32.5774 87.7442 32.1813 87.7442 31.7361 87.7442 31.285 87.8425 30.8889 88.0392 30.5477 88.2415 30.2007 88.5104 29.9289 88.8458 29.7323 89.187 29.5357 89.5745 29.4374 90.0082 29.4374 90.4419 29.4374 90.8293 29.5357 91.1705 29.7323 91.5117 29.9289 91.7806 30.2007 91.9772 30.5477 92.1738 30.8889 92.2721 31.285 92.2721 31.7361 92.2721 32.1813 92.1738 32.5774 91.9772 32.9244 91.7806 33.2714 91.5117 33.5432 91.1705 33.7398 90.8293 33.9364 90.4419 34.0347 90.0082 34.0347zM90.0082 33.6444C90.3551 33.6444 90.6674 33.5663 90.945 33.4102 91.2226 33.2482 91.4394 33.0227 91.5955 32.7336 91.7517 32.4444 91.8297 32.1119 91.8297 31.7361 91.8297 31.3544 91.7517 31.0219 91.5955 30.7385 91.4394 30.4494 91.2226 30.2268 90.945 30.0706 90.6674 29.9087 90.3551 29.8277 90.0082 29.8277 89.6612 29.8277 89.3489 29.9087 89.0714 30.0706 88.7996 30.2268 88.5827 30.4494 88.4208 30.7385 88.2647 31.0219 88.1866 31.3544 88.1866 31.7361 88.1866 32.1119 88.2647 32.4444 88.4208 32.7336 88.5827 33.0227 88.7996 33.2482 89.0714 33.4102 89.3489 33.5663 89.6612 33.6444 90.0082 33.6444zM93.6846 34V29.4721H94.1183V33.3321L97.3451 29.4721H97.7267V34H97.293V30.14L94.0662 34H93.6846zM95.6883 28.7782C95.3356 28.7782 95.0435 28.6857 94.8122 28.5006 94.5867 28.3098 94.4681 28.0467 94.4566 27.7113H94.7775C94.7891 27.9484 94.8787 28.1363 95.0464 28.2751 95.2199 28.4139 95.4339 28.4833 95.6883 28.4833 95.9428 28.4833 96.1538 28.4139 96.3215 28.2751 96.495 28.1363 96.5846 27.9484 96.5904 27.7113H96.92C96.9143 28.0467 96.7957 28.3098 96.5644 28.5006 96.3389 28.6857 96.0468 28.7782 95.6883 28.7782zM104.922 33.7918V29.8624H102.562L102.51 30.9901C102.499 31.3081 102.479 31.6262 102.45 31.9442 102.421 32.2565 102.374 32.5456 102.311 32.8116 102.247 33.0719 102.158 33.2829 102.042 33.4449 101.932 33.6068 101.787 33.6964 101.608 33.7138L101.174 33.6183C101.36 33.6299 101.51 33.5634 101.626 33.4188 101.741 33.2685 101.831 33.0661 101.894 32.8116 101.958 32.5572 102.004 32.271 102.033 31.9529 102.068 31.6291 102.094 31.2995 102.111 30.9641L102.172 29.4721H105.355V33.7918H104.922zM100.975 35.1276V33.6183H106.084V35.1276H105.676V34H101.391V35.1276H100.975zM109.169 34.0347C108.735 34.0347 108.348 33.9364 108.007 33.7398 107.671 33.5432 107.403 33.2714 107.2 32.9244 107.004 32.5774 106.905 32.1813 106.905 31.7361 106.905 31.285 107.004 30.8889 107.2 30.5477 107.403 30.2007 107.671 29.9289 108.007 29.7323 108.348 29.5357 108.735 29.4374 109.169 29.4374 109.603 29.4374 109.99 29.5357 110.332 29.7323 110.673 29.9289 110.942 30.2007 111.138 30.5477 111.335 30.8889 111.433 31.285 111.433 31.7361 111.433 32.1813 111.335 32.5774 111.138 32.9244 110.942 33.2714 110.673 33.5432 110.332 33.7398 109.99 33.9364 109.603 34.0347 109.169 34.0347zM109.169 33.6444C109.516 33.6444 109.828 33.5663 110.106 33.4102 110.384 33.2482 110.6 33.0227 110.757 32.7336 110.913 32.4444 110.991 32.1119 110.991 31.7361 110.991 31.3544 110.913 31.0219 110.757 30.7385 110.6 30.4494 110.384 30.2268 110.106 30.0706 109.828 29.9087 109.516 29.8277 109.169 29.8277 108.822 29.8277 108.51 29.9087 108.232 30.0706 107.961 30.2268 107.744 30.4494 107.582 30.7385 107.426 31.0219 107.348 31.3544 107.348 31.7361 107.348 32.1119 107.426 32.4444 107.582 32.7336 107.744 33.0227 107.961 33.2482 108.232 33.4102 108.51 33.5663 108.822 33.6444 109.169 33.6444zM112.846 34V29.4721H113.271L115.413 33.0545H115.222L117.373 29.4721H117.773V34H117.373V29.9926L117.46 30.0272 115.404 33.4188H115.205L113.141 30.0012 113.245 29.9839V34H112.846zM54.0543 20V7.81341H58.6156C59.6485 7.81341 60.5364 7.9817 61.2792 8.31828 62.022 8.64326 62.5907 9.11911 62.9853 9.74585 63.3916 10.361 63.5947 11.1096 63.5947 11.9917 63.5947 12.8505 63.3916 13.5933 62.9853 14.2201 62.5907 14.8352 62.022 15.3111 61.2792 15.6476 60.5364 15.9842 59.6485 16.1525 58.6156 16.1525H54.7681L55.3426 15.5432V20H54.0543zM55.3426 15.6476L54.7681 15.0209H58.5808C59.7994 15.0209 60.7221 14.7598 61.3489 14.2375 61.9872 13.7036 62.3064 12.955 62.3064 11.9917 62.3064 11.0167 61.9872 10.2623 61.3489 9.72844 60.7221 9.19456 59.7994 8.92761 58.5808 8.92761H54.7681L55.3426 8.31828V15.6476zM64.3444 20L69.9154 7.81341H71.1863L76.7573 20H75.3993L70.281 8.56201H70.8033L65.6849 20H64.3444zM66.538 16.7444L66.921 15.6999H74.0066L74.3896 16.7444H66.538zM87.7102 19.3907V8.92761H81.8781L81.7736 11.8872C81.7388 12.8041 81.6808 13.6862 81.5995 14.5334 81.5299 15.3691 81.4138 16.1235 81.2514 16.7967 81.1005 17.4582 80.8916 17.9979 80.6246 18.4157 80.3693 18.8336 80.0327 19.0773 79.6149 19.1469L78.2047 18.8858C78.669 18.909 79.052 18.7407 79.3537 18.3809 79.6671 18.0211 79.905 17.5163 80.0675 16.8663 80.2416 16.2164 80.3693 15.4561 80.4505 14.5857 80.5318 13.7152 80.5898 12.7751 80.6246 11.7653L80.7639 7.81341H88.9811V19.3907H87.7102zM77.7521 22.7333L77.7695 18.8858H90.8091V22.7333H89.6079V20H78.9707L78.9533 22.7333H77.7521zM93.7504 18.7988C94.3423 19.0309 94.8994 19.0889 95.4217 18.9728 95.944 18.8452 96.4256 18.4332 96.8667 17.7368L97.4586 16.7967 97.5804 16.64 102.246 7.81341H103.534L97.9983 18.0153C97.6269 18.7233 97.1858 19.2514 96.6751 19.5996 96.1761 19.9478 95.6422 20.1335 95.0735 20.1567 94.5164 20.1799 93.9535 20.0754 93.3848 19.8433L93.7504 18.7988zM97.5456 17.8064L92.2706 7.81341H93.6459L98.242 16.7444 97.5456 17.8064zM106.06 20V7.81341H113.807V8.92761H106.982L107.313 8.59683 107.33 20H106.06zM112.456 20L118.027 7.81341H119.298L124.869 20H123.511L118.393 8.56201H118.915L113.797 20H112.456zM114.65 16.7444L115.033 15.6999H122.118L122.501 16.7444H114.65z" fill="#fff"/><path stroke="#fff" stroke-width="1.152" d="M.576.576H131.849V37.425H.576zM48.5052 1.15152V38"/></symbol><symbol viewBox="0 0 482.6 482.6" id="svg-phone"><path d="M98.339,320.8c47.6,56.9,104.9,101.7,170.3,133.4c24.9,11.8,58.2,25.8,95.3,28.2c2.3,0.1,4.5,0.2,6.8,0.2 c24.9,0,44.9-8.6,61.2-26.3c0.1-0.1,0.3-0.3,0.4-0.5c5.8-7,12.4-13.3,19.3-20c4.7-4.5,9.5-9.2,14.1-14 c21.3-22.2,21.3-50.4-0.2-71.9l-60.1-60.1c-10.2-10.6-22.4-16.2-35.2-16.2c-12.8,0-25.1,5.6-35.6,16.1l-35.8,35.8 c-3.3-1.9-6.7-3.6-9.9-5.2c-4-2-7.7-3.9-11-6c-32.6-20.7-62.2-47.7-90.5-82.4c-14.3-18.1-23.9-33.3-30.6-48.8 c9.4-8.5,18.2-17.4,26.7-26.1c3-3.1,6.1-6.2,9.2-9.3c10.8-10.8,16.6-23.3,16.6-36s-5.7-25.2-16.6-36l-29.8-29.8 c-3.5-3.5-6.8-6.9-10.2-10.4c-6.6-6.8-13.5-13.8-20.3-20.1c-10.3-10.1-22.4-15.4-35.2-15.4c-12.7,0-24.9,5.3-35.6,15.5l-37.4,37.4 c-13.6,13.6-21.3,30.1-22.9,49.2c-1.9,23.9,2.5,49.3,13.9,80C32.739,229.6,59.139,273.7,98.339,320.8z M25.739,104.2 c1.2-13.3,6.3-24.4,15.9-34l37.2-37.2c5.8-5.6,12.2-8.5,18.4-8.5c6.1,0,12.3,2.9,18,8.7c6.7,6.2,13,12.7,19.8,19.6 c3.4,3.5,6.9,7,10.4,10.6l29.8,29.8c6.2,6.2,9.4,12.5,9.4,18.7s-3.2,12.5-9.4,18.7c-3.1,3.1-6.2,6.3-9.3,9.4 c-9.3,9.4-18,18.3-27.6,26.8c-0.2,0.2-0.3,0.3-0.5,0.5c-8.3,8.3-7,16.2-5,22.2c0.1,0.3,0.2,0.5,0.3,0.8 c7.7,18.5,18.4,36.1,35.1,57.1c30,37,61.6,65.7,96.4,87.8c4.3,2.8,8.9,5,13.2,7.2c4,2,7.7,3.9,11,6c0.4,0.2,0.7,0.4,1.1,0.6 c3.3,1.7,6.5,2.5,9.7,2.5c8,0,13.2-5.1,14.9-6.8l37.4-37.4c5.8-5.8,12.1-8.9,18.3-8.9c7.6,0,13.8,4.7,17.7,8.9l60.3,60.2 c12,12,11.9,25-0.3,37.7c-4.2,4.5-8.6,8.8-13.3,13.3c-7,6.8-14.3,13.8-20.9,21.7c-11.5,12.4-25.2,18.2-42.9,18.2 c-1.7,0-3.5-0.1-5.2-0.2c-32.8-2.1-63.3-14.9-86.2-25.8c-62.2-30.1-116.8-72.8-162.1-127c-37.3-44.9-62.4-86.7-79-131.5 C28.039,146.4,24.139,124.3,25.739,104.2z"/></symbol><symbol viewBox="0 0 64 64" id="svg-whatsapp"><path d="M6,59a1,1,0,0,1-.95-1.32L9,46.06A27.1,27.1,0,0,1,13,13,26.93,26.93,0,0,1,51,13h0A26.94,26.94,0,0,1,20.22,56.23L6.2,59Zm14.35-4.85a1,1,0,0,1,.45.11A24.94,24.94,0,0,0,49.63,14.37h0a24.93,24.93,0,0,0-35.26,0,25.08,25.08,0,0,0-3.4,31,1,1,0,0,1,.1.86L7.51,56.72,20.17,54.2Z"/><path d="M39.17,46a8.46,8.46,0,0,1-.92,0c-5.31-.58-12-5.83-13.89-7.68h0c-1.85-1.85-7.11-8.58-7.68-13.89-.46-4.24,2.37-7.12,3.61-8.17a2.87,2.87,0,0,1,2-.69l2.7.09a1,1,0,0,1,.9.65c.6,1.59,2.54,6.88,2.54,8.25,0,1.2-1.06,2.13-2,2.95-.2.17-.47.41-.63.58a28.74,28.74,0,0,0,3.61,5.16,28.77,28.77,0,0,0,5.16,3.61c.17-.17.41-.44.58-.63.82-.94,1.75-2,3-2,1.37,0,6.66,1.94,8.25,2.54a1,1,0,0,1,.65.9l.09,2.7a3,3,0,0,1-.69,2A9.82,9.82,0,0,1,39.17,46ZM25.78,36.88c1.65,1.65,8,6.6,12.69,7.11,3.29.35,5.59-1.92,6.43-2.91a1,1,0,0,0,.22-.66l-.07-2a47.65,47.65,0,0,0-6.92-2.18c-.32,0-1.11.93-1.45,1.32-.68.78-1.22,1.39-2,1.39-1.27,0-5.7-3.28-6.69-4.27S23.75,29.23,23.75,28c0-.75.61-1.29,1.39-2,.38-.34,1.29-1.12,1.32-1.45a47.7,47.7,0,0,0-2.18-6.92l-2-.07a1,1,0,0,0-.66.22c-1,.84-3.27,3.14-2.91,6.42.51,4.72,5.46,11,7.11,12.69Zm9,0Z"/></symbol></svg>