<svg width="133" height="38" viewBox="0 0 133 38" fill="none" xmlns="http://www.w3.org/2000/svg">
<path d="M33.8216 12.8935C33.8216 18.3575 29.5057 22.7869 24.1818 22.7869C18.8579 22.7869 14.542 18.3575 14.542 12.8935C14.542 7.42946 18.8579 3 24.1818 3C29.5057 3 33.8216 7.42946 33.8216 12.8935Z" fill="#E08631"/>
<path d="M131.5 25.629H40.895V19.371L44.3581 20.6922C44.4029 20.7093 44.4488 20.7174 44.494 20.7174C44.6525 20.7174 44.8016 20.6177 44.86 20.4562C44.9352 20.2489 44.8323 20.0182 44.6301 19.9411L37.2548 17.1273V14.8375C37.2548 14.6162 37.08 14.4368 36.8644 14.4368C36.6488 14.4368 36.474 14.6162 36.474 14.8375V16.8294L24.3179 12.1917C24.2301 12.1582 24.1335 12.1582 24.0459 12.1917L3.73359 19.9411C3.53148 20.0182 3.42854 20.2489 3.50365 20.4562C3.57876 20.6637 3.80384 20.7695 4.00562 20.6922L7.46871 19.371V25.629H0.729856C0.514258 25.629 0.339455 25.8084 0.339455 26.0297C0.339455 26.251 0.514258 26.4304 0.729856 26.4304H131.5C131.476 26.5 131.524 26.0649 131.5 26.0297C131.476 25.9945 131.5 25.7852 131.5 25.629ZM8.24952 19.0731L24.1819 12.9947L40.1142 19.0731V25.629H8.24952V19.0731ZM44.0137 30.4266C44.0651 30.6415 43.9371 30.8584 43.7277 30.9113C43.2452 31.0329 42.7032 31.1454 42.0111 31.1454C40.4225 31.1454 39.6217 30.6815 38.8473 30.2329C38.129 29.8167 37.4507 29.4238 36.0673 29.4238C34.6841 29.4238 34.0059 29.8167 33.2878 30.2329C32.5134 30.6815 31.7126 31.1454 30.1242 31.1454C28.5359 31.1454 27.7351 30.6815 26.9607 30.2329C26.2426 29.8167 25.5643 29.4238 24.1811 29.4238C22.798 29.4238 22.1197 29.8167 21.4016 30.2329C20.6273 30.6815 19.8265 31.1454 18.2382 31.1454C16.6499 31.1454 15.8492 30.6815 15.0749 30.2329C14.3568 29.8167 13.6785 29.4238 12.2954 29.4238C10.9122 29.4238 10.2339 29.8167 9.51575 30.2329C8.74138 30.6815 7.94065 31.1454 6.35227 31.1454C5.65953 31.1454 5.11796 31.0329 4.63587 30.9113C4.42652 30.8583 4.29851 30.6414 4.34998 30.4265C4.40145 30.2116 4.61285 30.0808 4.8223 30.133C5.25669 30.2427 5.74269 30.3441 6.35227 30.3441C7.73545 30.3441 8.41379 29.9511 9.13192 29.535C9.90629 29.0864 10.707 28.6224 12.2954 28.6224C13.8837 28.6224 14.6844 29.0864 15.4587 29.535C16.1768 29.9511 16.8551 30.3441 18.2382 30.3441C19.6213 30.3441 20.2996 29.9511 21.0178 29.535C21.7921 29.0864 22.5928 28.6224 24.1811 28.6224C25.7695 28.6224 26.5702 29.0864 27.3446 29.535C28.0627 29.9511 28.7411 30.3441 30.1242 30.3441C31.5074 30.3441 32.1858 29.9511 32.9039 29.535C33.6783 29.0864 34.479 28.6224 36.0673 28.6224C37.6558 28.6224 38.4566 29.0864 39.231 29.535C39.9493 29.9511 40.6277 30.3441 42.0111 30.3441C42.6506 30.3441 43.1363 30.2351 43.5414 30.133C43.7508 30.0807 43.9622 30.2116 44.0137 30.4266ZM40.3794 34.243C40.3794 34.4642 40.2046 34.6436 39.989 34.6436C38.572 34.6436 37.8578 34.2436 37.1672 33.8568C36.5346 33.5024 35.9372 33.1678 34.7194 33.1678C33.5017 33.1678 32.9044 33.5024 32.2719 33.8568C31.5814 34.2436 30.8673 34.6436 29.4505 34.6436C28.0336 34.6436 27.3194 34.2436 26.6288 33.8568C25.9963 33.5024 25.3989 33.1678 24.1813 33.1678C22.9637 33.1678 22.3663 33.5024 21.7339 33.8568C21.0434 34.2436 20.3293 34.6436 18.9125 34.6436C17.4957 34.6436 16.7816 34.2436 16.091 33.8568C15.4586 33.5024 14.8613 33.1678 13.6437 33.1678C12.4261 33.1678 11.8287 33.5024 11.1963 33.8568C10.5057 34.2436 9.79153 34.6436 8.37466 34.6436C8.15906 34.6436 7.98426 34.4642 7.98426 34.243C7.98426 34.0217 8.15906 33.8423 8.37466 33.8423C9.59233 33.8423 10.1897 33.5076 10.8222 33.1533C11.5127 32.7664 12.2269 32.3664 13.6437 32.3664C15.0605 32.3664 15.7746 32.7664 16.4651 33.1533C17.0975 33.5076 17.6949 33.8423 18.9125 33.8423C20.1301 33.8423 20.7274 33.5076 21.3598 33.1533C22.0504 32.7664 22.7645 32.3664 24.1813 32.3664C25.5981 32.3664 26.3123 32.7664 27.0028 33.1533C27.6353 33.5076 28.2328 33.8423 29.4505 33.8423C30.6681 33.8423 31.2654 33.5076 31.8979 33.1533C32.5885 32.7664 33.3025 32.3664 34.7194 32.3664C36.1364 32.3664 36.8506 32.7664 37.5412 33.1533C38.1738 33.5076 38.7712 33.8423 39.989 33.8423C40.2046 33.8423 40.3794 34.0217 40.3794 34.243Z" fill="white"/>
<path d="M59.9368 34V29.4721H63.0335V29.8624H60.2491L60.3705 29.741V34H59.9368ZM65.5529 34.0347C65.1192 34.0347 64.7317 33.9364 64.3906 33.7398C64.0552 33.5432 63.7863 33.2714 63.5839 32.9244C63.3873 32.5774 63.2889 32.1813 63.2889 31.7361C63.2889 31.285 63.3873 30.8889 63.5839 30.5477C63.7863 30.2007 64.0552 29.9289 64.3906 29.7323C64.7317 29.5357 65.1192 29.4374 65.5529 29.4374C65.9866 29.4374 66.374 29.5357 66.7152 29.7323C67.0564 29.9289 67.3253 30.2007 67.5219 30.5477C67.7185 30.8889 67.8168 31.285 67.8168 31.7361C67.8168 32.1813 67.7185 32.5774 67.5219 32.9244C67.3253 33.2714 67.0564 33.5432 66.7152 33.7398C66.374 33.9364 65.9866 34.0347 65.5529 34.0347ZM65.5529 33.6444C65.8999 33.6444 66.2121 33.5663 66.4897 33.4102C66.7673 33.2482 66.9841 33.0227 67.1403 32.7336C67.2964 32.4444 67.3745 32.1119 67.3745 31.7361C67.3745 31.3544 67.2964 31.0219 67.1403 30.7385C66.9841 30.4494 66.7673 30.2268 66.4897 30.0706C66.2121 29.9087 65.8999 29.8277 65.5529 29.8277C65.2059 29.8277 64.8937 29.9087 64.6161 30.0706C64.3443 30.2268 64.1274 30.4494 63.9655 30.7385C63.8094 31.0219 63.7313 31.3544 63.7313 31.7361C63.7313 32.1119 63.8094 32.4444 63.9655 32.7336C64.1274 33.0227 64.3443 33.2482 64.6161 33.4102C64.8937 33.5663 65.2059 33.6444 65.5529 33.6444ZM71.0595 34.0347C70.6201 34.0347 70.2268 33.9364 69.8799 33.7398C69.5387 33.5432 69.2669 33.2714 69.0645 32.9244C68.8679 32.5774 68.7696 32.1813 68.7696 31.7361C68.7696 31.285 68.8679 30.886 69.0645 30.539C69.2669 30.1921 69.5387 29.9232 69.8799 29.7323C70.2268 29.5357 70.6201 29.4374 71.0595 29.4374C71.4239 29.4374 71.7535 29.5068 72.0484 29.6456C72.3491 29.7844 72.592 29.9926 72.777 30.2701L72.4561 30.5043C72.2942 30.273 72.0918 30.1024 71.8489 29.9926C71.606 29.8827 71.3429 29.8277 71.0595 29.8277C70.7068 29.8277 70.3887 29.9087 70.1054 30.0706C69.8278 30.2268 69.6081 30.4494 69.4462 30.7385C69.29 31.0219 69.212 31.3544 69.212 31.7361C69.212 32.1177 69.29 32.4531 69.4462 32.7423C69.6081 33.0256 69.8278 33.2482 70.1054 33.4102C70.3887 33.5663 70.7068 33.6444 71.0595 33.6444C71.3429 33.6444 71.606 33.5894 71.8489 33.4796C72.0918 33.3697 72.2942 33.1991 72.4561 32.9678L72.777 33.202C72.592 33.4796 72.3491 33.6877 72.0484 33.8265C71.7535 33.9653 71.4239 34.0347 71.0595 34.0347ZM74.7801 34V29.7323L74.9015 29.8624H73.0105V29.4721H76.9833V29.8624H75.0923L75.2138 29.7323V34H74.7801ZM79.5737 34.0347C79.1169 34.0347 78.7121 33.9364 78.3594 33.7398C78.0124 33.5432 77.7377 33.2714 77.5353 32.9244C77.3387 32.5774 77.2404 32.1813 77.2404 31.7361C77.2404 31.285 77.3329 30.8889 77.518 30.5477C77.7088 30.2007 77.969 29.9289 78.2986 29.7323C78.6283 29.5357 78.9984 29.4374 79.4089 29.4374C79.8195 29.4374 80.1867 29.5328 80.5105 29.7237C80.8402 29.9145 81.0975 30.1834 81.2825 30.5303C81.4734 30.8715 81.5688 31.2676 81.5688 31.7187C81.5688 31.7361 81.5659 31.7563 81.5601 31.7794C81.5601 31.7968 81.5601 31.817 81.5601 31.8401H77.5613V31.5019H81.3259L81.1524 31.6667C81.1582 31.3139 81.083 30.9988 80.9269 30.7212C80.7766 30.4378 80.5713 30.2181 80.311 30.0619C80.0508 29.9 79.7501 29.8191 79.4089 29.8191C79.0735 29.8191 78.7728 29.9 78.5068 30.0619C78.2466 30.2181 78.0413 30.4378 77.891 30.7212C77.7406 30.9988 77.6654 31.3168 77.6654 31.6753V31.7534C77.6654 32.1235 77.7464 32.4531 77.9083 32.7423C78.076 33.0256 78.3044 33.2482 78.5936 33.4102C78.8827 33.5663 79.2123 33.6444 79.5824 33.6444C79.8716 33.6444 80.1405 33.5923 80.3891 33.4882C80.6436 33.3841 80.8575 33.2251 81.031 33.0111L81.2825 33.2974C81.0859 33.5403 80.8373 33.7253 80.5366 33.8525C80.2417 33.974 79.9207 34.0347 79.5737 34.0347ZM82.9859 34V29.4721H84.8942C85.3916 29.4721 85.7848 29.5704 86.0739 29.767C86.3631 29.9636 86.5076 30.2499 86.5076 30.6258C86.5076 30.9959 86.3659 31.2763 86.0826 31.4672C85.805 31.658 85.4436 31.7534 84.9983 31.7534L85.1198 31.6233C85.6518 31.6233 86.0421 31.7216 86.2908 31.9182C86.5394 32.1148 86.6638 32.404 86.6638 32.7856C86.6638 33.1731 86.5221 33.4738 86.2387 33.6877C85.9612 33.8959 85.5303 34 84.9463 34H82.9859ZM83.411 33.6444H84.9376C85.3597 33.6444 85.6807 33.575 85.9004 33.4362C86.1202 33.2974 86.2301 33.0748 86.2301 32.7683C86.2301 32.456 86.1317 32.2305 85.9351 32.0917C85.7443 31.9471 85.4349 31.8748 85.007 31.8748H83.411V33.6444ZM83.411 31.5365H84.8682C85.2499 31.5365 85.5448 31.4643 85.753 31.3197C85.9669 31.1751 86.0739 30.9612 86.0739 30.6778C86.0739 30.3945 85.9669 30.1834 85.753 30.0446C85.5448 29.9 85.2499 29.8277 84.8682 29.8277H83.411V31.5365ZM90.0082 34.0347C89.5745 34.0347 89.187 33.9364 88.8458 33.7398C88.5104 33.5432 88.2415 33.2714 88.0392 32.9244C87.8425 32.5774 87.7442 32.1813 87.7442 31.7361C87.7442 31.285 87.8425 30.8889 88.0392 30.5477C88.2415 30.2007 88.5104 29.9289 88.8458 29.7323C89.187 29.5357 89.5745 29.4374 90.0082 29.4374C90.4419 29.4374 90.8293 29.5357 91.1705 29.7323C91.5117 29.9289 91.7806 30.2007 91.9772 30.5477C92.1738 30.8889 92.2721 31.285 92.2721 31.7361C92.2721 32.1813 92.1738 32.5774 91.9772 32.9244C91.7806 33.2714 91.5117 33.5432 91.1705 33.7398C90.8293 33.9364 90.4419 34.0347 90.0082 34.0347ZM90.0082 33.6444C90.3551 33.6444 90.6674 33.5663 90.945 33.4102C91.2226 33.2482 91.4394 33.0227 91.5955 32.7336C91.7517 32.4444 91.8297 32.1119 91.8297 31.7361C91.8297 31.3544 91.7517 31.0219 91.5955 30.7385C91.4394 30.4494 91.2226 30.2268 90.945 30.0706C90.6674 29.9087 90.3551 29.8277 90.0082 29.8277C89.6612 29.8277 89.3489 29.9087 89.0714 30.0706C88.7996 30.2268 88.5827 30.4494 88.4208 30.7385C88.2647 31.0219 88.1866 31.3544 88.1866 31.7361C88.1866 32.1119 88.2647 32.4444 88.4208 32.7336C88.5827 33.0227 88.7996 33.2482 89.0714 33.4102C89.3489 33.5663 89.6612 33.6444 90.0082 33.6444ZM93.6846 34V29.4721H94.1183V33.3321L97.3451 29.4721H97.7267V34H97.293V30.14L94.0662 34H93.6846ZM95.6883 28.7782C95.3356 28.7782 95.0435 28.6857 94.8122 28.5006C94.5867 28.3098 94.4681 28.0467 94.4566 27.7113H94.7775C94.7891 27.9484 94.8787 28.1363 95.0464 28.2751C95.2199 28.4139 95.4339 28.4833 95.6883 28.4833C95.9428 28.4833 96.1538 28.4139 96.3215 28.2751C96.495 28.1363 96.5846 27.9484 96.5904 27.7113H96.92C96.9143 28.0467 96.7957 28.3098 96.5644 28.5006C96.3389 28.6857 96.0468 28.7782 95.6883 28.7782ZM104.922 33.7918V29.8624H102.562L102.51 30.9901C102.499 31.3081 102.479 31.6262 102.45 31.9442C102.421 32.2565 102.374 32.5456 102.311 32.8116C102.247 33.0719 102.158 33.2829 102.042 33.4449C101.932 33.6068 101.787 33.6964 101.608 33.7138L101.174 33.6183C101.36 33.6299 101.51 33.5634 101.626 33.4188C101.741 33.2685 101.831 33.0661 101.894 32.8116C101.958 32.5572 102.004 32.271 102.033 31.9529C102.068 31.6291 102.094 31.2995 102.111 30.9641L102.172 29.4721H105.355V33.7918H104.922ZM100.975 35.1276V33.6183H106.084V35.1276H105.676V34H101.391V35.1276H100.975ZM109.169 34.0347C108.735 34.0347 108.348 33.9364 108.007 33.7398C107.671 33.5432 107.403 33.2714 107.2 32.9244C107.004 32.5774 106.905 32.1813 106.905 31.7361C106.905 31.285 107.004 30.8889 107.2 30.5477C107.403 30.2007 107.671 29.9289 108.007 29.7323C108.348 29.5357 108.735 29.4374 109.169 29.4374C109.603 29.4374 109.99 29.5357 110.332 29.7323C110.673 29.9289 110.942 30.2007 111.138 30.5477C111.335 30.8889 111.433 31.285 111.433 31.7361C111.433 32.1813 111.335 32.5774 111.138 32.9244C110.942 33.2714 110.673 33.5432 110.332 33.7398C109.99 33.9364 109.603 34.0347 109.169 34.0347ZM109.169 33.6444C109.516 33.6444 109.828 33.5663 110.106 33.4102C110.384 33.2482 110.6 33.0227 110.757 32.7336C110.913 32.4444 110.991 32.1119 110.991 31.7361C110.991 31.3544 110.913 31.0219 110.757 30.7385C110.6 30.4494 110.384 30.2268 110.106 30.0706C109.828 29.9087 109.516 29.8277 109.169 29.8277C108.822 29.8277 108.51 29.9087 108.232 30.0706C107.961 30.2268 107.744 30.4494 107.582 30.7385C107.426 31.0219 107.348 31.3544 107.348 31.7361C107.348 32.1119 107.426 32.4444 107.582 32.7336C107.744 33.0227 107.961 33.2482 108.232 33.4102C108.51 33.5663 108.822 33.6444 109.169 33.6444ZM112.846 34V29.4721H113.271L115.413 33.0545H115.222L117.373 29.4721H117.773V34H117.373V29.9926L117.46 30.0272L115.404 33.4188H115.205L113.141 30.0012L113.245 29.9839V34H112.846Z" fill="white"/>
<path d="M54.0543 20V7.81341H58.6156C59.6485 7.81341 60.5364 7.9817 61.2792 8.31828C62.022 8.64326 62.5907 9.11911 62.9853 9.74585C63.3916 10.361 63.5947 11.1096 63.5947 11.9917C63.5947 12.8505 63.3916 13.5933 62.9853 14.2201C62.5907 14.8352 62.022 15.3111 61.2792 15.6476C60.5364 15.9842 59.6485 16.1525 58.6156 16.1525H54.7681L55.3426 15.5432V20H54.0543ZM55.3426 15.6476L54.7681 15.0209H58.5808C59.7994 15.0209 60.7221 14.7598 61.3489 14.2375C61.9872 13.7036 62.3064 12.955 62.3064 11.9917C62.3064 11.0167 61.9872 10.2623 61.3489 9.72844C60.7221 9.19456 59.7994 8.92761 58.5808 8.92761H54.7681L55.3426 8.31828V15.6476ZM64.3444 20L69.9154 7.81341H71.1863L76.7573 20H75.3993L70.281 8.56201H70.8033L65.6849 20H64.3444ZM66.538 16.7444L66.921 15.6999H74.0066L74.3896 16.7444H66.538ZM87.7102 19.3907V8.92761H81.8781L81.7736 11.8872C81.7388 12.8041 81.6808 13.6862 81.5995 14.5334C81.5299 15.3691 81.4138 16.1235 81.2514 16.7967C81.1005 17.4582 80.8916 17.9979 80.6246 18.4157C80.3693 18.8336 80.0327 19.0773 79.6149 19.1469L78.2047 18.8858C78.669 18.909 79.052 18.7407 79.3537 18.3809C79.6671 18.0211 79.905 17.5163 80.0675 16.8663C80.2416 16.2164 80.3693 15.4561 80.4505 14.5857C80.5318 13.7152 80.5898 12.7751 80.6246 11.7653L80.7639 7.81341H88.9811V19.3907H87.7102ZM77.7521 22.7333L77.7695 18.8858H90.8091V22.7333H89.6079V20H78.9707L78.9533 22.7333H77.7521ZM93.7504 18.7988C94.3423 19.0309 94.8994 19.0889 95.4217 18.9728C95.944 18.8452 96.4256 18.4332 96.8667 17.7368L97.4586 16.7967L97.5804 16.64L102.246 7.81341H103.534L97.9983 18.0153C97.6269 18.7233 97.1858 19.2514 96.6751 19.5996C96.1761 19.9478 95.6422 20.1335 95.0735 20.1567C94.5164 20.1799 93.9535 20.0754 93.3848 19.8433L93.7504 18.7988ZM97.5456 17.8064L92.2706 7.81341H93.6459L98.242 16.7444L97.5456 17.8064ZM106.06 20V7.81341H113.807V8.92761H106.982L107.313 8.59683L107.33 20H106.06ZM112.456 20L118.027 7.81341H119.298L124.869 20H123.511L118.393 8.56201H118.915L113.797 20H112.456ZM114.65 16.7444L115.033 15.6999H122.118L122.501 16.7444H114.65Z" fill="white"/>
<rect x="0.575758" y="0.575758" width="131.273" height="36.8485" stroke="white" stroke-width="1.15152"/>
<path d="M48.5052 1.15152V38" stroke="white" stroke-width="1.15152"/>
</svg>
