<svg style="display: none;" aria-hidden="true" xmlns="http://www.w3.org/2000/svg" xmlns:xlink="http://www.w3.org/1999/xlink"><symbol viewBox="0 0 35 35" id="svg-arrow"><path d="M10.8691 4.23805C11.0038 4.23799 11.1371 4.26446 11.2616 4.31595C11.386 4.36744 11.4991 4.44295 11.5944 4.53815L24.2333 17.1778C24.4256 17.3701 24.5336 17.6308 24.5336 17.9027C24.5336 18.1746 24.4256 18.4354 24.2333 18.6277L11.5944 31.2673C11.4992 31.3626 11.3862 31.4382 11.2617 31.4897C11.1373 31.5413 11.004 31.5678 10.8693 31.5679C10.7347 31.5679 10.6013 31.5414 10.4769 31.4899C10.3525 31.4384 10.2394 31.3629 10.1441 31.2677C10.0489 31.1725 9.97333 31.0595 9.92176 30.935C9.8702 30.8106 9.84364 30.6773 9.84361 30.5426C9.84358 30.408 9.87007 30.2746 9.92158 30.1502C9.97309 30.0258 10.0486 29.9127 10.1438 29.8174L22.0582 17.9031L10.1438 5.98873C10.0003 5.84533 9.90257 5.66258 9.86296 5.46361C9.82336 5.26464 9.84367 5.0584 9.92131 4.87098C9.99896 4.68355 10.1305 4.52338 10.2992 4.41071C10.4679 4.29805 10.6662 4.23796 10.8691 4.23805V4.23805Z"/></symbol><symbol viewBox="0 0 512 512" id="svg-benefits-bath"><path d="M440.908,266.62h-3.936V135.815l-0.061-3.601h-0.236c-3.348-36.628-33.963-64.836-71.152-64.836 c-28.881,0-55.197,17.775-66.117,44.426c-4.104,0.084-8.193,0.95-12.082,2.607c-7.99,3.405-14.176,9.718-17.42,17.78l-0.178,0.444 c-0.938,2.329-0.912,4.885,0.072,7.194c0.984,2.311,2.809,4.099,5.139,5.036l42.889,17.257c1.145,0.461,2.33,0.679,3.494,0.679 c3.727,0,7.262-2.229,8.736-5.895l0.18-0.446c3.242-8.058,3.152-16.896-0.254-24.885c-1.527-3.587-3.646-6.807-6.242-9.563 c6.832-16.972,23.363-28.235,41.783-28.235c24.84,0,45.049,20.208,45.049,45.048V266.62H201.26 c-1.885-3.537-5.608-5.952-9.889-5.952h-49.6c-4.279,0-8.002,2.415-9.887,5.952h-60.78c-3.631,0-7.055,1.415-9.649,3.993 c-2.575,2.576-3.995,5.998-3.995,9.639c0,7.517,6.121,13.633,13.645,13.633h9.601v118.367c0,9.138,7.438,16.572,16.583,16.572 h13.284v9.994c0,3.199,2.603,5.803,5.802,5.803h11.391c3.199,0,5.802-2.604,5.802-5.803v-9.994h252.205v9.994 c0,3.199,2.604,5.803,5.803,5.803h11.391c3.199,0,5.803-2.604,5.803-5.803v-9.994h11.775c9.145,0,16.586-7.435,16.586-16.572 V293.885h3.779c3.639,0,7.061-1.42,9.639-3.996c2.574-2.574,3.992-5.997,3.992-9.637 C454.539,272.735,448.426,266.62,440.908,266.62z M323.555,153.778l-0.18,0.445c-0.451,1.125-1.74,1.672-2.861,1.221 l-42.889-17.257c-0.545-0.219-0.973-0.638-1.203-1.179c-0.229-0.54-0.236-1.138-0.014-1.688l0.178-0.445 c5.211-12.95,19.99-19.247,32.934-14.035c6.273,2.523,11.189,7.339,13.84,13.561C326.01,140.62,326.08,147.501,323.555,153.778z M365.523,86.579c-20.576,0-39.119,12.121-47.539,30.601c-1.801-1.183-3.73-2.197-5.775-3.02c-1.73-0.696-3.498-1.229-5.283-1.619 c10.291-22.856,33.354-37.962,58.598-37.962c34.482,0,62.678,26.968,64.193,61.395l0.055,0.917v129.725h-12V138.827 C417.771,110.018,394.334,86.579,365.523,86.579z M137.773,271.868c0-2.206,1.794-4,3.999-4h49.6c2.206,0,4.001,1.794,4.001,4 v83.899h-57.6V271.868z M137.773,362.968h57.6v3.9c0,2.205-1.795,4-4.001,4h-49.6c-2.205,0-3.999-1.795-3.999-4V362.968z M80.706,286.684h-9.601c-3.553,0-6.444-2.885-6.444-6.432c0-1.717,0.67-3.33,1.879-4.538c1.229-1.222,2.85-1.894,4.565-1.894 h59.468v12.863H80.706z M130.573,293.885v29.783H87.905v-29.783H130.573z M126.367,437.42h-8.595v-8.595h8.595V437.42z M401.568,437.42h-8.596v-8.595h8.596V437.42z M429.928,412.252c0,5.168-4.209,9.372-9.385,9.372H97.289 c-5.174,0-9.384-4.204-9.384-9.372v-81.384h42.668v36c0,6.176,5.024,11.2,11.199,11.2h49.6c6.177,0,11.201-5.024,11.201-11.2v-36 h227.355V412.252z M429.928,323.668H202.573v-29.783h227.355V323.668z M445.455,284.798c-1.215,1.217-2.83,1.886-4.547,1.886 h-3.779H202.573V273.82h238.335c3.547,0,6.432,2.885,6.432,6.432C447.34,281.969,446.67,283.582,445.455,284.798z"/><path transform="rotate(-158.654 282.726 187.305)" d="M279.122 165.46H286.321V209.161H279.122z"/><path transform="rotate(21.341 298.815 193.585)" d="M295.235 176.856H302.43600000000004V210.356H295.235z"/><path transform="rotate(-158.654 266.705 181.045)" d="M263.102 164.3H270.301V197.8H263.102z"/></symbol><symbol viewBox="0 0 32 32" id="svg-benefits-beach"><path d="M25.1 12.174a2.452 2.452 0 10-2.453-2.451A2.454 2.454 0 0025.1 12.174zm0-4.195a1.743 1.743 0 11-1.744 1.744A1.744 1.744 0 0125.1 7.979zM25.1 6.82a.355.355 0 00.354-.355V4.821a.355.355 0 10-.709 0V6.465A.355.355 0 0025.1 6.82zM24.744 12.979v1.645a.355.355 0 00.709 0V12.979a.355.355 0 00-.709 0zM20.2 10.077h1.646a.355.355 0 000-.709H20.2a.355.355 0 000 .709zM30 9.368H28.355a.355.355 0 000 .709H30a.355.355 0 000-.709zM27.15 11.775a.357.357 0 000 .5l1.163 1.163a.355.355 0 10.5-.5l-1.163-1.163A.354.354 0 0027.15 11.775zM22.544 7.67a.355.355 0 10.5-.5L21.883 6.006a.355.355 0 10-.5.5zM27.4 7.774a.354.354 0 00.251-.1l1.163-1.163a.355.355 0 00-.5-.5L27.15 7.169a.355.355 0 00.251.605zM22.544 11.775l-1.163 1.163a.355.355 0 00.5.5l1.163-1.163a.355.355 0 10-.5-.5zM4.031 14.891A2.263 2.263 0 006.27 12.913a2.18 2.18 0 00.013-.313 2.217 2.217 0 00.862.308 2.3 2.3 0 00.286.018 2.266 2.266 0 002.242-1.977c.009-.071.007-.143.009-.214a2.2 2.2 0 00.773.261 2.135 2.135 0 00.286.019 2.237 2.237 0 00.754-.135l7.973 13.807a.35.35 0 00.306.178.342.342 0 00.177-.048.353.353 0 00.13-.483l-7.966-13.8a2.249 2.249 0 00.868-1.5c.008-.064-.006-.128 0-.192a2.242 2.242 0 00.762.255 2.324 2.324 0 00.286.018A2.268 2.268 0 0016.27 7.141c.009-.072.007-.143.009-.215a2.206 2.206 0 00.773.262 2.3 2.3 0 00.286.018A2.265 2.265 0 0019.58 5.229a2.222 2.222 0 00-.222-1.266.335.335 0 00-.043-.161c-.74-1.284-2.338-1.943-4.536-1.853a15.276 15.276 0 00-6.771 2.16h0L8 4.113H7.993A15.325 15.325 0 002.731 8.9c-1.169 1.847-1.4 3.572-.663 4.856.008.013.023.019.032.031a2.233 2.233 0 001.642 1.081A2.18 2.18 0 004.031 14.891zM8.97 10.859a1.561 1.561 0 01-1.736 1.346 1.525 1.525 0 01-.931-.48l2.609-1.507A1.5 1.5 0 018.97 10.859zm3.31-1.911a1.553 1.553 0 01-1.736 1.345 1.522 1.522 0 01-.932-.48l2.613-1.508A1.537 1.537 0 0112.28 8.948zm3.286-1.9A1.559 1.559 0 0113.831 8.4a1.537 1.537 0 01-.937-.477l2.615-1.51A1.5 1.5 0 0115.566 7.051zm3.311-1.912h0a1.56 1.56 0 01-1.735 1.345A1.518 1.518 0 0116.21 6L18.819 4.5A1.5 1.5 0 0118.877 5.139zM14.808 2.657c1.728-.069 3.013.356 3.694 1.206l-2.6 1.5a4.646 4.646 0 00-.436-.539c-.029-.031-.061-.06-.091-.09a4.78 4.78 0 00-.742-.628c-.019-.013-.04-.023-.06-.036a5.164 5.164 0 00-.877-.463c-.016-.007-.031-.016-.047-.022a5.674 5.674 0 00-.965-.283c-.042-.009-.083-.02-.126-.028a6.111 6.111 0 00-.7-.09A11.874 11.874 0 0114.808 2.657zM10.37 3.981c.068-.013.135-.014.2-.025a5.926 5.926 0 01.746-.068c.105 0 .207 0 .31.007a5.3 5.3 0 01.622.055c.1.015.209.032.311.054a4.8 4.8 0 01.6.17c.086.029.174.053.257.087a4.558 4.558 0 01.773.4l0 0a4.171 4.171 0 01.655.546c.064.065.119.14.179.209.084.1.159.207.234.314L12.449 7.357 12.41 7.3c-.076-.121-.154-.241-.233-.361-.023-.033-.044-.068-.067-.1q-.153-.223-.313-.438c-.039-.052-.079-.1-.118-.153-.072-.093-.143-.185-.217-.274-.046-.057-.093-.112-.14-.168-.068-.08-.137-.158-.206-.235-.049-.054-.1-.108-.148-.16-.074-.079-.15-.154-.225-.228-.043-.042-.085-.087-.128-.127-.113-.106-.225-.2-.338-.3-.044-.036-.088-.068-.132-.1-.075-.058-.15-.115-.224-.167-.048-.033-.1-.063-.144-.094-.072-.046-.144-.089-.216-.128-.024-.013-.049-.031-.073-.043A6.34 6.34 0 0110.37 3.981zm-2.018.747s.012 0 .017 0A.468.468 0 018.6 4.677c.029 0 .064.012.1.016a1.189 1.189 0 01.22.051c.046.016.1.04.144.062a2.311 2.311 0 01.238.12c.055.032.112.068.17.106.087.058.178.125.271.2.059.046.118.091.179.143.106.09.216.194.327.3.052.052.1.1.157.152.166.171.335.358.506.567.022.027.044.06.066.087q.223.277.447.6c.06.086.119.181.179.271.077.118.154.243.231.368L9.2 9.232c-.054-.1-.107-.2-.158-.3-.059-.116-.119-.231-.173-.347-.075-.159-.142-.316-.207-.474-.045-.107-.093-.216-.134-.322-.065-.172-.119-.339-.171-.506-.028-.086-.061-.175-.085-.26a7 7 0 01-.166-.719 4.508 4.508 0 01-.059-.565C8.032 5.223 8.138 4.852 8.352 4.728zM5.4 9.118c.008-.1 0-.205.02-.309A5.041 5.041 0 015.646 7.9a5.494 5.494 0 01.391-.842c.041-.074.086-.145.13-.217A5.884 5.884 0 016.6 6.223c.044-.054.084-.111.131-.165a6.189 6.189 0 01.611-.6c0 .033 0 .071 0 .1s0 .1 0 .147a4.888 4.888 0 00.062.712 7.665 7.665 0 00.179.781c.025.089.06.182.089.273.057.184.116.368.188.558.04.106.088.214.133.322.074.179.148.356.234.537.053.114.113.228.171.343s.114.236.178.355L5.765 11.217c-.044-.1-.088-.191-.125-.289-.043-.117-.089-.232-.122-.352a4.209 4.209 0 01-.095-.515c-.016-.117-.039-.233-.045-.352A4.35 4.35 0 015.4 9.118zm-2.07.165A11.879 11.879 0 015.252 7.006a5.926 5.926 0 00-.274.653 5.7 5.7 0 00-.244.957c0 .03-.013.06-.017.091a5.166 5.166 0 00-.054.9c0 .043 0 .086 0 .129a4.854 4.854 0 00.119.853c.011.046.022.092.034.137a4.661 4.661 0 00.29.8c.008.017.011.036.019.053l-2.6 1.5A4.357 4.357 0 013.33 9.283zm2.179 2.9a1.5 1.5 0 01.057.641 1.546 1.546 0 01-2.667.865z"/><path d="M27.348,25.755a.356.356,0,0,0-.3-.162H8.4L4.032,17.941a.354.354,0,1,0-.615.352l4.366,7.656-2,3.583a.355.355,0,0,0,.619.346l2-3.576H26.856L29.181,29.9a.354.354,0,1,0,.595-.384Z"/></symbol><symbol viewBox="0 0 512 512" id="svg-benefits-kitchen"><path d="M121.044 184.364c0 3.903 3.175 7.078 7.078 7.078h12.897c3.903 0 7.078-3.175 7.078-7.078v-49.25h93.921v49.25c0 3.903 3.175 7.078 7.078 7.078h12.897c3.903 0 7.079-3.175 7.079-7.078v-49.25h99.245v49.25c0 3.903 3.176 7.078 7.078 7.078h12.898c3.902 0 7.078-3.175 7.078-7.078v-49.25h66.263v-7.2h-32.741c.719-1.478 1.135-3.129 1.135-4.879 0-2.935-1.145-5.601-2.998-7.6 1.854-2 2.998-4.665 2.998-7.6 0-6.176-5.025-11.2-11.201-11.2h-73.965c-6.176 0-11.2 5.024-11.2 11.2 0 2.935 1.144 5.601 2.997 7.6-1.854 1.999-2.997 4.665-2.997 7.6 0 1.75.415 3.401 1.134 4.879h-32.202c.719-1.478 1.134-3.129 1.134-4.879 0-2.935-1.144-5.601-2.997-7.6 1.854-2 2.997-4.665 2.997-7.6 0-6.176-5.024-11.2-11.199-11.2h-73.966c-6.176 0-11.2 5.024-11.2 11.2 0 2.935 1.144 5.601 2.997 7.6-1.853 1.999-2.997 4.665-2.997 7.6 0 1.75.415 3.401 1.134 4.879H181.62c.719-1.478 1.134-3.129 1.134-4.879 0-2.935-1.144-5.601-2.997-7.6 1.854-2 2.997-4.665 2.997-7.6 0-6.176-5.025-11.2-11.2-11.2H97.588c-6.176 0-11.2 5.024-11.2 11.2 0 2.935 1.144 5.601 2.997 7.6-1.853 1.999-2.997 4.665-2.997 7.6 0 1.75.415 3.401 1.134 4.879H49.457v7.2h71.587V184.364zM388.173 184.242H375.52v-49.128h12.653V184.242zM344.863 103.835h73.965c2.206 0 4 1.795 4 4 0 2.206-1.794 4-4 4h-73.965c-2.206 0-4-1.794-4-4C340.863 105.63 342.657 103.835 344.863 103.835zM344.863 119.035h73.965c2.206 0 4 1.795 4 4 0 2.205-1.794 4-4 4h-73.965c-2.206 0-4-1.795-4-4C340.863 120.83 342.657 119.035 344.863 119.035zM261.873 184.242h-12.654v-49.128h12.654V184.242zM218.563 103.835h73.966c2.205 0 4 1.795 4 4 0 2.206-1.795 4-4 4h-73.966c-2.206 0-4-1.794-4-4C214.563 105.63 216.358 103.835 218.563 103.835zM218.563 119.035h73.966c2.205 0 4 1.795 4 4 0 2.205-1.795 4-4 4h-73.966c-2.206 0-4-1.795-4-4C214.563 120.83 216.358 119.035 218.563 119.035zM140.898 184.242h-12.654v-49.128h12.654V184.242zM97.588 103.835h73.965c2.205 0 4 1.795 4 4 0 2.206-1.795 4-4 4H97.588c-2.206 0-4-1.794-4-4C93.588 105.63 95.383 103.835 97.588 103.835zM97.588 127.035c-2.206 0-4-1.795-4-4 0-2.206 1.795-4 4-4h73.965c2.205 0 4 1.795 4 4 0 2.205-1.795 4-4 4H97.588zM474.91 223.365H339.777c-6.249 0-11.333 5.084-11.333 11.333v12.74c-1.521-.758-3.228-1.196-5.038-1.196H188.274c-1.685 0-3.28.38-4.719 1.042v-12.586c0-6.25-5.084-11.333-11.333-11.333H37.09c-6.25 0-11.334 5.084-11.334 11.333v169.333c0 6.25 5.084 11.334 11.334 11.334h135.132c3.133 0 5.972-1.278 8.026-3.341 2.054 2.063 4.893 3.341 8.026 3.341h135.132c3.219 0 6.121-1.355 8.186-3.516 2.065 2.16 4.968 3.516 8.186 3.516H474.91c6.25 0 11.334-5.084 11.334-11.334V234.699C486.244 228.449 481.16 223.365 474.91 223.365zM176.356 404.031c0 2.279-1.854 4.134-4.134 4.134H37.09c-2.28 0-4.134-1.854-4.134-4.134V277.442h143.4V404.031zM176.356 270.242h-143.4v-35.543c0-2.279 1.854-4.134 4.134-4.134h135.132c2.279 0 4.134 1.854 4.134 4.134V270.242zM327.541 404.031c0 2.279-1.855 4.134-4.135 4.134H188.274c-2.28 0-4.134-1.854-4.134-4.134V257.576c0-2.279 1.854-4.134 4.134-4.134h135.132c2.279 0 4.135 1.854 4.135 4.134V404.031zM479.044 404.031c0 2.279-1.854 4.134-4.134 4.134H339.777c-2.279 0-4.133-1.854-4.133-4.134V277.442h143.399V404.031zM479.044 270.242H335.645v-35.543c0-2.279 1.854-4.134 4.133-4.134H474.91c2.279 0 4.134 1.854 4.134 4.134V270.242z"/><path d="M299.406,270.242h-87.132c-6.25,0-11.334,5.084-11.334,11.334v98.455c0,6.25,5.084,11.334,11.334,11.334h87.132 c6.25,0,11.334-5.084,11.334-11.334v-98.455C310.74,275.326,305.656,270.242,299.406,270.242z M303.541,380.031 c0,2.279-1.855,4.134-4.135,4.134h-87.132c-2.279,0-4.134-1.854-4.134-4.134v-98.455c0-2.279,1.854-4.134,4.134-4.134h87.132 c2.279,0,4.135,1.854,4.135,4.134V380.031z"/><path d="M243.64 290.635H268.041V297.835H243.64z"/></symbol><symbol viewBox="0 0 48 48" id="svg-benefits-location"><defs><style>.cls-1,.cls-2{fill:none;stroke:#1d1d1b;stroke-linejoin:round;stroke-width:2px}.cls-1{fill-rule:evenodd}</style></defs><path class="ecls-1" d="M41,18c0,11-17,29-17,29S7,29,7,18C7,8.06,14.06,1,24,1S41,8.06,41,18Z"/><circle class="ecls-2" cx="24" cy="16" r="8"/></symbol><symbol viewBox="0 0 64 64" id="svg-benefits-price"><path d="M 32,7.5 C 18.474946,7.5 7.5,18.474946 7.5,32 7.5,45.525054 18.474946,56.5 32,56.5 45.525054,56.5 56.5,45.525054 56.5,32 56.5,18.474946 45.525054,7.5 32,7.5 Z m 0,1 C 44.984614,8.5 55.5,19.015386 55.5,32 55.5,44.984614 44.984614,55.5 32,55.5 19.015386,55.5 8.5,44.984614 8.5,32 8.5,19.015386 19.015386,8.5 32,8.5 Z" style="line-height:normal;font-variant-ligatures:normal;font-variant-position:normal;font-variant-caps:normal;font-variant-numeric:normal;font-variant-alternates:normal;font-feature-settings:normal;text-indent:0;text-align:start;text-decoration-line:none;text-decoration-style:solid;text-decoration-color:#000;text-transform:none;text-orientation:mixed;white-space:normal;shape-padding:0;isolation:auto;mix-blend-mode:normal;solid-color:#000;solid-opacity:1" color="#000" font-weight="400" font-family="sans-serif" overflow="visible"/><path d="M13.003906 34.000001c0 9.106778 7.391271 16.498048 16.498047 16.498048V49.501955C20.935618 49.501955 14 42.566336 14 34.000001zM31.5 16v32h1V16z" style="line-height:normal;font-variant-ligatures:normal;font-variant-position:normal;font-variant-caps:normal;font-variant-numeric:normal;font-variant-alternates:normal;font-feature-settings:normal;text-indent:0;text-align:start;text-decoration-line:none;text-decoration-style:solid;text-decoration-color:#000;text-transform:none;text-orientation:mixed;white-space:normal;shape-padding:0;isolation:auto;mix-blend-mode:normal;solid-color:#000;solid-opacity:1" color="#000" font-weight="400" font-family="sans-serif" overflow="visible"/><path d="m 30.236328,21.380859 c -2.569537,0.395314 -4.354089,1.737475 -5.183594,3.396485 -0.829504,1.659009 -0.688123,3.63189 0.488282,5.154297 C 26.71742,31.454047 28.888889,32.5 32,32.5 l -0.121094,-0.01563 c 3.928666,0.982166 6.050359,2.455024 6.878906,3.835937 0.828548,1.380914 0.520821,2.694024 -0.611328,3.826172 -2.264297,2.264298 -8.02915,3.330827 -13.86914,-0.5625 l -0.554688,0.832032 c 6.16001,4.106673 12.395157,3.173202 15.13086,0.4375 1.367851,-1.367852 1.810124,-3.304742 0.763672,-5.048828 -1.046453,-1.744087 -3.42476,-3.271229 -7.496094,-4.289063 L 32.0625,31.5 H 32 c -2.888889,0 -4.71742,-0.954047 -5.666016,-2.181641 -0.948595,-1.227593 -1.057214,-2.754712 -0.386718,-4.095703 0.670495,-1.34099 2.135943,-2.498829 4.441406,-2.853515 2.305463,-0.354687 5.455754,0.111666 9.388672,2.078125 l 0.445312,-0.894532 c -4.067082,-2.033541 -7.416791,-2.567188 -9.986328,-2.171875 z"/></symbol><symbol viewBox="0 0 512 512" id="svg-benefits-room"><path d="M457.106,274.303c0.703-1.426,1.11-3.022,1.11-4.717V253.92c0-10.756-8.752-19.507-19.509-19.507 h-12.86v-87.491c0-15.948-12.974-28.922-28.922-28.922H115.878c-15.948,0-28.922,12.975-28.922,28.922v87.491H73.279 c-10.757,0-19.508,8.751-19.508,19.507v15.666c0,1.695,0.407,3.294,1.112,4.72C40.106,278.307,29.2,291.826,29.2,307.852v46.687 c0,8.568,6.97,15.539,15.539,15.539h32.245v14.557c0,5.165,4.202,9.366,9.367,9.366h8.399c5.165,0,9.367-4.201,9.367-9.366v-14.557 h314.527v14.557c0,5.165,4.202,9.366,9.367,9.366h8.399c5.165,0,9.367-4.201,9.367-9.366v-14.557h21.481 c8.569,0,15.539-6.971,15.539-15.539v-46.687C482.8,291.822,471.889,278.3,457.106,274.303z M94.156,146.922 c0-11.978,9.744-21.722,21.722-21.722h281.048c11.979,0,21.723,9.745,21.723,21.722v86.574h-42.646v-9.549 c0-5.765-4.689-10.455-10.455-10.455h-75.09c-5.765,0-10.455,4.69-10.455,10.455v9.549h-47.2v-9.549 c0-5.765-4.69-10.455-10.454-10.455h-75.091c-5.766,0-10.455,4.69-10.455,10.455v9.549H94.156V146.922z M368.803,223.947v9.549 h-81.601v-9.549c0-1.794,1.46-3.255,3.255-3.255h75.09C367.342,220.692,368.803,222.153,368.803,223.947z M225.602,223.947v9.549 h-81.6v-9.549c0-1.794,1.46-3.255,3.255-3.255h75.091C224.142,220.692,225.602,222.153,225.602,223.947z M60.972,253.92 c0-6.786,5.521-12.307,12.308-12.307h365.429c6.786,0,12.309,5.521,12.309,12.307v15.666c0,1.931-1.57,3.502-3.502,3.502H64.474 c-1.932,0-3.502-1.571-3.502-3.502V253.92z M96.918,384.634c0,1.194-0.972,2.166-2.167,2.166h-8.399 c-1.195,0-2.167-0.972-2.167-2.166v-13.913h12.733V384.634z M438.579,384.634c0,1.194-0.972,2.166-2.167,2.166h-8.399 c-1.195,0-2.167-0.972-2.167-2.166v-13.913h12.733V384.634z M475.6,354.538c0,4.599-3.74,8.339-8.339,8.339H44.739 c-4.599,0-8.339-3.74-8.339-8.339v-46.687c0-15.193,12.36-27.555,27.555-27.555h37.282h309.525h37.281 c15.195,0,27.556,12.361,27.556,27.555V354.538z"/></symbol><symbol viewBox="0 0 460.385 460.385" id="svg-car"><path d="M95.252 283.111c-13.807 0-25.039 11.232-25.039 25.039s11.232 25.039 25.039 25.039 25.039-11.233 25.039-25.039C120.291 294.344 109.059 283.111 95.252 283.111zM95.252 318.189c-5.536 0-10.039-4.504-10.039-10.039 0-5.535 4.503-10.039 10.039-10.039s10.039 4.503 10.039 10.039S100.788 318.189 95.252 318.189zM357.012 283.111c-13.807 0-25.04 11.232-25.04 25.039s11.233 25.039 25.04 25.039c13.806 0 25.038-11.233 25.038-25.039C382.05 294.344 370.818 283.111 357.012 283.111zM357.012 318.189c-5.536 0-10.04-4.504-10.04-10.039 0-5.535 4.504-10.039 10.04-10.039 5.535 0 10.038 4.503 10.038 10.039S362.547 318.189 357.012 318.189z"/><path d="M409.227,196.422l-66.917-7.645l-35.714-58.056c-10.905-17.728-30.61-28.741-51.424-28.741H133.676 c-34.925,0-65.792,23.518-75.063,57.193l-0.948,3.445c-4.607,16.733-17.845,30.052-34.549,34.762 C9.506,201.218,0,213.774,0,227.915v83.012c0,4.142,3.358,7.5,7.5,7.5h38.557c4.757,22.798,25.006,39.978,49.195,39.978 c24.189,0,44.438-17.18,49.195-39.978h163.37c4.757,22.798,25.006,39.978,49.195,39.978c24.189,0,44.438-17.18,49.195-39.978 h40.477c3.813,0,7.02-2.861,7.452-6.65l5.874-51.483C463.614,228.691,440.834,200.038,409.227,196.422z M45.225,303.427H15 v-9.113h31.949C46.106,297.252,45.519,300.297,45.225,303.427z M95.252,343.405c-19.44,0-35.255-15.815-35.255-35.255 s15.815-35.256,35.255-35.256s35.255,15.816,35.255,35.256S114.692,343.405,95.252,343.405z M357.012,343.405 c-19.44,0-35.255-15.815-35.255-35.255s15.815-35.256,35.255-35.256s35.255,15.816,35.255,35.256 S376.452,343.405,357.012,343.405z M439.99,303.427h-32.952c-0.293-3.13-0.881-6.175-1.724-9.113h35.716L439.99,303.427z M445.105,258.594l-2.364,20.72h-44.608c-9.1-12.94-24.135-21.42-41.121-21.42c-16.987,0-32.021,8.48-41.122,21.42H182.425 c-4.142,0-7.5,3.358-7.5,7.5c0,4.142,3.358,7.5,7.5,7.5h126.284c-0.843,2.938-1.43,5.983-1.724,9.113H145.279 c-2.389-25.504-23.909-45.533-50.027-45.533c-16.987,0-32.021,8.48-41.122,21.42H15v-51.399c0-7.455,5.012-14.075,12.187-16.098 c21.728-6.126,38.947-23.452,44.94-45.218l0.948-3.445c7.484-27.186,32.405-46.174,60.601-46.174h121.496 c15.643,0,30.452,8.277,38.647,21.6l37.626,61.164c1.207,1.962,3.249,3.26,5.537,3.522l70.541,8.059 c16.002,1.831,28.943,12.335,34.67,26.276H418.78c-4.142,0-7.5,3.358-7.5,7.5c0,4.142,3.358,7.5,7.5,7.5h26.578 C445.41,254.576,445.335,256.576,445.105,258.594z"/><path d="M255.565 215.223h-15.76c-4.142 0-7.5 3.358-7.5 7.5 0 4.142 3.358 7.5 7.5 7.5h15.76c4.142 0 7.5-3.358 7.5-7.5C263.065 218.581 259.708 215.223 255.565 215.223zM154.846 222.723c0-4.142-3.358-7.5-7.5-7.5h-15.76c-4.142 0-7.5 3.358-7.5 7.5 0 4.142 3.358 7.5 7.5 7.5h15.76C151.488 230.223 154.846 226.865 154.846 222.723zM164.136 283.942c-.086-.203-.055-.127-.013-.027-1.322-3.097-4.655-5.04-8.012-4.519-3.049.474-5.522 2.768-6.213 5.776-1.496 6.51 6.051 11.564 11.54 7.829 2.897-1.97 4.03-5.792 2.708-9.031C164.189 284.073 164.224 284.155 164.136 283.942zM286.014 143.392c-6.531-10.637-18.348-17.245-30.841-17.245h-121.5c-24.087 0-45.371 16.217-51.761 39.443l-.943 3.438c-2.468 8.956-6.268 24.34-6.429 24.991-.553 2.238-.045 4.606 1.376 6.422 1.422 1.815 3.599 2.876 5.905 2.876h227.64c2.717 0 5.222-1.469 6.547-3.841 1.326-2.372 1.265-5.275-.159-7.589L286.014 143.392zM115.298 188.314H91.432c1.265-4.992 2.81-10.99 4-15.311l.944-3.441c2.86-10.395 9.865-18.839 18.922-23.747V188.314zM199.352 141.146v47.169h-69.054v-47.018c1.115-.098 2.24-.151 3.375-.151L199.352 141.146 199.352 141.146zM214.352 188.315v-47.169h40.821c7.316 0 14.235 3.868 18.062 10.1l22.807 37.069H214.352z"/></symbol><symbol viewBox="0 0 512 512" id="svg-instagram"><path d="M349.33,69.33a93.62,93.62,0,0,1,93.34,93.34V349.33a93.62,93.62,0,0,1-93.34,93.34H162.67a93.62,93.62,0,0,1-93.34-93.34V162.67a93.62,93.62,0,0,1,93.34-93.34H349.33m0-37.33H162.67C90.8,32,32,90.8,32,162.67V349.33C32,421.2,90.8,480,162.67,480H349.33C421.2,480,480,421.2,480,349.33V162.67C480,90.8,421.2,32,349.33,32Z"/><path d="M377.33 162.67a28 28 0 1128-28A27.94 27.94 0 01377.33 162.67zM256 181.33A74.67 74.67 0 11181.33 256 74.75 74.75 0 01256 181.33M256 144A112 112 0 10368 256 112 112 0 00256 144z"/></symbol><symbol viewBox="0 0 20 24" id="svg-location"><path d="M10 0.25C15.3848 0.25 19.75 4.61522 19.75 10C19.75 14.1196 16.8554 18.6093 11.1402 23.5179C10.4844 24.0811 9.51558 24.0811 8.85717 23.5156L8.47942 23.1881C3.01712 18.4089 0.25 14.0278 0.25 10C0.25 4.61522 4.61522 0.25 10 0.25ZM10 1.75C5.44365 1.75 1.75 5.44365 1.75 10C1.75 13.5021 4.2984 17.5368 9.46455 22.057L9.83709 22.3799C9.93078 22.4604 10.0692 22.4604 10.1629 22.3799C15.5789 17.7283 18.25 13.5853 18.25 10C18.25 5.44365 14.5563 1.75 10 1.75ZM10 6.25C12.0711 6.25 13.75 7.92893 13.75 10C13.75 12.0711 12.0711 13.75 10 13.75C7.92893 13.75 6.25 12.0711 6.25 10C6.25 7.92893 7.92893 6.25 10 6.25ZM10 7.75C8.75736 7.75 7.75 8.75736 7.75 10C7.75 11.2426 8.75736 12.25 10 12.25C11.2426 12.25 12.25 11.2426 12.25 10C12.25 8.75736 11.2426 7.75 10 7.75Z"/></symbol><symbol viewBox="0 0 133 38" fill="none" id="svg-logo"><path d="M33.8216 12.8935C33.8216 18.3575 29.5057 22.7869 24.1818 22.7869C18.8579 22.7869 14.5421 18.3575 14.5421 12.8935C14.5421 7.42946 18.8579 3 24.1818 3C29.5058 3 33.8216 7.42946 33.8216 12.8935Z" fill="#E08631"/><path d="M48 25.629H40.895V19.371L44.3581 20.6922C44.4029 20.7093 44.4488 20.7174 44.494 20.7174 44.6525 20.7174 44.8016 20.6177 44.86 20.4562 44.9352 20.2489 44.8323 20.0182 44.6301 19.9411L37.2548 17.1273V14.8375C37.2548 14.6162 37.08 14.4368 36.8644 14.4368 36.6488 14.4368 36.474 14.6162 36.474 14.8375V16.8294L24.3179 12.1917C24.2301 12.1582 24.1335 12.1582 24.0459 12.1917L3.73362 19.9411C3.5315 20.0182 3.42857 20.2489 3.50367 20.4562 3.57878 20.6637 3.80386 20.7695 4.00564 20.6922L7.46874 19.371V25.629H.729879C.514281 25.629.339478 25.8084.339478 26.0297.339478 26.251.514281 26.4304.729879 26.4304H48C47.9758 26.5 48.0242 26.0649 48 26.0297 48 26.0297 48 25.7852 48 25.629zM8.24954 19.0731L24.1819 12.9947 40.1142 19.0731V25.629H8.24954V19.0731zM44.0137 30.4266C44.0651 30.6415 43.9371 30.8584 43.7277 30.9113 43.2452 31.0329 42.7033 31.1454 42.0111 31.1454 40.4225 31.1454 39.6217 30.6815 38.8473 30.2329 38.129 29.8167 37.4507 29.4238 36.0673 29.4238 34.6841 29.4238 34.0059 29.8167 33.2878 30.2329 32.5134 30.6815 31.7127 31.1454 30.1243 31.1454 28.5359 31.1454 27.7352 30.6815 26.9607 30.2329 26.2426 29.8167 25.5643 29.4238 24.1811 29.4238 22.798 29.4238 22.1197 29.8167 21.4016 30.2329 20.6273 30.6815 19.8266 31.1454 18.2382 31.1454 16.6499 31.1454 15.8493 30.6815 15.0749 30.2329 14.3568 29.8167 13.6786 29.4238 12.2954 29.4238 10.9122 29.4238 10.2339 29.8167 9.51577 30.2329 8.7414 30.6815 7.94068 31.1454 6.35229 31.1454 5.65955 31.1454 5.11799 31.0329 4.63589 30.9113 4.42654 30.8583 4.29853 30.6414 4.35 30.4265 4.40147 30.2116 4.61288 30.0808 4.82233 30.133 5.25671 30.2427 5.74271 30.3441 6.35229 30.3441 7.73547 30.3441 8.41381 29.9511 9.13194 29.535 9.90631 29.0864 10.707 28.6224 12.2954 28.6224 13.8837 28.6224 14.6844 29.0864 15.4588 29.535 16.1769 29.9511 16.8551 30.3441 18.2382 30.3441 19.6214 30.3441 20.2997 29.9511 21.0178 29.535 21.7921 29.0864 22.5928 28.6224 24.1811 28.6224 25.7695 28.6224 26.5702 29.0864 27.3447 29.535 28.0627 29.9511 28.7411 30.3441 30.1243 30.3441 31.5074 30.3441 32.1858 29.9511 32.9039 29.535 33.6783 29.0864 34.479 28.6224 36.0673 28.6224 37.6558 28.6224 38.4566 29.0864 39.231 29.535 39.9493 29.9511 40.6277 30.3441 42.0111 30.3441 42.6507 30.3441 43.1364 30.2351 43.5415 30.133 43.7509 30.0807 43.9623 30.2116 44.0137 30.4266zM40.3794 34.243C40.3794 34.4642 40.2046 34.6436 39.989 34.6436 38.572 34.6436 37.8578 34.2436 37.1672 33.8568 36.5346 33.5024 35.9372 33.1678 34.7194 33.1678 33.5018 33.1678 32.9044 33.5024 32.2719 33.8568 31.5814 34.2436 30.8673 34.6436 29.4505 34.6436 28.0336 34.6436 27.3194 34.2436 26.6289 33.8568 25.9964 33.5024 25.3989 33.1678 24.1813 33.1678 22.9637 33.1678 22.3664 33.5024 21.734 33.8568 21.0434 34.2436 20.3293 34.6436 18.9125 34.6436 17.4957 34.6436 16.7816 34.2436 16.0911 33.8568 15.4587 33.5024 14.8613 33.1678 13.6438 33.1678 12.4261 33.1678 11.8287 33.5024 11.1963 33.8568 10.5057 34.2436 9.79156 34.6436 8.37468 34.6436 8.15909 34.6436 7.98428 34.4642 7.98428 34.243 7.98428 34.0217 8.15909 33.8423 8.37468 33.8423 9.59235 33.8423 10.1897 33.5076 10.8222 33.1533 11.5128 32.7664 12.2269 32.3664 13.6438 32.3664 15.0605 32.3664 15.7746 32.7664 16.4652 33.1533 17.0976 33.5076 17.6949 33.8423 18.9125 33.8423 20.1301 33.8423 20.7275 33.5076 21.3599 33.1533 22.0504 32.7664 22.7645 32.3664 24.1813 32.3664 25.5981 32.3664 26.3123 32.7664 27.0029 33.1533 27.6354 33.5076 28.2328 33.8423 29.4505 33.8423 30.6681 33.8423 31.2654 33.5076 31.8979 33.1533 32.5885 32.7664 33.3026 32.3664 34.7194 32.3664 36.1364 32.3664 36.8506 32.7664 37.5412 33.1533 38.1738 33.5076 38.7712 33.8423 39.989 33.8423 40.2046 33.8423 40.3794 34.0217 40.3794 34.243zM59.9368 34V29.4721H63.0335V29.8624H60.2491L60.3705 29.741V34H59.9368zM65.5529 34.0347C65.1192 34.0347 64.7317 33.9364 64.3906 33.7398 64.0552 33.5432 63.7863 33.2714 63.5839 32.9244 63.3873 32.5774 63.2889 32.1813 63.2889 31.7361 63.2889 31.285 63.3873 30.8889 63.5839 30.5477 63.7863 30.2007 64.0552 29.9289 64.3906 29.7323 64.7317 29.5357 65.1192 29.4374 65.5529 29.4374 65.9866 29.4374 66.374 29.5357 66.7152 29.7323 67.0564 29.9289 67.3253 30.2007 67.5219 30.5477 67.7185 30.8889 67.8168 31.285 67.8168 31.7361 67.8168 32.1813 67.7185 32.5774 67.5219 32.9244 67.3253 33.2714 67.0564 33.5432 66.7152 33.7398 66.374 33.9364 65.9866 34.0347 65.5529 34.0347zM65.5529 33.6444C65.8999 33.6444 66.2121 33.5663 66.4897 33.4102 66.7673 33.2482 66.9841 33.0227 67.1403 32.7336 67.2964 32.4444 67.3745 32.1119 67.3745 31.7361 67.3745 31.3544 67.2964 31.0219 67.1403 30.7385 66.9841 30.4494 66.7673 30.2268 66.4897 30.0706 66.2121 29.9087 65.8999 29.8277 65.5529 29.8277 65.2059 29.8277 64.8937 29.9087 64.6161 30.0706 64.3443 30.2268 64.1274 30.4494 63.9655 30.7385 63.8094 31.0219 63.7313 31.3544 63.7313 31.7361 63.7313 32.1119 63.8094 32.4444 63.9655 32.7336 64.1274 33.0227 64.3443 33.2482 64.6161 33.4102 64.8937 33.5663 65.2059 33.6444 65.5529 33.6444zM71.0595 34.0347C70.6201 34.0347 70.2268 33.9364 69.8799 33.7398 69.5387 33.5432 69.2669 33.2714 69.0645 32.9244 68.8679 32.5774 68.7696 32.1813 68.7696 31.7361 68.7696 31.285 68.8679 30.886 69.0645 30.539 69.2669 30.1921 69.5387 29.9232 69.8799 29.7323 70.2268 29.5357 70.6201 29.4374 71.0595 29.4374 71.4239 29.4374 71.7535 29.5068 72.0484 29.6456 72.3491 29.7844 72.592 29.9926 72.777 30.2701L72.4561 30.5043C72.2942 30.273 72.0918 30.1024 71.8489 29.9926 71.606 29.8827 71.3429 29.8277 71.0595 29.8277 70.7068 29.8277 70.3887 29.9087 70.1054 30.0706 69.8278 30.2268 69.6081 30.4494 69.4462 30.7385 69.29 31.0219 69.212 31.3544 69.212 31.7361 69.212 32.1177 69.29 32.4531 69.4462 32.7423 69.6081 33.0256 69.8278 33.2482 70.1054 33.4102 70.3887 33.5663 70.7068 33.6444 71.0595 33.6444 71.3429 33.6444 71.606 33.5894 71.8489 33.4796 72.0918 33.3697 72.2942 33.1991 72.4561 32.9678L72.777 33.202C72.592 33.4796 72.3491 33.6877 72.0484 33.8265 71.7535 33.9653 71.4239 34.0347 71.0595 34.0347zM74.7801 34V29.7323L74.9015 29.8624H73.0105V29.4721H76.9833V29.8624H75.0923L75.2138 29.7323V34H74.7801zM79.5737 34.0347C79.1169 34.0347 78.7121 33.9364 78.3594 33.7398 78.0124 33.5432 77.7377 33.2714 77.5353 32.9244 77.3387 32.5774 77.2404 32.1813 77.2404 31.7361 77.2404 31.285 77.3329 30.8889 77.518 30.5477 77.7088 30.2007 77.969 29.9289 78.2986 29.7323 78.6283 29.5357 78.9984 29.4374 79.4089 29.4374 79.8195 29.4374 80.1867 29.5328 80.5105 29.7237 80.8402 29.9145 81.0975 30.1834 81.2825 30.5303 81.4734 30.8715 81.5688 31.2676 81.5688 31.7187 81.5688 31.7361 81.5659 31.7563 81.5601 31.7794 81.5601 31.7968 81.5601 31.817 81.5601 31.8401H77.5613V31.5019H81.3259L81.1524 31.6667C81.1582 31.3139 81.083 30.9988 80.9269 30.7212 80.7766 30.4378 80.5713 30.2181 80.311 30.0619 80.0508 29.9 79.7501 29.8191 79.4089 29.8191 79.0735 29.8191 78.7728 29.9 78.5068 30.0619 78.2466 30.2181 78.0413 30.4378 77.891 30.7212 77.7406 30.9988 77.6654 31.3168 77.6654 31.6753V31.7534C77.6654 32.1235 77.7464 32.4531 77.9083 32.7423 78.076 33.0256 78.3044 33.2482 78.5936 33.4102 78.8827 33.5663 79.2123 33.6444 79.5824 33.6444 79.8716 33.6444 80.1405 33.5923 80.3891 33.4882 80.6436 33.3841 80.8575 33.2251 81.031 33.0111L81.2825 33.2974C81.0859 33.5403 80.8373 33.7253 80.5366 33.8525 80.2417 33.974 79.9207 34.0347 79.5737 34.0347zM82.9859 34V29.4721H84.8942C85.3916 29.4721 85.7848 29.5704 86.0739 29.767 86.3631 29.9636 86.5076 30.2499 86.5076 30.6258 86.5076 30.9959 86.3659 31.2763 86.0826 31.4672 85.805 31.658 85.4436 31.7534 84.9983 31.7534L85.1198 31.6233C85.6518 31.6233 86.0421 31.7216 86.2908 31.9182 86.5394 32.1148 86.6638 32.404 86.6638 32.7856 86.6638 33.1731 86.5221 33.4738 86.2387 33.6877 85.9612 33.8959 85.5303 34 84.9463 34H82.9859zM83.411 33.6444H84.9376C85.3597 33.6444 85.6807 33.575 85.9004 33.4362 86.1202 33.2974 86.2301 33.0748 86.2301 32.7683 86.2301 32.456 86.1317 32.2305 85.9351 32.0917 85.7443 31.9471 85.4349 31.8748 85.007 31.8748H83.411V33.6444zM83.411 31.5365H84.8682C85.2499 31.5365 85.5448 31.4643 85.753 31.3197 85.9669 31.1751 86.0739 30.9612 86.0739 30.6778 86.0739 30.3945 85.9669 30.1834 85.753 30.0446 85.5448 29.9 85.2499 29.8277 84.8682 29.8277H83.411V31.5365zM90.0082 34.0347C89.5745 34.0347 89.187 33.9364 88.8458 33.7398 88.5104 33.5432 88.2415 33.2714 88.0392 32.9244 87.8425 32.5774 87.7442 32.1813 87.7442 31.7361 87.7442 31.285 87.8425 30.8889 88.0392 30.5477 88.2415 30.2007 88.5104 29.9289 88.8458 29.7323 89.187 29.5357 89.5745 29.4374 90.0082 29.4374 90.4419 29.4374 90.8293 29.5357 91.1705 29.7323 91.5117 29.9289 91.7806 30.2007 91.9772 30.5477 92.1738 30.8889 92.2721 31.285 92.2721 31.7361 92.2721 32.1813 92.1738 32.5774 91.9772 32.9244 91.7806 33.2714 91.5117 33.5432 91.1705 33.7398 90.8293 33.9364 90.4419 34.0347 90.0082 34.0347zM90.0082 33.6444C90.3551 33.6444 90.6674 33.5663 90.945 33.4102 91.2226 33.2482 91.4394 33.0227 91.5955 32.7336 91.7517 32.4444 91.8297 32.1119 91.8297 31.7361 91.8297 31.3544 91.7517 31.0219 91.5955 30.7385 91.4394 30.4494 91.2226 30.2268 90.945 30.0706 90.6674 29.9087 90.3551 29.8277 90.0082 29.8277 89.6612 29.8277 89.3489 29.9087 89.0714 30.0706 88.7996 30.2268 88.5827 30.4494 88.4208 30.7385 88.2647 31.0219 88.1866 31.3544 88.1866 31.7361 88.1866 32.1119 88.2647 32.4444 88.4208 32.7336 88.5827 33.0227 88.7996 33.2482 89.0714 33.4102 89.3489 33.5663 89.6612 33.6444 90.0082 33.6444zM93.6846 34V29.4721H94.1183V33.3321L97.3451 29.4721H97.7267V34H97.293V30.14L94.0662 34H93.6846zM95.6883 28.7782C95.3356 28.7782 95.0435 28.6857 94.8122 28.5006 94.5867 28.3098 94.4681 28.0467 94.4566 27.7113H94.7775C94.7891 27.9484 94.8787 28.1363 95.0464 28.2751 95.2199 28.4139 95.4339 28.4833 95.6883 28.4833 95.9428 28.4833 96.1538 28.4139 96.3215 28.2751 96.495 28.1363 96.5846 27.9484 96.5904 27.7113H96.92C96.9143 28.0467 96.7957 28.3098 96.5644 28.5006 96.3389 28.6857 96.0468 28.7782 95.6883 28.7782zM104.922 33.7918V29.8624H102.562L102.51 30.9901C102.499 31.3081 102.479 31.6262 102.45 31.9442 102.421 32.2565 102.374 32.5456 102.311 32.8116 102.247 33.0719 102.158 33.2829 102.042 33.4449 101.932 33.6068 101.787 33.6964 101.608 33.7138L101.174 33.6183C101.36 33.6299 101.51 33.5634 101.626 33.4188 101.741 33.2685 101.831 33.0661 101.894 32.8116 101.958 32.5572 102.004 32.271 102.033 31.9529 102.068 31.6291 102.094 31.2995 102.111 30.9641L102.172 29.4721H105.355V33.7918H104.922zM100.975 35.1276V33.6183H106.084V35.1276H105.676V34H101.391V35.1276H100.975zM109.169 34.0347C108.735 34.0347 108.348 33.9364 108.007 33.7398 107.671 33.5432 107.403 33.2714 107.2 32.9244 107.004 32.5774 106.905 32.1813 106.905 31.7361 106.905 31.285 107.004 30.8889 107.2 30.5477 107.403 30.2007 107.671 29.9289 108.007 29.7323 108.348 29.5357 108.735 29.4374 109.169 29.4374 109.603 29.4374 109.99 29.5357 110.332 29.7323 110.673 29.9289 110.942 30.2007 111.138 30.5477 111.335 30.8889 111.433 31.285 111.433 31.7361 111.433 32.1813 111.335 32.5774 111.138 32.9244 110.942 33.2714 110.673 33.5432 110.332 33.7398 109.99 33.9364 109.603 34.0347 109.169 34.0347zM109.169 33.6444C109.516 33.6444 109.828 33.5663 110.106 33.4102 110.384 33.2482 110.6 33.0227 110.757 32.7336 110.913 32.4444 110.991 32.1119 110.991 31.7361 110.991 31.3544 110.913 31.0219 110.757 30.7385 110.6 30.4494 110.384 30.2268 110.106 30.0706 109.828 29.9087 109.516 29.8277 109.169 29.8277 108.822 29.8277 108.51 29.9087 108.232 30.0706 107.961 30.2268 107.744 30.4494 107.582 30.7385 107.426 31.0219 107.348 31.3544 107.348 31.7361 107.348 32.1119 107.426 32.4444 107.582 32.7336 107.744 33.0227 107.961 33.2482 108.232 33.4102 108.51 33.5663 108.822 33.6444 109.169 33.6444zM112.846 34V29.4721H113.271L115.413 33.0545H115.222L117.373 29.4721H117.773V34H117.373V29.9926L117.46 30.0272 115.404 33.4188H115.205L113.141 30.0012 113.245 29.9839V34H112.846zM54.0543 20V7.81341H58.6156C59.6485 7.81341 60.5364 7.9817 61.2792 8.31828 62.022 8.64326 62.5907 9.11911 62.9853 9.74585 63.3916 10.361 63.5947 11.1096 63.5947 11.9917 63.5947 12.8505 63.3916 13.5933 62.9853 14.2201 62.5907 14.8352 62.022 15.3111 61.2792 15.6476 60.5364 15.9842 59.6485 16.1525 58.6156 16.1525H54.7681L55.3426 15.5432V20H54.0543zM55.3426 15.6476L54.7681 15.0209H58.5808C59.7994 15.0209 60.7221 14.7598 61.3489 14.2375 61.9872 13.7036 62.3064 12.955 62.3064 11.9917 62.3064 11.0167 61.9872 10.2623 61.3489 9.72844 60.7221 9.19456 59.7994 8.92761 58.5808 8.92761H54.7681L55.3426 8.31828V15.6476zM64.3444 20L69.9154 7.81341H71.1863L76.7573 20H75.3993L70.281 8.56201H70.8033L65.6849 20H64.3444zM66.538 16.7444L66.921 15.6999H74.0066L74.3896 16.7444H66.538zM87.7102 19.3907V8.92761H81.8781L81.7736 11.8872C81.7388 12.8041 81.6808 13.6862 81.5995 14.5334 81.5299 15.3691 81.4138 16.1235 81.2514 16.7967 81.1005 17.4582 80.8916 17.9979 80.6246 18.4157 80.3693 18.8336 80.0327 19.0773 79.6149 19.1469L78.2047 18.8858C78.669 18.909 79.052 18.7407 79.3537 18.3809 79.6671 18.0211 79.905 17.5163 80.0675 16.8663 80.2416 16.2164 80.3693 15.4561 80.4505 14.5857 80.5318 13.7152 80.5898 12.7751 80.6246 11.7653L80.7639 7.81341H88.9811V19.3907H87.7102zM77.7521 22.7333L77.7695 18.8858H90.8091V22.7333H89.6079V20H78.9707L78.9533 22.7333H77.7521zM93.7504 18.7988C94.3423 19.0309 94.8994 19.0889 95.4217 18.9728 95.944 18.8452 96.4256 18.4332 96.8667 17.7368L97.4586 16.7967 97.5804 16.64 102.246 7.81341H103.534L97.9983 18.0153C97.6269 18.7233 97.1858 19.2514 96.6751 19.5996 96.1761 19.9478 95.6422 20.1335 95.0735 20.1567 94.5164 20.1799 93.9535 20.0754 93.3848 19.8433L93.7504 18.7988zM97.5456 17.8064L92.2706 7.81341H93.6459L98.242 16.7444 97.5456 17.8064zM106.06 20V7.81341H113.807V8.92761H106.982L107.313 8.59683 107.33 20H106.06zM112.456 20L118.027 7.81341H119.298L124.869 20H123.511L118.393 8.56201H118.915L113.797 20H112.456zM114.65 16.7444L115.033 15.6999H122.118L122.501 16.7444H114.65z" fill="#fff"/><path stroke="#fff" stroke-width="1.152" d="M.576.576H131.849V37.425H.576zM48.5052 1.15152V38"/></symbol><symbol viewBox="0 0 132 38" fill="none" id="svg-logo-black"><path d="M32.9219 13.6409C32.9219 18.6389 28.9742 22.6905 24.1044 22.6905C19.2346 22.6905 15.2868 18.6389 15.2868 13.6409C15.2868 8.64295 19.2346 4.59131 24.1044 4.59131C28.9742 4.59131 32.9219 8.64295 32.9219 13.6409Z" fill="#E08631"/><path d="M45.5559 25.2902H39.3919V19.5659L42.5596 20.7744C42.6006 20.7901 42.6426 20.7975 42.684 20.7975 42.8289 20.7975 42.9653 20.7062 43.0187 20.5586 43.0875 20.3689 42.9934 20.1579 42.8085 20.0874L36.0622 17.5136V15.4191C36.0622 15.2167 35.9023 15.0526 35.7051 15.0526 35.5079 15.0526 35.348 15.2167 35.348 15.4191V17.2411L24.2288 12.999C24.1485 12.9684 24.0601 12.9684 23.98 12.999L5.40028 20.0874C5.21541 20.1579 5.12126 20.3689 5.18996 20.5586 5.25866 20.7484 5.46454 20.8451 5.6491 20.7744L8.81681 19.5659V25.2902H2.65276C2.45555 25.2902 2.29565 25.4543 2.29565 25.6567 2.29565 25.8591 2.45555 26.0232 2.65276 26.0232H45.5559C45.7532 26.0232 45.913 25.8591 45.913 25.6567 45.913 25.4543 45.7532 25.2902 45.5559 25.2902zM9.53101 19.2934L24.1044 13.7335 38.6777 19.2934V25.2902H9.53101V19.2934zM42.2446 29.6785C42.2916 29.8751 42.1746 30.0735 41.983 30.1218 41.5417 30.2331 41.046 30.3361 40.4128 30.3361 38.9598 30.3361 38.2273 29.9117 37.5189 29.5013 36.8619 29.1207 36.2414 28.7613 34.976 28.7613 33.7108 28.7613 33.0904 29.1207 32.4336 29.5013 31.7252 29.9117 30.9928 30.3361 29.5399 30.3361 28.087 30.3361 27.3546 29.9117 26.6462 29.5013 25.9894 29.1207 25.3689 28.7613 24.1037 28.7613 22.8385 28.7613 22.2181 29.1207 21.5613 29.5013 20.853 29.9117 20.1206 30.3361 18.6677 30.3361 17.2149 30.3361 16.4825 29.9117 15.7742 29.5013 15.1174 29.1207 14.497 28.7613 13.2318 28.7613 11.9666 28.7613 11.3461 29.1207 10.6892 29.5013 9.98092 29.9117 9.2485 30.3361 7.79559 30.3361 7.16195 30.3361 6.66657 30.2331 6.2256 30.1218 6.0341 30.0734 5.91702 29.875 5.9641 29.6784 6.01118 29.4819 6.20455 29.3622 6.39613 29.41 6.79347 29.5103 7.23801 29.6031 7.79559 29.6031 9.06079 29.6031 9.68127 29.2436 10.3382 28.863 11.0465 28.4526 11.7789 28.0283 13.2318 28.0283 14.6846 28.0283 15.417 28.4526 16.1253 28.863 16.7822 29.2436 17.4026 29.6031 18.6677 29.6031 19.9329 29.6031 20.5533 29.2436 21.2102 28.863 21.9185 28.4526 22.6509 28.0283 24.1037 28.0283 25.5566 28.0283 26.289 28.4526 26.9974 28.863 27.6542 29.2436 28.2747 29.6031 29.5399 29.6031 30.8051 29.6031 31.4256 29.2435 32.0824 28.863 32.7908 28.4526 33.5232 28.0283 34.976 28.0283 36.429 28.0283 37.1615 28.4526 37.8699 28.863 38.5269 29.2435 39.1475 29.6031 40.4128 29.6031 40.9978 29.6031 41.4421 29.5034 41.8127 29.41 42.0042 29.3621 42.1976 29.4819 42.2446 29.6785zM38.9204 33.1694C38.9204 33.3718 38.7605 33.5359 38.5633 33.5359 37.2671 33.5359 36.6138 33.17 35.9821 32.8161 35.4035 32.492 34.857 32.1859 33.7431 32.1859 32.6293 32.1859 32.0829 32.492 31.5044 32.8161 30.8728 33.17 30.2196 33.5359 28.9236 33.5359 27.6275 33.5359 26.9743 33.17 26.3426 32.8161 25.7641 32.492 25.2176 32.1859 24.1039 32.1859 22.9902 32.1859 22.4437 32.492 21.8653 32.8161 21.2336 33.17 20.5805 33.5359 19.2845 33.5359 17.9885 33.5359 17.3353 33.17 16.7037 32.8161 16.1252 32.492 15.5789 32.1859 14.4651 32.1859 13.3513 32.1859 12.8049 32.492 12.2264 32.8161 11.5947 33.17 10.9415 33.5359 9.64549 33.5359 9.44828 33.5359 9.28838 33.3718 9.28838 33.1694 9.28838 32.967 9.44828 32.8029 9.64549 32.8029 10.7593 32.8029 11.3057 32.4968 11.8842 32.1727 12.5159 31.8188 13.1691 31.4529 14.4651 31.4529 15.7611 31.4529 16.4142 31.8188 17.0459 32.1727 17.6243 32.4968 18.1708 32.8029 19.2845 32.8029 20.3982 32.8029 20.9446 32.4968 21.5231 32.1727 22.1547 31.8188 22.8079 31.4529 24.1039 31.4529 25.3998 31.4529 26.0531 31.8188 26.6847 32.1727 27.2633 32.4968 27.8098 32.8029 28.9236 32.8029 30.0374 32.8029 30.5837 32.4968 31.1623 32.1727 31.7939 31.8188 32.4471 31.4529 33.7431 31.4529 35.0392 31.4529 35.6925 31.8188 36.3242 32.1727 36.9029 32.4968 37.4493 32.8029 38.5633 32.8029 38.7605 32.8029 38.9204 32.967 38.9204 33.1694zM57.3338 31.8087V26.5388H60.938V26.9931H57.6973L57.8386 26.8517V31.8087H57.3338zM63.8703 31.8491C63.3655 31.8491 62.9146 31.7347 62.5175 31.5058 62.1271 31.277 61.8141 30.9607 61.5786 30.5568 61.3497 30.153 61.2353 29.692 61.2353 29.1737 61.2353 28.6488 61.3497 28.1877 61.5786 27.7906 61.8141 27.3868 62.1271 27.0705 62.5175 26.8416 62.9146 26.6128 63.3655 26.4984 63.8703 26.4984 64.3751 26.4984 64.826 26.6128 65.2231 26.8416 65.6202 27.0705 65.9332 27.3868 66.162 27.7906 66.3908 28.1877 66.5053 28.6488 66.5053 29.1737 66.5053 29.692 66.3908 30.153 66.162 30.5568 65.9332 30.9607 65.6202 31.277 65.2231 31.5058 64.826 31.7347 64.3751 31.8491 63.8703 31.8491zM63.8703 31.3948C64.2741 31.3948 64.6376 31.3039 64.9606 31.1222 65.2837 30.9337 65.5361 30.6713 65.7178 30.3347 65.8995 29.9982 65.9904 29.6112 65.9904 29.1737 65.9904 28.7295 65.8995 28.3425 65.7178 28.0127 65.5361 27.6762 65.2837 27.4171 64.9606 27.2354 64.6376 27.0469 64.2741 26.9527 63.8703 26.9527 63.4665 26.9527 63.103 27.0469 62.78 27.2354 62.4636 27.4171 62.2112 27.6762 62.0228 28.0127 61.8411 28.3425 61.7502 28.7295 61.7502 29.1737 61.7502 29.6112 61.8411 29.9982 62.0228 30.3347 62.2112 30.6713 62.4636 30.9337 62.78 31.1222 63.103 31.3039 63.4665 31.3948 63.8703 31.3948zM70.2794 31.8491C69.7679 31.8491 69.3102 31.7347 68.9064 31.5058 68.5093 31.277 68.1929 30.9607 67.9574 30.5568 67.7285 30.153 67.6141 29.692 67.6141 29.1737 67.6141 28.6488 67.7285 28.1844 67.9574 27.7805 68.1929 27.3767 68.5093 27.0637 68.9064 26.8416 69.3102 26.6128 69.7679 26.4984 70.2794 26.4984 70.7034 26.4984 71.087 26.5792 71.4303 26.7407 71.7803 26.9022 72.0629 27.1445 72.2783 27.4676L71.9048 27.7402C71.7163 27.4709 71.4808 27.2724 71.1981 27.1445 70.9154 27.0166 70.6092 26.9527 70.2794 26.9527 69.8688 26.9527 69.4986 27.0469 69.1689 27.2354 68.8458 27.4171 68.59 27.6762 68.4016 28.0127 68.2199 28.3425 68.129 28.7295 68.129 29.1737 68.129 29.6179 68.2199 30.0083 68.4016 30.3448 68.59 30.6746 68.8458 30.9337 69.1689 31.1222 69.4986 31.3039 69.8688 31.3948 70.2794 31.3948 70.6092 31.3948 70.9154 31.3308 71.1981 31.203 71.4808 31.0751 71.7163 30.8765 71.9048 30.6073L72.2783 30.8799C72.0629 31.203 71.7803 31.4453 71.4303 31.6068 71.087 31.7683 70.7034 31.8491 70.2794 31.8491zM74.6096 31.8087V26.8416L74.751 26.9931H72.5501V26.5388H77.1739V26.9931H74.9731L75.1144 26.8416V31.8087H74.6096zM80.1889 31.8491C79.6572 31.8491 79.1861 31.7347 78.7755 31.5058 78.3717 31.277 78.052 30.9607 77.8164 30.5568 77.5876 30.153 77.4732 29.692 77.4732 29.1737 77.4732 28.6488 77.5809 28.1877 77.7962 27.7906 78.0183 27.3868 78.3212 27.0705 78.7048 26.8416 79.0885 26.6128 79.5192 26.4984 79.9971 26.4984 80.4749 26.4984 80.9023 26.6094 81.2792 26.8315 81.6629 27.0536 81.9624 27.3666 82.1777 27.7704 82.3998 28.1675 82.5109 28.6286 82.5109 29.1535 82.5109 29.1737 82.5075 29.1973 82.5008 29.2242 82.5008 29.2444 82.5008 29.268 82.5008 29.2949H77.8467V28.9012H82.2282L82.0263 29.093C82.033 28.6824 81.9455 28.3156 81.7638 27.9925 81.5888 27.6628 81.3499 27.407 81.047 27.2253 80.7442 27.0368 80.3942 26.9426 79.9971 26.9426 79.6067 26.9426 79.2567 27.0368 78.9471 27.2253 78.6443 27.407 78.4053 27.6628 78.2303 27.9925 78.0553 28.3156 77.9679 28.6858 77.9679 29.1031V29.1939C77.9679 29.6247 78.0621 30.0083 78.2505 30.3448 78.4457 30.6746 78.7116 30.9337 79.0481 31.1222 79.3846 31.3039 79.7682 31.3948 80.199 31.3948 80.5355 31.3948 80.8485 31.3342 81.1379 31.2131 81.434 31.0919 81.6831 30.9068 81.885 30.6578L82.1777 30.991C81.9489 31.2736 81.6595 31.489 81.3095 31.6371 80.9663 31.7784 80.5927 31.8491 80.1889 31.8491zM84.1603 31.8087V26.5388H86.3813C86.9601 26.5388 87.4178 26.6532 87.7543 26.882 88.0909 27.1109 88.2591 27.444 88.2591 27.8815 88.2591 28.3122 88.0942 28.6387 87.7644 28.8608 87.4414 29.0829 87.0207 29.1939 86.5025 29.1939L86.6438 29.0425C87.263 29.0425 87.7173 29.1569 88.0067 29.3857 88.2961 29.6146 88.4408 29.9511 88.4408 30.3953 88.4408 30.8462 88.2759 31.1962 87.9461 31.4453 87.6231 31.6876 87.1217 31.8087 86.4419 31.8087H84.1603zM84.655 31.3948H86.4318C86.9231 31.3948 87.2967 31.314 87.5524 31.1525 87.8082 30.991 87.9361 30.7318 87.9361 30.3751 87.9361 30.0117 87.8216 29.7492 87.5928 29.5877 87.3707 29.4194 87.0106 29.3353 86.5126 29.3353H84.655V31.3948zM84.655 28.9415H86.351C86.7952 28.9415 87.1385 28.8574 87.3808 28.6891 87.6298 28.5209 87.7543 28.2719 87.7543 27.9421 87.7543 27.6123 87.6298 27.3666 87.3808 27.2051 87.1385 27.0368 86.7952 26.9527 86.351 26.9527H84.655V28.9415zM92.3333 31.8491C91.8286 31.8491 91.3776 31.7347 90.9805 31.5058 90.5902 31.277 90.2772 30.9607 90.0416 30.5568 89.8128 30.153 89.6984 29.692 89.6984 29.1737 89.6984 28.6488 89.8128 28.1877 90.0416 27.7906 90.2772 27.3868 90.5902 27.0705 90.9805 26.8416 91.3776 26.6128 91.8286 26.4984 92.3333 26.4984 92.8381 26.4984 93.2891 26.6128 93.6862 26.8416 94.0833 27.0705 94.3962 27.3868 94.6251 27.7906 94.8539 28.1877 94.9683 28.6488 94.9683 29.1737 94.9683 29.692 94.8539 30.153 94.6251 30.5568 94.3962 30.9607 94.0833 31.277 93.6862 31.5058 93.2891 31.7347 92.8381 31.8491 92.3333 31.8491zM92.3333 31.3948C92.7372 31.3948 93.1006 31.3039 93.4237 31.1222 93.7467 30.9337 93.9991 30.6713 94.1808 30.3347 94.3626 29.9982 94.4534 29.6112 94.4534 29.1737 94.4534 28.7295 94.3626 28.3425 94.1808 28.0127 93.9991 27.6762 93.7467 27.4171 93.4237 27.2354 93.1006 27.0469 92.7372 26.9527 92.3333 26.9527 91.9295 26.9527 91.5661 27.0469 91.243 27.2354 90.9267 27.4171 90.6743 27.6762 90.4858 28.0127 90.3041 28.3425 90.2133 28.7295 90.2133 29.1737 90.2133 29.6112 90.3041 29.9982 90.4858 30.3347 90.6743 30.6713 90.9267 30.9337 91.243 31.1222 91.5661 31.3039 91.9295 31.3948 92.3333 31.3948zM96.6122 31.8087V26.5388H97.117V31.0313L100.873 26.5388H101.317V31.8087H100.812V27.3161L97.0565 31.8087H96.6122zM98.9443 25.7311C98.5338 25.7311 98.1939 25.6234 97.9247 25.4081 97.6622 25.186 97.5242 24.8797 97.5108 24.4894H97.8843C97.8978 24.7653 98.0021 24.984 98.1973 25.1456 98.3992 25.3071 98.6482 25.3879 98.9443 25.3879 99.2405 25.3879 99.4861 25.3071 99.6813 25.1456 99.8832 24.984 99.9876 24.7653 99.9943 24.4894H100.378C100.371 24.8797 100.233 25.186 99.964 25.4081 99.7015 25.6234 99.3616 25.7311 98.9443 25.7311zM109.691 31.5664V26.9931H106.945L106.884 28.3055C106.871 28.6757 106.847 29.0459 106.814 29.416 106.78 29.7795 106.726 30.116 106.652 30.4256 106.578 30.7285 106.474 30.9741 106.339 31.1626 106.211 31.351 106.043 31.4554 105.834 31.4755L105.33 31.3645C105.545 31.378 105.72 31.3006 105.855 31.1323 105.989 30.9573 106.094 30.7217 106.168 30.4256 106.242 30.1295 106.295 29.7963 106.329 29.4261 106.369 29.0492 106.4 28.6656 106.42 28.2752L106.491 26.5388H110.196V31.5664H109.691zM105.097 33.1211V31.3645H111.044V33.1211H110.569V31.8087H105.582V33.1211H105.097zM114.634 31.8491C114.13 31.8491 113.679 31.7347 113.282 31.5058 112.891 31.277 112.578 30.9607 112.343 30.5568 112.114 30.153 112 29.692 112 29.1737 112 28.6488 112.114 28.1877 112.343 27.7906 112.578 27.3868 112.891 27.0705 113.282 26.8416 113.679 26.6128 114.13 26.4984 114.634 26.4984 115.139 26.4984 115.59 26.6128 115.987 26.8416 116.384 27.0705 116.697 27.3868 116.926 27.7906 117.155 28.1877 117.269 28.6488 117.269 29.1737 117.269 29.692 117.155 30.153 116.926 30.5568 116.697 30.9607 116.384 31.277 115.987 31.5058 115.59 31.7347 115.139 31.8491 114.634 31.8491zM114.634 31.3948C115.038 31.3948 115.402 31.3039 115.725 31.1222 116.048 30.9337 116.3 30.6713 116.482 30.3347 116.664 29.9982 116.755 29.6112 116.755 29.1737 116.755 28.7295 116.664 28.3425 116.482 28.0127 116.3 27.6762 116.048 27.4171 115.725 27.2354 115.402 27.0469 115.038 26.9527 114.634 26.9527 114.231 26.9527 113.867 27.0469 113.544 27.2354 113.228 27.4171 112.975 27.6762 112.787 28.0127 112.605 28.3425 112.514 28.7295 112.514 29.1737 112.514 29.6112 112.605 29.9982 112.787 30.3347 112.975 30.6713 113.228 30.9337 113.544 31.1222 113.867 31.3039 114.231 31.3948 114.634 31.3948zM118.913 31.8087V26.5388H119.408L121.902 30.7083H121.68L124.183 26.5388H124.648V31.8087H124.183V27.1445L124.284 27.1849 121.892 31.1323H121.659L119.257 27.1546 119.378 27.1344V31.8087H118.913zM51.6501 19V5.39422H56.7425C57.8958 5.39422 58.887 5.58211 59.7163 5.95789 60.5456 6.32071 61.1806 6.85199 61.6211 7.55171 62.0747 8.23848 62.3014 9.07426 62.3014 10.0591 62.3014 11.0179 62.0747 11.8472 61.6211 12.547 61.1806 13.2337 60.5456 13.765 59.7163 14.1408 58.887 14.5166 57.8958 14.7045 56.7425 14.7045H52.447L53.0884 14.0242V19H51.6501zM53.0884 14.1408L52.447 13.4411H56.7036C58.0642 13.4411 59.0944 13.1495 59.7941 12.5664 60.5068 11.9703 60.8631 11.1346 60.8631 10.0591 60.8631 8.9706 60.5068 8.12834 59.7941 7.53227 59.0944 6.93621 58.0642 6.63818 56.7036 6.63818H52.447L53.0884 5.95789V14.1408zM62.5553 19L68.7751 5.39422H70.194L76.4138 19H74.8977L69.1833 6.23001H69.7664L64.052 19H62.5553zM65.0044 15.3653L65.432 14.1991H73.3428L73.7704 15.3653H65.0044zM88.0592 18.3197V6.63818H81.5478L81.4312 9.94244C81.3923 10.9661 81.3275 11.9509 81.2368 12.8968 81.1591 13.8298 81.0295 14.6721 80.8481 15.4236 80.6797 16.1622 80.4464 16.7648 80.1484 17.2312 79.8633 17.6977 79.4875 17.9698 79.021 18.0476L77.4467 17.756C77.965 17.782 78.3926 17.5941 78.7295 17.1924 79.0794 16.7907 79.345 16.227 79.5264 15.5014 79.7208 14.7757 79.8633 13.927 79.954 12.9551 80.0447 11.9833 80.1095 10.9337 80.1484 9.80638L80.3039 5.39422H89.4781V18.3197H88.0592zM76.9413 22.0516L76.9607 17.756H91.5189V22.0516H90.1778V19H78.3019L78.2824 22.0516H76.9413zM94.2196 17.6589C94.8804 17.918 95.5024 17.9828 96.0855 17.8532 96.6686 17.7107 97.2064 17.2507 97.6988 16.4732L98.3596 15.4236 98.4957 15.2487 103.705 5.39422H105.143L98.9622 16.7842C98.5475 17.5746 98.0551 18.1642 97.485 18.553 96.9278 18.9417 96.3317 19.149 95.6968 19.1749 95.0748 19.2008 94.4463 19.0842 93.8114 18.8251L94.2196 17.6589zM98.4568 16.551L92.5674 5.39422H94.103L99.2343 15.3653 98.4568 16.551zM107.379 19V5.39422H116.028V6.63818H108.409L108.779 6.26888 108.798 19H107.379zM113.938 19L120.157 5.39422H121.576L127.796 19H126.28L120.566 6.23001H121.149L115.434 19H113.938zM116.387 15.3653L116.814 14.1991H124.725L125.153 15.3653H116.387z" fill="#333"/><path stroke="#333" stroke-width="1.143" d="M.572.572H131.429V37.307H.572zM48.3498 1.14783V37.8783"/></symbol><symbol viewBox="0 0 482.6 482.6" id="svg-phone"><path d="M98.339,320.8c47.6,56.9,104.9,101.7,170.3,133.4c24.9,11.8,58.2,25.8,95.3,28.2c2.3,0.1,4.5,0.2,6.8,0.2 c24.9,0,44.9-8.6,61.2-26.3c0.1-0.1,0.3-0.3,0.4-0.5c5.8-7,12.4-13.3,19.3-20c4.7-4.5,9.5-9.2,14.1-14 c21.3-22.2,21.3-50.4-0.2-71.9l-60.1-60.1c-10.2-10.6-22.4-16.2-35.2-16.2c-12.8,0-25.1,5.6-35.6,16.1l-35.8,35.8 c-3.3-1.9-6.7-3.6-9.9-5.2c-4-2-7.7-3.9-11-6c-32.6-20.7-62.2-47.7-90.5-82.4c-14.3-18.1-23.9-33.3-30.6-48.8 c9.4-8.5,18.2-17.4,26.7-26.1c3-3.1,6.1-6.2,9.2-9.3c10.8-10.8,16.6-23.3,16.6-36s-5.7-25.2-16.6-36l-29.8-29.8 c-3.5-3.5-6.8-6.9-10.2-10.4c-6.6-6.8-13.5-13.8-20.3-20.1c-10.3-10.1-22.4-15.4-35.2-15.4c-12.7,0-24.9,5.3-35.6,15.5l-37.4,37.4 c-13.6,13.6-21.3,30.1-22.9,49.2c-1.9,23.9,2.5,49.3,13.9,80C32.739,229.6,59.139,273.7,98.339,320.8z M25.739,104.2 c1.2-13.3,6.3-24.4,15.9-34l37.2-37.2c5.8-5.6,12.2-8.5,18.4-8.5c6.1,0,12.3,2.9,18,8.7c6.7,6.2,13,12.7,19.8,19.6 c3.4,3.5,6.9,7,10.4,10.6l29.8,29.8c6.2,6.2,9.4,12.5,9.4,18.7s-3.2,12.5-9.4,18.7c-3.1,3.1-6.2,6.3-9.3,9.4 c-9.3,9.4-18,18.3-27.6,26.8c-0.2,0.2-0.3,0.3-0.5,0.5c-8.3,8.3-7,16.2-5,22.2c0.1,0.3,0.2,0.5,0.3,0.8 c7.7,18.5,18.4,36.1,35.1,57.1c30,37,61.6,65.7,96.4,87.8c4.3,2.8,8.9,5,13.2,7.2c4,2,7.7,3.9,11,6c0.4,0.2,0.7,0.4,1.1,0.6 c3.3,1.7,6.5,2.5,9.7,2.5c8,0,13.2-5.1,14.9-6.8l37.4-37.4c5.8-5.8,12.1-8.9,18.3-8.9c7.6,0,13.8,4.7,17.7,8.9l60.3,60.2 c12,12,11.9,25-0.3,37.7c-4.2,4.5-8.6,8.8-13.3,13.3c-7,6.8-14.3,13.8-20.9,21.7c-11.5,12.4-25.2,18.2-42.9,18.2 c-1.7,0-3.5-0.1-5.2-0.2c-32.8-2.1-63.3-14.9-86.2-25.8c-62.2-30.1-116.8-72.8-162.1-127c-37.3-44.9-62.4-86.7-79-131.5 C28.039,146.4,24.139,124.3,25.739,104.2z"/></symbol><symbol viewBox="0 0 294.159 294.159" id="svg-room_balcony"><path d="M155.223,0H77.385H53.558C43.361,0,35.065,8.296,35.065,18.492s8.296,18.492,18.493,18.492	c10.196,0,18.491-8.296,18.491-18.492h-8.318c0,5.609-4.563,10.174-10.173,10.174c-5.61,0-10.175-4.564-10.175-10.174	S47.948,8.318,53.558,8.318h23.827V211.25c-8.257,1.891-14.425,9.27-14.425,18.103c0,10.262,8.322,18.583,18.584,18.583	c7.957,0,14.727-5.012,17.378-12.042c11.698-20.625,104.869,4.575,124.925,48.095c3.275,7.118,9.322,10.171,16.557,10.171	c10.263,0,18.582-8.321,18.582-18.583L259.094,0H155.223z M223.107,10.993c2.237,0,4.73,3.693,4.73,8.994	c0,5.308-2.493,9.006-4.73,9.006c-2.244,0-4.744-3.698-4.744-9.006C218.363,14.687,220.863,10.993,223.107,10.993z M205.358,28.73	c3.998,0,7.514-1.159,9.881-3.01c0.656,2.028,1.646,3.752,2.882,5.009h-25.51c1.233-1.256,2.224-2.979,2.878-5.007	C197.854,27.572,201.366,28.73,205.358,28.73z M196.365,19.987c0-2.239,3.693-4.734,8.993-4.734c5.307,0,9.005,2.495,9.005,4.734	c0,2.243-3.698,4.743-9.005,4.743C200.058,24.73,196.365,22.23,196.365,19.987z M218.618,39.048v153.48h-28.041V39.048H218.618z M219.219,8.318c-1.744,1.259-3.141,3.345-3.98,5.941c-2.367-1.849-5.883-3.007-9.881-3.007c-3.992,0-7.504,1.157-9.869,3.005	c-0.839-2.596-2.234-4.681-3.976-5.939H219.219z M187.63,10.993c2.239,0,4.734,3.693,4.734,8.994c0,5.308-2.495,9.006-4.734,9.006	c-2.243,0-4.74-3.698-4.74-9.006C182.89,14.687,185.387,10.993,187.63,10.993z M183.745,8.318c-1.742,1.259-3.141,3.345-3.979,5.941	c-2.368-1.849-5.884-3.007-9.882-3.007c-4.35,0-8.126,1.373-10.472,3.517c-0.814-2.835-2.283-5.11-4.139-6.451H183.745z M156.372,30.729c1.336-1.361,2.395-3.267,3.041-5.52c2.346,2.146,6.122,3.521,10.472,3.521c3.999,0,7.515-1.159,9.882-3.01	c0.655,2.028,1.646,3.752,2.881,5.009H156.372z M182.258,39.048v153.48h-28.037V39.048H182.258z M160.887,19.987	c0-2.239,3.695-4.734,8.997-4.734c5.308,0,9.006,2.495,9.006,4.734c0,2.243-3.698,4.743-9.006,4.743	C164.583,24.73,160.887,22.23,160.887,19.987z M151.391,10.993c2.239,0,4.734,3.693,4.734,8.994c0,5.308-2.495,9.006-4.734,9.006	c-2.242,0-4.741-3.698-4.741-9.006C146.65,14.687,149.149,10.993,151.391,10.993z M147.505,8.318	c-1.743,1.259-3.14,3.345-3.98,5.941c-2.367-1.849-5.883-3.007-9.882-3.007c-5.052,0-9.342,1.847-11.5,4.609	c-0.728-3.339-2.323-6.034-4.411-7.544H147.505z M118.831,30.729c1.548-1.576,2.719-3.883,3.313-6.613	c2.158,2.767,6.448,4.614,11.5,4.614c3.999,0,7.515-1.159,9.882-3.01c0.655,2.028,1.646,3.752,2.881,5.009H118.831z M145.903,39.048	v153.48h-28.041V39.048H145.903z M124.648,19.987c0-2.239,3.694-4.734,8.996-4.734c5.308,0,9.006,2.495,9.006,4.734	c0,2.243-3.698,4.743-9.006,4.743C128.342,24.73,124.648,22.23,124.648,19.987z M113.851,10.993c2.238,0,4.732,3.693,4.732,8.994	c0,5.308-2.494,9.006-4.732,9.006c-2.243,0-4.743-3.698-4.743-9.006C109.108,14.687,111.608,10.993,113.851,10.993z M85.704,8.318	h24.261c-1.743,1.259-3.14,3.344-3.979,5.94c-2.365-1.849-5.878-3.006-9.872-3.006c-4.309,0-8.056,1.347-10.409,3.454V8.318z M105.108,19.987c0,2.243-3.693,4.743-8.995,4.743c-5.306,0-9.005-2.5-9.005-4.743c0-2.239,3.699-4.734,9.005-4.734	C101.415,15.253,105.108,17.748,105.108,19.987z M85.704,25.272c2.354,2.11,6.1,3.458,10.409,3.458c3.994,0,7.507-1.158,9.872-3.009	c0.656,2.028,1.646,3.752,2.881,5.008H85.704V25.272z M85.704,39.048h23.84v153.48h-23.84V39.048z M250.776,206.898H85.704v-6.053	h165.072V206.898z M250.776,192.527h-23.84V39.048h23.84V192.527z M250.776,30.729h-22.69c1.233-1.256,2.222-2.979,2.877-5.007	c2.365,1.85,5.878,3.008,9.871,3.008c4.032,0,7.575-1.178,9.942-3.056V30.729z M231.837,19.987c0-2.239,3.694-4.734,8.996-4.734	c5.308,0,9.005,2.495,9.005,4.734c0,2.243-3.697,4.743-9.005,4.743C235.532,24.73,231.837,22.23,231.837,19.987z M250.776,14.305	c-2.367-1.875-5.91-3.052-9.942-3.052c-3.993,0-7.505,1.157-9.871,3.005c-0.839-2.596-2.233-4.681-3.974-5.939h23.787V14.305z"/></symbol><symbol viewBox="0 0 55.762 55.762" id="svg-room_bed"><path d="M55.742,33.132c0.003-0.033,0.02-0.062,0.02-0.097c0-0.07-0.007-0.14-0.021-0.206 c-0.069-5.551-2.943-8.805-7.144-10.717v-2.938c0-5.718-4.238-9.132-11.338-9.132c-5.316,0-9.027,1.915-10.556,5.278 c-1.735-2.848-5.254-4.452-10.119-4.452c-7.099,0-11.337,3.414-11.337,9.132v2.68C2.037,24.676,0,27.881,0,33.034v4.943v0.001 v0.001v5.741c0,1.103,0.897,2,2,2h2.654c1.103,0,2-0.897,2-2v-4.743h42.435v4.743c0,1.103,0.897,2,2,2h2.653c1.103,0,2-0.897,2-2 v-5.741v-0.001v-0.001V33.132z M2.001,36.979v-2.944h51.741v2.943L2.001,36.979L2.001,36.979z M27.923,19.174 c0-6.437,6.529-7.132,9.337-7.132s9.338,0.695,9.338,7.132v2.156c-5.489-1.833-12.57-1.935-18.703-1.94 c-0.002-0.02-0.002-0.04-0.003-0.06C27.9,19.277,27.923,19.23,27.923,19.174z M7.248,20.001c0-6.438,6.53-7.132,9.337-7.132 c2.714,0,8.887,0.666,9.298,6.521c-6.628,0.004-13.598,0.11-18.635,2.263V20.001z M26.856,21.39c7.174,0,14.89,0.003,20.208,2.152 c0.099,0.063,0.204,0.106,0.322,0.133c3.572,1.531,5.996,4.086,6.318,8.361H2.032C2.659,22.173,12.765,21.39,26.856,21.39z M2.001,43.722v-4.741h2.653l0.001,4.741H2.001z M51.089,43.722v-4.741h2.653l0.002,4.741H51.089z"/></symbol><symbol viewBox="0 0 490.773 490.773" id="svg-room_bed-small"><path d="M490.667,266.289c0-1.28-0.32-2.453-0.747-3.627c-0.107-0.213-0.213-0.427-0.32-0.533c-0.32-0.64-0.64-1.28-1.067-1.813 l-72.427-95.68V73.329c0.107-35.093-26.56-62.613-60.587-62.613H140.48c-35.627,0-65.707,28.693-65.707,62.613v97.387 l-72.32,89.28c-0.64,0.747-1.067,1.6-1.493,2.453l-0.107,0.107c-0.427,1.173-0.747,2.453-0.747,3.627 c0,0.107-0.107,0.32-0.107,0.427v202.347c0,5.333,3.84,10.133,9.067,10.88c6.72,1.067,12.373-4.053,12.373-10.453v-74.667h448 v74.347c0,5.333,3.84,10.133,9.067,10.88c6.613,0.96,12.267-4.16,12.267-10.56V266.715 C490.773,266.609,490.667,266.502,490.667,266.289z M96.107,73.329c0-21.973,20.693-41.28,44.373-41.28h214.827 c22.08,0,39.467,18.133,39.467,41.28v86.72H96.107V73.329z M93.547,181.382h308.48l56.64,74.667H33.173L93.547,181.382z M469.44,373.382h-448v-96h448V373.382z"/></symbol><symbol viewBox="0 0 207 85" id="svg-room_cond"><path d="M188.97 -0.197998H17.847C8.006 -0.197998 0 7.815 0 17.666V67.518C0 77.369 8.006 85.382 17.847 85.382H188.97C198.811 85.382 206.816 77.369 206.816 67.518V17.666C206.817 7.815 198.811 -0.197998 188.97 -0.197998ZM199.685 67.518C199.685 73.434 194.879 78.25 188.97 78.25H17.847C11.938 78.25 7.132 73.434 7.132 67.518V17.666C7.132 11.75 11.938 6.934 17.847 6.934H188.97C194.879 6.934 199.685 11.75 199.685 17.666V67.518Z"/><path d="M167.645 60.421H35.658V67.553H167.645V60.421zM185.422 49.724H21.395V56.856H185.422V49.724z"/></symbol><symbol viewBox="0 0 64 64" id="svg-room_refrigerator"><path d="M42,5H22c-2.207,0.004-3.996,1.793-4,4v44c0.003,1.859,1.28,3.408,3,3.857V58c0,0.552,0.448,1,1,1 s1-0.448,1-1v-1h18v1c0,0.552,0.448,1,1,1s1-0.448,1-1v-1.143c1.72-0.449,2.997-1.998,3-3.857V9C45.996,6.793,44.207,5.004,42,5z M20.588,7.588C20.956,7.223,21.451,7,22,7h20c0.549,0,1.044,0.223,1.412,0.588C43.777,7.956,44,8.451,44,9v12H20V9 C20,8.451,20.223,7.956,20.588,7.588z M43.412,54.412C43.044,54.777,42.549,55,42,55H22c-0.549,0-1.044-0.223-1.412-0.588 C20.223,54.044,20,53.549,20,53V23h24v30C44,53.549,43.777,54.044,43.412,54.412z"/><path d="M24 18c.552 0 1-.448 1-1v-6c0-.552-.448-1-1-1s-1 .448-1 1v6C23 17.552 23.448 18 24 18zM24 26c-.552 0-1 .448-1 1v6c0 .552.448 1 1 1s1-.448 1-1v-6C25 26.448 24.552 26 24 26z"/></symbol><symbol viewBox="0 0 32 32" id="svg-room_shower"><path d="M25,29.36c-0.199,0-0.36-0.161-0.36-0.36v-2c0-0.199,0.161-0.36,0.36-0.36s0.36,0.161,0.36,0.36v2	C25.36,29.199,25.199,29.36,25,29.36z M19,29.36c-0.199,0-0.36-0.161-0.36-0.36v-2c0-0.199,0.161-0.36,0.36-0.36	s0.36,0.161,0.36,0.36v2C19.36,29.199,19.199,29.36,19,29.36z M28,25.36c-0.199,0-0.36-0.161-0.36-0.36v-2	c0-0.199,0.161-0.36,0.36-0.36s0.36,0.161,0.36,0.36v2C28.36,25.199,28.199,25.36,28,25.36z M25,25.36	c-0.199,0-0.36-0.161-0.36-0.36v-4c0-0.199,0.161-0.36,0.36-0.36s0.36,0.161,0.36,0.36v4C25.36,25.199,25.199,25.36,25,25.36z M22,25.36c-0.199,0-0.36-0.161-0.36-0.36v-2c0-0.199,0.161-0.36,0.36-0.36s0.36,0.161,0.36,0.36v2	C22.36,25.199,22.199,25.36,22,25.36z M19,25.36c-0.199,0-0.36-0.161-0.36-0.36v-4c0-0.199,0.161-0.36,0.36-0.36	s0.36,0.161,0.36,0.36v4C19.36,25.199,19.199,25.36,19,25.36z M16,25.36c-0.199,0-0.36-0.161-0.36-0.36v-2	c0-0.199,0.161-0.36,0.36-0.36s0.36,0.161,0.36,0.36v2C16.36,25.199,16.199,25.36,16,25.36z M28,21.36	c-0.199,0-0.36-0.161-0.36-0.36v-4c0-0.199,0.161-0.36,0.36-0.36s0.36,0.161,0.36,0.36v4C28.36,21.199,28.199,21.36,28,21.36z M22,21.36c-0.199,0-0.36-0.161-0.36-0.36v-4c0-0.199,0.161-0.36,0.36-0.36s0.36,0.161,0.36,0.36v4	C22.36,21.199,22.199,21.36,22,21.36z M16,21.36c-0.199,0-0.36-0.161-0.36-0.36v-4c0-0.199,0.161-0.36,0.36-0.36	s0.36,0.161,0.36,0.36v4C16.36,21.199,16.199,21.36,16,21.36z M25,19.36c-0.199,0-0.36-0.161-0.36-0.36v-2	c0-0.199,0.161-0.36,0.36-0.36s0.36,0.161,0.36,0.36v2C25.36,19.199,25.199,19.36,25,19.36z M19,19.36	c-0.199,0-0.36-0.161-0.36-0.36v-2c0-0.199,0.161-0.36,0.36-0.36s0.36,0.161,0.36,0.36v2C19.36,19.199,19.199,19.36,19,19.36z M1.36,31H0.64V1h0.72v2.64H21c1.302,0,2.36,1.059,2.36,2.36v5.64H30c0.199,0,0.36,0.161,0.36,0.36v3c0,0.199-0.161,0.36-0.36,0.36	H14c-0.199,0-0.36-0.161-0.36-0.36v-3c0-0.199,0.161-0.36,0.36-0.36h6.64V7c0-0.353-0.287-0.64-0.64-0.64H1.36V31z M14.36,14.64	h15.28v-2.28H23c-0.199,0-0.36-0.161-0.36-0.36v-1.64h-1.28V12c0,0.199-0.161,0.36-0.36,0.36h-6.64	C14.36,12.36,14.36,14.64,14.36,14.64z M21.36,9.64h1.279V6c0-0.904-0.735-1.64-1.64-1.64H1.36v1.28H20c0.75,0,1.36,0.61,1.36,1.36	V9.64z"/></symbol><symbol viewBox="0 0 197.333 197.333" id="svg-room_sofa"><path d="M186.583,159.137H170.75c-1.104,0-2-0.896-2-2v-5.084H28.583v5.084c0,1.104-0.896,2-2,2H10.75c-1.104,0-2-0.896-2-2v-5.084	H2c-1.104,0-2-0.896-2-2V85.345c0-3.837,3.122-6.958,6.958-6.958h6.75c1.057,0,2.06,0.237,2.958,0.661V63.292	c0-13.838,11.258-25.096,25.096-25.096h113.809c13.838,0,25.096,11.258,25.096,25.096v15.756c0.898-0.423,1.901-0.66,2.958-0.66	h6.75c3.837,0,6.959,3.121,6.959,6.958v64.708c0,1.104-0.896,2-2,2h-6.75v5.084C188.583,158.242,187.688,159.137,186.583,159.137z M172.75,155.137h11.834v-3.084H172.75V155.137z M12.75,155.137h11.833v-3.084H12.75V155.137z M186.583,148.053h6.75V85.345	c0-1.631-1.327-2.958-2.959-2.958h-6.75c-1.631,0-2.958,1.327-2.958,2.958v62.708H186.583z M170.75,148.053h5.917v-27.762h-156	v27.762H170.75z M10.75,148.053h5.917V85.345c0-1.631-1.327-2.958-2.958-2.958h-6.75C5.327,82.387,4,83.715,4,85.345v62.708H10.75z M24.952,116.292h147.429c2.363,0,4.285-1.922,4.285-4.285v-7.43c0-2.363-1.922-4.285-4.285-4.285H24.952	c-2.363,0-4.286,1.922-4.286,4.285v7.43C20.667,114.37,22.589,116.292,24.952,116.292z M172.381,96.292h4.285v-33	c0-11.632-9.464-21.096-21.096-21.096H41.762c-11.632,0-21.096,9.464-21.096,21.096v33H172.381z"/></symbol><symbol viewBox="0 0 191.75 191.75" id="svg-room_toilet"><path d="M154.644,191.75H24.394c-0.782,0-1.518-0.365-1.991-0.988c-0.473-0.622-0.627-1.43-0.417-2.183l10.063-36.14	c-8.884-10.501-13.978-24.109-14.501-38.689h-4.545c-1.381,0-2.5-1.119-2.5-2.5v-1.75c0-5.928,4.822-10.75,10.75-10.75h86.642	c5.38,0,9.85,3.973,10.629,9.139c1.33-0.683,2.46-1.75,3.253-3.121c0.663-1.146,1.013-2.556,1.013-4.078V28.25h-1.959	c-1.381,0-2.5-1.119-2.5-2.5V18.5c0-4.273,3.477-7.75,7.75-7.75h16.377c-0.351-0.891-0.543-1.861-0.543-2.875	c0-4.343,3.533-7.875,7.875-7.875s7.875,3.532,7.875,7.875c0,1.014-0.193,1.984-0.543,2.875h16.377c4.273,0,7.75,3.477,7.75,7.75	v7.25c0,1.381-1.119,2.5-2.5,2.5h-1.959v65.454c0,7.462-2.346,13.939-7.384,20.384c-0.783,1.003-1.689,2.126-2.586,3.238	c-0.745,0.923-1.484,1.838-2.138,2.667c-0.664,0.842-1.362,1.692-2.079,2.565c-4.971,6.049-10.604,12.905-11.972,26.197	c-1.145,11.132,6.148,38.89,6.222,39.168l0.184,0.6c0.23,0.758,0.088,1.579-0.384,2.216	C156.18,191.375,155.435,191.75,154.644,191.75z M27.685,186.75h123.708c-1.833-7.34-6.773-28.429-5.736-38.506	c1.521-14.79,7.931-22.592,13.082-28.86c0.695-0.846,1.373-1.67,2.017-2.486c0.665-0.843,1.415-1.773,2.172-2.711	c0.88-1.092,1.77-2.193,2.539-3.177c4.314-5.52,6.323-11.019,6.323-17.306V28.25h-44v72.439c0,2.4-0.583,4.677-1.685,6.582	c-1.943,3.359-5.279,5.649-9.015,6.294c-0.292,0.119-0.611,0.185-0.945,0.185H22.55c0.535,13.835,5.505,26.682,14.133,36.404	c0.003,0.004,0.007,0.009,0.011,0.013c0.011,0.012,0.021,0.024,0.031,0.036c0.181,0.211,12.283,14.047,35.418,14.047	c1.381,0,2.5,1.119,2.5,2.5s-1.119,2.5-2.5,2.5c-18.693,0-30.708-8.08-36.05-12.699L27.685,186.75z M20.002,108.75h93.593	c-0.369-2.817-2.785-5-5.701-5H21.252c-2.917,0-5.333,2.183-5.701,5H20.002z M174.289,23.25h1.959V18.5	c0-1.517-1.233-2.75-2.75-2.75H126.08c-1.516,0-2.75,1.233-2.75,2.75v4.75H174.289z M149.789,5c-1.585,0-2.875,1.29-2.875,2.875	s1.29,2.875,2.875,2.875s2.875-1.29,2.875-2.875S151.375,5,149.789,5z"/></symbol><symbol viewBox="0 0 64 64" id="svg-room_towel"><path d="M63,8.2461004H49.2714996h-0.9937019H11.8491001h-0.2475996H1.0000008c-0.5523,0-1,0.4471998-1,1v6.7802	c0,0.5527992,0.4477,1,1,1h9.5052996V49.405201c0,0.5527992,0.4477997,1,1,1h5.3857994v4.3096008	c0,0.007,0.0039005,0.0126991,0.0039005,0.0126991c0,0.0136986-0.0039005,0.0193977-0.0039005,0.0193977	c0,0.5597,0.4477005,1.007,1,1.007h37.4223022c0.5522995,0,1-0.4473,1-1c0,0-0.0039024-0.0126991-0.0039024-0.0195999	c0,0,0.0039024-0.0124969,0.0039024-0.0194969V16.4570007H63c0.5522041,0,1-0.4473,1-1.000001V9.2461004	C64,8.6933002,63.5522041,8.2461004,63,8.2461004z M48.2777977,10.2461004h0.9937019c2.780201,0,5.0419006,2.2606993,5.0419006,5.04	v23.5879002H18.8910999V15.2861004c0-1.9752007-0.8206997-3.7602005-2.1357994-5.04H48.2777977z M54.3134003,44.6660004H18.8910999	v-3.7919998h35.4223022V44.6660004z M18.8910999,46.6660004h35.4223022v7.0878983H18.8910999V46.6660004z M2.0000007,10.2461004	h9.6014996h0.2475996c2.6913004,0,4.8773003,2.1236992,5.0156994,4.7802H2.0000007V10.2461004z M12.5053005,48.405201V17.0263004	h4.3857994V48.405201H12.5053005z M62,14.4569998h-5.7399025C56.0661011,12.8139,55.3055992,11.3437996,54.1777,10.2461004H62	V14.4569998z"/></symbol><symbol viewBox="0 0 700 679" id="svg-room_tv"><path d="M648.911 143.688H417.046L527.763 29.7227C529.373 28.1122 530.651 26.2006 531.523 24.0964C532.395 21.9922 532.843 19.7367 532.843 17.4591C532.843 15.1815 532.395 12.9261 531.523 10.8219C530.651 8.71766 529.373 6.80602 527.763 5.19553C526.152 3.58504 524.241 2.30749 522.137 1.4359C520.032 0.564313 517.777 0.115605 515.5 0.115605C513.222 0.115605 510.966 0.564312 508.862 1.4359C506.758 2.30749 504.846 3.58504 503.236 5.19553L368.046 143.647H340.303L208.523 11.8402C205.256 8.61483 200.85 6.80602 196.259 6.80602C191.668 6.80602 187.263 8.61483 183.996 11.8402C180.744 15.0931 178.917 19.5043 178.917 24.1038C178.917 28.7034 180.744 33.1145 183.996 36.3674L291.262 143.661H50.6212C37.1905 143.675 24.3149 149.021 14.8231 158.523C5.33124 168.025 -7.76849e-06 180.906 0 194.337V544.356C0.00720683 557.783 5.34156 570.659 14.8322 580.158C24.3229 589.656 37.194 595.001 50.6212 595.019H648.816C662.245 594.986 675.115 589.639 684.613 580.146C694.112 570.653 699.466 557.785 699.505 544.356V194.364C699.473 180.948 694.135 168.09 684.656 158.595C675.177 149.101 662.327 143.742 648.911 143.688ZM664.881 544.384C664.825 548.604 663.125 552.636 660.143 555.623C657.161 558.611 653.131 560.317 648.911 560.381H50.7169C46.4932 560.327 42.4577 558.624 39.4734 555.635C36.4891 552.646 34.7928 548.607 34.7469 544.384V194.364C34.7925 190.135 36.4872 186.091 39.47 183.093C42.4529 180.095 46.4882 178.38 50.7169 178.312H648.911C653.136 178.39 657.166 180.109 660.147 183.104C663.128 186.1 664.825 190.138 664.881 194.364V544.384ZM202.541 679.079H509.977V644.428H202.541V679.079Z"/></symbol><symbol viewBox="0 0 54.908 54.908" id="svg-room_wifi"><path d="M54.615,19.123c-7.243-7.244-16.89-11.233-27.161-11.233S7.537,11.878,0.293,19.123c-0.391,0.391-0.391,1.023,0,1.414 s1.023,0.391,1.414,0C8.573,13.67,17.717,9.889,27.454,9.889s18.881,3.781,25.747,10.647c0.195,0.195,0.451,0.293,0.707,0.293 s0.512-0.098,0.707-0.293C55.006,20.146,55.006,19.513,54.615,19.123z"/><path d="M6.171,25c-0.391,0.391-0.391,1.023,0,1.414c0.195,0.195,0.451,0.293,0.707,0.293s0.512-0.098,0.707-0.293 c10.955-10.956,28.781-10.956,39.737,0c0.391,0.391,1.023,0.391,1.414,0s0.391-1.023,0-1.414C37.002,13.266,17.907,13.264,6.171,25 z"/><path d="M27.454 24.508c-5.825 0-11.295 2.263-15.404 6.371-.391.391-.391 1.023 0 1.414s1.023.391 1.414 0c3.731-3.73 8.699-5.785 13.99-5.785 5.291 0 10.259 2.055 13.99 5.785.195.195.451.293.707.293s.512-.098.707-.293c.391-.391.391-1.023 0-1.414C38.75 26.771 33.279 24.508 27.454 24.508zM27.454 33.916c-3.612 0-6.551 2.939-6.551 6.552s2.939 6.552 6.551 6.552c3.613 0 6.552-2.939 6.552-6.552S31.067 33.916 27.454 33.916zM27.454 45.019c-2.51 0-4.551-2.042-4.551-4.552s2.042-4.552 4.551-4.552 4.552 2.042 4.552 4.552S29.964 45.019 27.454 45.019z"/></symbol><symbol viewBox="0 0 24 24" id="svg-vk"><path clip-rule="evenodd" d="M23.405 16.865C22.8611 15.7695 22.1444 14.7688 21.2825 13.9013C20.9892 13.5603 20.6453 13.2238 20.3768 12.9612L20.3393 12.9245C20.2008 12.7889 20.0864 12.6764 19.9928 12.5795C21.1713 10.9407 22.18 9.18595 23.003 7.34222L23.0362 7.26783L23.0595 7.18976C23.1676 6.82687 23.2922 6.1368 22.8515 5.51317C22.396 4.86859 21.6666 4.75234 21.1782 4.75234H18.9311C18.4627 4.73087 17.9988 4.85751 17.6058 5.11498C17.2098 5.37439 16.9069 5.75278 16.7402 6.1951C16.2563 7.34779 15.6508 8.4442 14.9347 9.46598V6.83269C14.9347 6.4923 14.9027 5.92289 14.5382 5.44229C14.1018 4.86685 13.4707 4.75234 13.0326 4.75234H9.46708C9.00771 4.74172 8.56094 4.90597 8.2176 5.21259C7.866 5.52659 7.65052 5.96521 7.61687 6.43543L7.61369 6.47997V6.52463C7.61369 7.01011 7.80606 7.36822 7.95975 7.59344C8.02856 7.69427 8.10216 7.78606 8.14865 7.84403L8.15938 7.85741C8.20895 7.91923 8.24204 7.96049 8.27525 8.00566C8.3626 8.12448 8.48824 8.30768 8.52379 8.78174V10.2547C7.9091 9.24423 7.26066 7.89957 6.77276 6.46344L6.76527 6.4414L6.75697 6.41965C6.63532 6.10103 6.4402 5.63743 6.04941 5.28266C5.59288 4.86821 5.0529 4.75234 4.56182 4.75234H2.28187C1.78506 4.75234 1.18613 4.86857 0.739237 5.33999C0.299773 5.80358 0.25 6.35907 0.25 6.65442V6.78755L0.278039 6.91769C0.909544 9.84881 2.21076 12.5937 4.07946 14.9377C4.92668 16.2737 6.07468 17.3936 7.43213 18.2075C8.81124 19.0345 10.3671 19.5219 11.9715 19.6297L12.0133 19.6325H12.0553C12.7811 19.6325 13.5378 19.5699 14.1068 19.1907C14.8744 18.6792 14.9347 17.8936 14.9347 17.5021V16.3642C15.1317 16.5234 15.3761 16.7378 15.6753 17.0259C16.037 17.3879 16.325 17.7016 16.572 17.9754L16.7038 18.122L16.7046 18.1228C16.8964 18.3364 17.0852 18.5467 17.2571 18.7195C17.4732 18.9367 17.7396 19.1761 18.0745 19.3529C18.4371 19.5444 18.8177 19.631 19.222 19.631H21.5035C21.9841 19.631 22.6735 19.5173 23.1582 18.9554C23.6864 18.343 23.6461 17.5924 23.48 17.053L23.4501 16.956L23.405 16.865ZM17.6857 16.9706C17.4289 16.6859 17.1192 16.3484 16.7278 15.9571L16.7246 15.9539C15.3685 14.6464 14.7348 14.4186 14.2868 14.4186C14.0485 14.4186 13.7848 14.4454 13.6137 14.6585C13.5329 14.7591 13.4905 14.8805 13.4667 15.007C13.4429 15.1333 13.4347 15.2816 13.4347 15.4505V17.5021C13.4347 17.7569 13.3928 17.8639 13.275 17.9425C13.118 18.0471 12.7825 18.1319 12.0637 18.1325C10.6993 18.0395 9.37641 17.6244 8.20349 16.9211C7.02817 16.2164 6.03709 15.2425 5.31187 14.0797L5.30398 14.0671L5.29464 14.0554C3.55337 11.8881 2.34003 9.34571 1.7503 6.6291C1.7535 6.49814 1.78187 6.42045 1.82784 6.37195C1.87521 6.32198 1.98999 6.25234 2.28187 6.25234H4.56182C4.81544 6.25234 4.9467 6.30751 5.04117 6.39327C5.14827 6.4905 5.24116 6.65561 5.35401 6.95042C5.91362 8.5964 6.67038 10.1357 7.387 11.2675C7.74518 11.8332 8.09769 12.3041 8.41529 12.6368C8.57383 12.803 8.72932 12.9406 8.8777 13.0385C9.02132 13.1332 9.18414 13.2079 9.35158 13.2079C9.43994 13.2079 9.54328 13.1988 9.64279 13.1547C9.74983 13.1074 9.83291 13.0284 9.89158 12.9225C9.99536 12.7353 10.0238 12.458 10.0238 12.0947V8.73099L10.0233 8.7231C9.97146 7.90476 9.72439 7.44443 9.48381 7.11718C9.43108 7.04546 9.37909 6.98068 9.33359 6.92399L9.32113 6.90846C9.27117 6.84616 9.23142 6.79582 9.19876 6.74795C9.13891 6.66024 9.11571 6.59909 9.11381 6.53356C9.12162 6.45578 9.15828 6.38361 9.21675 6.33139C9.27744 6.27719 9.35686 6.24897 9.43816 6.25234H13.0326C13.2387 6.25234 13.3081 6.30262 13.343 6.34868C13.3923 6.4137 13.4347 6.54893 13.4347 6.83269V11.3613C13.4347 11.8992 13.6827 12.2634 14.0428 12.2634C14.4572 12.2634 14.7559 12.012 15.2783 11.4896L15.287 11.4809L15.2948 11.4713C16.4656 10.0436 17.4225 8.45298 18.1347 6.74943L18.1392 6.73666C18.1928 6.58613 18.2941 6.45726 18.4278 6.3697C18.5614 6.28215 18.72 6.24072 18.8794 6.25175L18.8881 6.25234H21.1782C21.4905 6.25234 21.5933 6.33183 21.6265 6.37884C21.6618 6.42885 21.6864 6.53604 21.6264 6.74625C20.8053 8.58266 19.7899 10.3258 18.598 11.9464L18.5905 11.9578C18.4748 12.1348 18.3479 12.3306 18.3295 12.5554C18.3098 12.7968 18.4143 13.0163 18.597 13.2515C18.7302 13.4484 19.0049 13.7173 19.2836 13.9901L19.3099 14.0158C19.6021 14.3018 19.9186 14.6116 20.1727 14.9116L20.1795 14.9195L20.1869 14.9269C20.9444 15.6825 21.5743 16.556 22.052 17.5132C22.1283 17.7738 22.0816 17.907 22.0223 17.9757C21.953 18.0561 21.7976 18.131 21.5035 18.131H19.222C19.0438 18.131 18.9063 18.0959 18.7749 18.0265C18.638 17.9542 18.4972 17.8392 18.3206 17.6617C18.1784 17.5187 18.023 17.3457 17.8334 17.1348C17.7864 17.0825 17.7373 17.0277 17.6857 16.9706Z"/></symbol><symbol viewBox="0 0 24 24" id="svg-whatsapp"><path clip-rule="evenodd" d="M18.403 5.633A8.919 8.919 0 0 0 12.053 3c-4.948 0-8.976 4.027-8.978 8.977 0 1.582.413 3.126 1.198 4.488L3 21.116l4.759-1.249a8.981 8.981 0 0 0 4.29 1.093h.004c4.947 0 8.975-4.027 8.977-8.977a8.926 8.926 0 0 0-2.627-6.35m-6.35 13.812h-.003a7.446 7.446 0 0 1-3.798-1.041l-.272-.162-2.824.741.753-2.753-.177-.282a7.448 7.448 0 0 1-1.141-3.971c.002-4.114 3.349-7.461 7.465-7.461a7.413 7.413 0 0 1 5.275 2.188 7.42 7.42 0 0 1 2.183 5.279c-.002 4.114-3.349 7.462-7.461 7.462m4.093-5.589c-.225-.113-1.327-.655-1.533-.73-.205-.075-.354-.112-.504.112s-.58.729-.711.879-.262.168-.486.056-.947-.349-1.804-1.113c-.667-.595-1.117-1.329-1.248-1.554s-.014-.346.099-.458c.101-.1.224-.262.336-.393.112-.131.149-.224.224-.374s.038-.281-.019-.393c-.056-.113-.505-1.217-.692-1.666-.181-.435-.366-.377-.504-.383a9.65 9.65 0 0 0-.429-.008.826.826 0 0 0-.599.28c-.206.225-.785.767-.785 1.871s.804 2.171.916 2.321c.112.15 1.582 2.415 3.832 3.387.536.231.954.369 1.279.473.537.171 1.026.146 1.413.089.431-.064 1.327-.542 1.514-1.066.187-.524.187-.973.131-1.067-.056-.094-.207-.151-.43-.263"/></symbol></svg>